<?xml version="1.0" encoding="utf-8"?>
<!-- Generator: Adobe Illustrator 21.0.2, SVG Export Plug-In . SVG Version: 6.00 Build 0)  -->
<svg version="1.1" id="圖層_1" xmlns="http://www.w3.org/2000/svg" xmlns:xlink="http://www.w3.org/1999/xlink" x="0px" y="0px"
	 viewBox="0 0 182.4 33" style="enable-background:new 0 0 182.4 33;" xml:space="preserve">
<style type="text/css">
	.st0{fill:#FFFFFF;}
	.st1{fill:#395590;}
</style>
<g>
	<path class="st0" d="M16.3,31.4c-8.3,0-15-6.7-15-15s6.7-15,15-15h149.8c8.3,0,15,6.7,15,15s-6.7,15-15,15H16.3z"/>
	<path class="st1" d="M166.1,1.9c8,0,14.5,6.5,14.5,14.5s-6.5,14.5-14.5,14.5H16.3c-8,0-14.5-6.5-14.5-14.5S8.3,1.9,16.3,1.9H166.1z
		 M166.1,1H16.3C7.8,1,0.9,7.9,0.9,16.4c0,8.6,6.9,15.5,15.4,15.5h149.8c8.5,0,15.4-6.9,15.4-15.4C181.6,7.9,174.7,1,166.1,1z"/>
	<path class="st1" d="M28.7,27.3c6-6,6-15.8,0-21.8c-6-6-15.8-6-21.8,0c-6,6-6,15.8,0,21.8C12.9,33.3,22.6,33.3,28.7,27.3z"/>
	<path class="st0" d="M21.6,17h-2.7v10.1h-4.2V17h-2v-3.5h2v-2.3c0-1.6,0.8-4.2,4.2-4.2H22v3.4h-2.2c-0.4,0-0.9,0.2-0.9,1v2.1H22
		L21.6,17z"/>
	<path class="st1" d="M166.1,31.9H16.3C7.8,31.9,0.9,25,0.9,16.4C0.9,7.9,7.8,1,16.3,1h149.8c8.5,0,15.4,6.9,15.4,15.4
		C181.6,25,174.7,31.9,166.1,31.9z M16.3,2.6C8.7,2.6,2.5,8.8,2.5,16.4s6.2,13.8,13.8,13.8h149.8c7.6,0,13.8-6.2,13.8-13.8
		s-6.2-13.8-13.8-13.8H16.3z"/>
	<path class="st1" d="M169.6,23.2l-6.1-5.1c1.8-3.2,1.1-7.4-1.8-9.8c-3.3-2.8-8.3-2.3-11,1c-2.8,3.3-2.3,8.3,1,11
		c2.9,2.4,7.1,2.4,9.9,0.1l6.1,5.1c0.7,0.6,1.7,0.6,2.2-0.1C170.5,24.8,170.4,23.8,169.6,23.2z M152.8,19c-2.6-2.1-2.9-6-0.8-8.5
		c2.1-2.6,6-2.9,8.5-0.8c2.6,2.1,2.9,6,0.8,8.5C159.2,20.8,155.4,21.1,152.8,19z"/>
</g>
</svg>
