<?xml version="1.0" encoding="utf-8"?>
<!-- Generator: Adobe Illustrator 21.0.2, SVG Export Plug-In . SVG Version: 6.00 Build 0)  -->
<svg version="1.1" id="圖層_1" xmlns="http://www.w3.org/2000/svg" xmlns:xlink="http://www.w3.org/1999/xlink" x="0px" y="0px"
	 viewBox="0 0 64 108" style="enable-background:new 0 0 64 108;" xml:space="preserve">
<style type="text/css">
	.st0{fill:none;stroke:#B3A38A;stroke-miterlimit:10;}
	.st1{fill:#C7B299;}
</style>
<g>
	<path class="st0" d="M63.3,88.9l-32,17.6L0.7,88.9V0.5h62.6V88.9z"/>
	<path class="st1" d="M63.3,0.5H0V49h63.3V0.5z"/>
	<path class="st1" d="M51.6,76.6c0-0.1,0-0.1,0-0.2s0-0.1,0-0.2C51.4,74,34.8,57.7,31.5,56.3c-0.2-0.1-0.4-0.1-0.6-0.1
		c-0.2,0-0.4,0-0.6,0.1C27,57.7,10.4,74,10.2,76.2c0,0.1,0,0.1,0,0.2s0,0.1,0,0.2C10.4,78.7,27,95,30.3,96.5
		c0.2,0.1,0.4,0.1,0.6,0.1c0.2,0,0.4,0,0.6-0.1C34.8,95,51.4,78.7,51.6,76.6z M32.7,92.8h-1.8h-1.8C26.2,80,14.4,78.2,14.3,78.1
		v-1.8v-1.8c0.1,0,11.9-1.9,14.8-14.7h1.8h1.8c2.9,12.8,14.7,14.6,14.8,14.7v1.8v1.8C47.3,78.2,35.5,80.1,32.7,92.8z"/>
	<path class="st1" d="M30.9,64.2c-2.7,5.5-6.6,8.9-9.9,10.9h9.9h9.9C37.5,73,33.6,69.6,30.9,64.2z"/>
	<path class="st1" d="M20.9,77.5c3.3,2.1,7.3,5.5,9.9,10.9c2.7-5.5,6.6-8.9,9.9-10.9h-9.9H20.9z"/>
</g>
</svg>
