<svg width="38" height="45" viewBox="0 0 38 45" fill="none" xmlns="http://www.w3.org/2000/svg">
<path d="M18.818 44.1802C15.9891 44.1802 13.2387 44.1016 10.4098 44.023C8.75963 44.023 7.10943 43.9444 5.45923 43.8659C2.94464 43.7087 0.901533 41.9013 0.508628 39.5439C0.430047 39.0724 0.430049 38.5223 0.351468 38.0509C0.194306 35.6934 0.115723 33.2574 0.115723 30.9C0.115723 29.0926 0.194301 27.2853 0.272882 25.4779C0.272882 24.9278 0.351461 24.2992 0.430042 23.7491C0.744366 21.7846 1.92308 20.4487 3.73044 19.6629C4.35909 19.4272 5.06632 19.27 5.69497 19.27C7.18801 19.1914 8.68105 19.1914 10.1741 19.1128C11.6671 19.1128 13.1602 19.0343 14.5746 19.0343C18.4251 18.9557 22.3541 19.0343 26.2046 19.1128C28.1691 19.1914 30.0551 19.1914 32.0196 19.27C34.4556 19.3486 36.4201 21.0774 36.9702 23.3562C37.0488 23.8277 37.1274 24.2992 37.1274 24.8493C37.2059 26.3423 37.2845 27.7567 37.3631 29.2498C37.4417 31.3715 37.4417 33.4932 37.2845 35.6148C37.206 36.715 37.2059 37.7365 37.1274 38.8367C36.9702 41.2727 35.1628 43.3158 32.7268 43.7873C32.3339 43.8659 31.941 43.8659 31.4695 43.8659C27.3047 44.1016 23.0614 44.1802 18.818 44.1802ZM22.0398 27.6782C22.0398 27.6782 22.0398 27.5996 22.0398 27.521C22.0398 26.4209 22.0398 25.3207 22.0398 24.2206C22.0398 23.8277 22.0398 23.5134 22.0398 23.1205C22.0398 22.8847 21.9612 22.8061 21.7255 22.8061C20.9397 22.8061 20.2325 22.8061 19.4466 22.8061C19.2895 22.8061 19.2109 22.8847 19.2109 23.1205V23.1991C19.2109 28.6211 19.2109 34.0432 19.2109 39.4653V39.5439C19.2109 39.7011 19.2895 39.8582 19.4466 39.8582C20.2325 39.8582 20.9397 39.8582 21.7255 39.8582C21.8827 39.8582 21.9612 39.7796 22.0398 39.5439C22.0398 39.4653 22.0398 39.3867 22.0398 39.3082C22.1184 39.3082 22.1184 39.3082 22.1184 39.3867C22.6685 39.8582 23.2971 40.0154 24.0829 40.0154C24.9473 40.0154 25.576 39.5439 25.9689 38.7581C26.2046 38.2866 26.2832 37.7365 26.2832 37.1865C26.2832 34.829 26.2832 32.5502 26.2832 30.1928C26.2832 29.6427 26.2046 29.1712 26.0475 28.6211C25.576 27.2853 24.2401 26.6566 22.9828 27.2067C22.6685 27.2853 22.3541 27.521 22.0398 27.6782ZM30.2908 34.0432C30.3694 34.0432 30.448 34.0432 30.448 34.0432C31.7053 34.0432 32.9626 34.0432 34.2985 34.0432C34.5342 34.0432 34.6128 33.9646 34.6128 33.7289C34.6128 32.7073 34.6128 31.6858 34.6128 30.7428C34.6128 30.2713 34.6128 29.7999 34.4556 29.4069C34.2199 28.6211 33.827 27.9139 33.1197 27.4424C32.5697 27.1281 32.0196 26.9709 31.391 26.9709C30.5266 26.8924 29.6622 27.0495 28.9549 27.5996C27.9334 28.3068 27.4619 29.4069 27.3833 30.6642C27.3833 32.6288 27.3833 34.5147 27.3833 36.4792C27.3833 36.9507 27.4619 37.4222 27.6191 37.8937C27.9334 38.9153 28.562 39.6225 29.505 40.0154C30.2122 40.2511 30.9195 40.3297 31.6267 40.1725C32.3339 40.094 32.9626 39.8582 33.5126 39.3867C34.0627 38.8367 34.377 38.1294 34.5342 37.3436C34.6914 36.6364 34.6128 36.0078 34.6128 35.3005C34.6128 35.1434 34.5342 35.0648 34.2985 35.0648C33.5912 35.0648 32.8054 35.0648 32.0982 35.0648C31.8624 35.0648 31.7839 35.1434 31.7839 35.3791C31.7839 35.6934 31.7839 36.0863 31.7839 36.4007C31.7839 36.715 31.7053 36.9507 31.7053 37.265C31.7053 37.4222 31.5481 37.5794 31.391 37.5794C31.2338 37.5794 31.0766 37.658 30.8409 37.5794C30.6051 37.5794 30.448 37.4222 30.448 37.1865C30.3694 36.9507 30.3694 36.7936 30.3694 36.5578C30.3694 35.8506 30.3694 35.0648 30.3694 34.3576C30.2908 34.2004 30.2908 34.1218 30.2908 34.0432ZM14.8104 38.9938C14.8104 39.151 14.8104 39.3867 14.8104 39.5439C14.8104 39.7796 14.8889 39.8582 15.1247 39.8582C15.8319 39.8582 16.5391 39.8582 17.325 39.8582C17.5607 39.8582 17.6393 39.7796 17.6393 39.5439C17.6393 35.5363 17.6393 31.5286 17.6393 27.521C17.6393 27.2853 17.5607 27.2067 17.2464 27.2067C16.6177 27.2067 15.9105 27.2067 15.2819 27.2067C14.889 27.2067 14.8104 27.2067 14.8104 27.6782C14.8104 30.5857 14.8104 33.4932 14.8104 36.4792C14.8104 36.5578 14.8104 36.6364 14.8104 36.6364C14.5746 36.9507 14.2603 37.265 13.8674 37.3436C13.6317 37.4222 13.4745 37.3436 13.4745 37.0293C13.4745 36.8721 13.4745 36.7936 13.4745 36.6364C13.4745 33.5717 13.4745 30.5857 13.4745 27.521C13.4745 27.2067 13.3959 27.1281 13.1602 27.1281C12.4529 27.1281 11.7457 27.1281 11.1171 27.1281C10.8027 27.1281 10.7242 27.2067 10.7242 27.4424C10.7242 30.8214 10.7242 34.1218 10.7242 37.5008C10.7242 37.8937 10.8027 38.2866 10.8813 38.6795C11.1171 39.5439 11.7457 40.0154 12.6887 40.0154C13.1602 40.0154 13.5531 39.8582 13.946 39.7011C14.1031 39.4653 14.4175 39.2296 14.8104 38.9938ZM5.45923 25.7136C5.45923 25.7922 5.45923 25.8708 5.45923 25.9494C5.45923 30.4285 5.45923 34.9862 5.45923 39.4653C5.45923 39.7796 5.53781 39.8582 5.85214 39.8582C6.63795 39.8582 7.34517 39.8582 8.13098 39.8582C8.52389 39.8582 8.52389 39.7796 8.52389 39.4653C8.52389 34.9862 8.52389 30.4285 8.52389 25.9494C8.52389 25.8708 8.52389 25.7922 8.52389 25.7922C8.60247 25.7922 8.68105 25.7922 8.68105 25.7922C9.38828 25.7922 10.0955 25.7922 10.8027 25.7922C11.0385 25.7922 11.1171 25.7136 11.1171 25.4779C11.1171 24.6921 11.1171 23.9849 11.1171 23.1991C11.1171 22.9633 11.0385 22.8847 10.8027 22.8847C8.20956 22.8847 5.69498 22.8847 3.1018 22.8847C2.86606 22.8847 2.78747 22.9633 2.78747 23.1991C2.78747 23.9849 2.78747 24.6921 2.78747 25.4779C2.78747 25.7136 2.86606 25.7922 3.1018 25.7922C3.80903 25.7922 4.51626 25.7922 5.22349 25.7922C5.30207 25.7136 5.38065 25.7136 5.45923 25.7136Z" fill="#F2F2F2"/>
<path d="M15.832 10.3122C15.832 9.29067 15.832 8.26912 15.832 7.24756C15.832 6.85466 15.832 6.38317 15.9892 5.99027C16.2249 5.20446 16.775 4.73297 17.4822 4.34007C18.5038 3.86858 19.5253 3.79 20.5469 4.1829C21.647 4.57581 22.2757 5.4402 22.4328 6.61891C22.4328 6.77608 22.4328 6.93324 22.4328 7.01182C22.4328 9.21209 22.4328 11.3338 22.4328 13.534C22.4328 14.1627 22.2757 14.7128 22.0399 15.2628C21.5684 16.1272 20.7826 16.5987 19.8397 16.6773C19.1324 16.7559 18.5038 16.7559 17.8751 16.5201C16.8536 16.1272 16.2249 15.3414 15.9892 14.2413C15.9106 13.9269 15.9106 13.6126 15.9106 13.2983C15.832 12.3553 15.832 11.3338 15.832 10.3122ZM20.0754 10.3908C20.0754 9.29067 20.0754 8.19054 20.0754 7.0904C20.0754 6.6975 19.9182 6.46175 19.6039 6.30459C19.3682 6.22601 19.1324 6.14743 18.8181 6.22601C18.3466 6.30459 18.1109 6.61891 18.1109 7.16898C18.1109 9.36925 18.1109 11.5695 18.1109 13.6912C18.1109 13.7698 18.1109 13.8484 18.1109 13.9269C18.1895 14.3984 18.5038 14.7128 18.8967 14.7128C19.4468 14.7128 19.8397 14.477 19.9968 14.0055C19.9968 13.8484 20.0754 13.7698 20.0754 13.6126C20.0754 12.5911 20.0754 11.4909 20.0754 10.3908Z" fill="#F2F2F2"/>
<path d="M10.4099 16.5196C10.4099 16.441 10.4099 16.3625 10.4099 16.3625C10.4099 14.3194 10.4099 12.1977 10.4099 10.1546C10.4099 10.076 10.4099 9.9974 10.3313 9.91882C9.38832 6.697 8.36677 3.47517 7.4238 0.253354C7.4238 0.174773 7.4238 0.174772 7.34521 0.0961914C8.20961 0.0961914 9.074 0.0961914 9.93839 0.0961914C10.017 0.410515 10.0956 0.72484 10.1741 1.11775C10.6456 2.92511 11.1171 4.73247 11.51 6.61841C11.51 6.69699 11.51 6.77558 11.5886 6.77558C11.6672 6.77558 11.6672 6.69699 11.6672 6.61841C12.1387 4.49673 12.6887 2.37504 13.1602 0.331935C13.1602 0.253354 13.1602 0.174773 13.3174 0.174773C14.1032 0.174773 14.889 0.174773 15.6748 0.174773H15.7534C15.6748 0.489097 15.5962 0.803421 15.5176 1.03916C14.6532 3.94666 13.7889 6.77558 12.8459 9.68307C12.8459 9.76165 12.8459 9.84024 12.8459 9.91882C12.8459 12.1191 12.8459 14.2408 12.8459 16.441C12.8459 16.5196 12.8459 16.5982 12.8459 16.5982C12.1387 16.5196 11.2743 16.5196 10.4099 16.5196Z" fill="#F2F2F2"/>
<path d="M28.4836 4.4184C29.2694 4.4184 29.9766 4.4184 30.7625 4.4184C30.7625 8.50461 30.7625 12.5122 30.7625 16.5985C29.9766 16.5985 29.2694 16.5985 28.4836 16.5985C28.4836 16.2055 28.4836 15.7341 28.4836 15.2626C28.405 15.3412 28.405 15.3412 28.3264 15.4197C27.855 15.9698 27.3049 16.4413 26.5977 16.677C26.2048 16.8342 25.8119 16.8342 25.4189 16.7556C24.7903 16.5985 24.3974 16.2055 24.3188 15.5769C24.2402 15.2626 24.2402 14.8697 24.2402 14.5553C24.2402 11.2549 24.2402 7.95454 24.2402 4.65414C24.2402 4.57556 24.2402 4.57556 24.2402 4.49698C25.026 4.49698 25.7333 4.49698 26.5191 4.49698C26.5191 4.57556 26.5191 4.65414 26.5191 4.65414C26.5191 7.64022 26.5191 10.7049 26.5191 13.691C26.5191 13.8481 26.5191 13.9267 26.5191 14.0839C26.5977 14.4768 26.912 14.7125 27.3049 14.5553C27.6978 14.3982 28.0121 14.1624 28.2479 13.8481C28.405 13.691 28.405 13.6124 28.405 13.4552C28.405 10.5477 28.405 7.56164 28.405 4.65414C28.4836 4.49698 28.4836 4.4184 28.4836 4.4184Z" fill="#F2F2F2"/>
<path d="M22.04 33.4932C22.04 32.3145 22.04 31.1358 22.04 29.9571C22.04 29.8785 22.04 29.7999 22.1186 29.7213C22.2758 29.5642 22.5115 29.4856 22.7473 29.4856C22.983 29.4856 23.1402 29.5642 23.2973 29.7999C23.3759 29.9571 23.3759 30.1142 23.4545 30.2714C23.4545 30.4286 23.4545 30.5857 23.4545 30.6643C23.4545 32.6288 23.4545 34.6719 23.4545 36.6365C23.4545 36.7936 23.4545 37.0294 23.3759 37.1865C23.3759 37.4223 23.2188 37.5009 22.983 37.5009C22.5901 37.5009 22.3544 37.3437 22.1186 37.108C22.1186 37.108 22.1186 37.0294 22.1186 36.9508C22.04 35.8507 22.04 34.6719 22.04 33.4932Z" fill="#F2F2F2"/>
<path d="M31.7841 31.6075C31.3126 31.6075 30.8411 31.6075 30.291 31.6075C30.291 31.136 30.291 30.5859 30.3696 30.1144C30.4482 29.5644 30.9197 29.3286 31.3912 29.5644C31.5483 29.6429 31.6269 29.7215 31.6269 29.8787C31.7055 30.0358 31.7055 30.2716 31.7055 30.5073C31.7841 30.8216 31.7841 31.2146 31.7841 31.6075Z" fill="#F2F2F2"/>
</svg>
