<svg width="44" height="45" viewBox="0 0 44 45" fill="none" xmlns="http://www.w3.org/2000/svg">
<path d="M0.151855 22.1204C0.151855 17.9556 0.151855 13.7123 0.151855 9.54746C0.151855 7.66152 0.623341 5.93273 1.72348 4.36111C2.82361 2.78949 4.23807 1.61078 6.04543 0.903551C7.14556 0.510646 8.32429 0.274902 9.503 0.274902C17.9112 0.274902 26.2408 0.274902 34.6489 0.274902C36.5349 0.274902 38.3422 0.746388 39.9138 1.84652C41.2497 2.71091 42.2713 3.88963 42.9785 5.30409C43.45 6.32564 43.7643 7.34719 43.9215 8.44733C44 8.76165 44 9.15456 44 9.46888C44 17.877 44 26.2852 44 34.772C44 36.6579 43.5286 38.3867 42.4284 39.9583C41.3283 41.6085 39.8353 42.7086 38.0279 43.4159C37.0063 43.8088 35.9062 43.9659 34.7275 44.0445C26.2408 44.0445 17.8326 44.0445 9.34583 44.0445C7.14556 44.0445 5.18104 43.3373 3.45225 41.9228C1.80205 40.5084 0.70192 38.7796 0.309015 36.6579C0.151853 36.0293 0.151855 35.4006 0.151855 34.772C0.151855 30.5286 0.151855 26.3638 0.151855 22.1204ZM4.15949 22.1204C4.15949 26.2852 4.15949 30.5286 4.15949 34.6934C4.15949 35.6363 4.31665 36.5793 4.86671 37.3651C5.88827 39.0939 7.45989 40.0369 9.503 40.0369C17.9112 40.0369 26.3193 40.0369 34.8061 40.0369C35.749 40.0369 36.6134 39.8797 37.3993 39.4082C39.128 38.3867 40.071 36.8151 40.071 34.772C40.071 26.3638 40.071 17.9556 40.071 9.46888C40.071 8.52591 39.9138 7.66152 39.4424 6.87571C38.4208 5.14692 36.8492 4.20395 34.8061 4.20395C26.3979 4.20395 17.9897 4.20395 9.503 4.20395C7.93138 4.20395 6.67408 4.75402 5.57395 5.85415C4.63098 6.87571 4.15949 8.133 4.15949 9.54746C4.15949 13.7908 4.15949 17.9556 4.15949 22.1204Z" fill="white"/>
<path d="M21.8401 8.60419C24.9048 8.60419 27.5765 9.23283 30.0911 10.5687C32.37 11.7474 34.1774 13.3976 35.3561 15.6765C36.3776 17.4838 36.6919 19.4484 36.4562 21.5701C36.2205 23.3774 35.5132 24.949 34.4131 26.3635C33.1558 28.0137 31.6628 29.3496 30.0911 30.6854C27.8123 32.4928 25.3763 34.143 22.8617 35.5575C22.4688 35.7932 22.0759 35.9504 21.6044 36.1075C21.5258 36.1075 21.4472 36.1861 21.3687 36.1861C20.8972 36.2647 20.6614 36.029 20.74 35.5575C20.8186 35.086 20.8972 34.6145 20.9758 34.0644C21.0543 33.7501 21.0543 33.4358 21.0543 33.1215C21.0543 32.65 20.8186 32.3356 20.4257 32.1785C20.1114 32.0213 19.7185 31.9427 19.3256 31.8642C16.4181 31.3927 13.7463 30.2925 11.4675 28.4066C9.58151 26.835 8.24562 24.7919 7.77414 22.3559C7.22407 19.7627 7.69556 17.3267 9.03144 15.1264C10.3673 12.9261 12.2533 11.3545 14.6107 10.2544C16.4966 9.31141 18.4612 8.83993 20.5043 8.60419C21.0543 8.68277 21.5258 8.68277 21.8401 8.60419ZM24.7476 21.1771C24.6691 21.1771 24.5905 21.0986 24.5905 21.02C23.7261 19.7627 22.7831 18.584 21.9187 17.3267C21.8401 17.2481 21.8401 17.1695 21.7616 17.0909C21.5258 16.8552 21.2115 16.7766 20.8972 16.9338C20.5828 17.0909 20.5043 17.3267 20.5043 17.7196C20.5043 18.8197 20.5043 19.9984 20.5043 21.0986C20.5043 21.8844 20.5043 22.5916 20.5043 23.3774C20.5043 23.7703 20.74 24.0061 21.0543 24.0846C21.5258 24.2418 22.0759 23.8489 22.0759 23.3774C22.0759 22.2773 22.0759 21.1771 22.0759 20.077C22.0759 19.9984 22.0759 19.9199 22.0759 19.8413C22.1545 19.9199 22.233 19.9199 22.233 19.9984C23.0974 21.1771 24.0404 22.4344 24.9048 23.6132C24.9834 23.6917 24.9834 23.7703 25.062 23.8489C25.2977 24.0846 25.612 24.1632 25.9264 24.0061C26.2407 23.8489 26.3193 23.5346 26.3193 23.2203C26.3193 21.4129 26.3193 19.6055 26.3193 17.7982C26.3193 17.2481 26.0049 16.8552 25.5334 16.8552C25.062 16.8552 24.7476 17.1695 24.7476 17.7982C24.7476 18.8197 24.7476 19.8413 24.7476 20.9414C24.7476 21.0986 24.7476 21.0986 24.7476 21.1771ZM28.8339 18.5054C28.9124 18.5054 28.991 18.5054 29.0696 18.5054C29.6982 18.5054 30.2483 18.5054 30.8769 18.5054C31.0341 18.5054 31.2699 18.4268 31.427 18.3482C31.6628 18.1911 31.8199 17.7982 31.7413 17.4838C31.6628 17.1695 31.3484 16.9338 30.9555 16.9338C30.0126 16.9338 29.0696 16.9338 28.1266 16.9338C27.6551 16.9338 27.3408 17.2481 27.3408 17.7982C27.3408 19.6841 27.3408 21.5701 27.3408 23.3774C27.3408 23.9275 27.6551 24.2418 28.2052 24.2418C29.1482 24.2418 30.0126 24.2418 30.9555 24.2418C31.427 24.2418 31.7413 23.9275 31.8199 23.456C31.8199 22.9845 31.5056 22.6702 31.0341 22.6702C30.4055 22.6702 29.7768 22.6702 29.2268 22.6702C29.1482 22.6702 29.0696 22.6702 28.991 22.6702C28.991 22.1987 28.991 21.7272 28.991 21.3343C29.0696 21.3343 29.1482 21.3343 29.2268 21.3343C29.8554 21.3343 30.4055 21.3343 31.0341 21.3343C31.427 21.3343 31.7413 21.0986 31.8199 20.7842C31.9771 20.3128 31.5842 19.8413 31.0341 19.8413C30.4055 19.8413 29.7768 19.8413 29.2268 19.8413C29.1482 19.8413 29.0696 19.8413 28.991 19.8413C28.8338 19.3698 28.8339 18.9769 28.8339 18.5054ZM14.2964 22.7488C14.2964 22.6702 14.2964 22.5916 14.2964 22.513C14.2964 21.02 14.2964 19.4484 14.2964 17.9553C14.2964 17.8767 14.2964 17.7982 14.2964 17.7196C14.2178 17.1695 13.6677 16.8552 13.1962 17.1695C12.8819 17.3267 12.8033 17.5624 12.8033 17.9553C12.8033 19.4484 12.8033 20.8628 12.8033 22.3559C12.8033 22.7488 12.8033 23.1417 12.8033 23.5346C12.8033 24.0846 13.1176 24.399 13.6677 24.399C13.9035 24.399 14.0606 24.399 14.2964 24.399C15.0036 24.399 15.7108 24.399 16.418 24.399C16.9681 24.399 17.2824 23.9275 17.2039 23.456C17.1253 23.1417 16.811 22.9059 16.418 22.9059C15.7108 22.7488 15.0036 22.7488 14.2964 22.7488ZM19.4041 20.6271C19.4041 20.3128 19.4041 19.9984 19.4041 19.6841C19.4041 19.0555 19.4041 18.4268 19.4041 17.7982C19.4041 17.4053 19.247 17.0909 18.8541 17.0124C18.304 16.8552 17.8325 17.2481 17.8325 17.7982C17.8325 19.6841 17.8325 21.4915 17.8325 23.3774C17.8325 23.456 17.8325 23.6132 17.8325 23.6917C17.9111 24.0061 18.2254 24.2418 18.5397 24.2418C18.8541 24.2418 19.1684 24.0061 19.247 23.6917C19.247 23.6132 19.247 23.456 19.247 23.3774C19.4041 22.4344 19.4041 21.5701 19.4041 20.6271Z" fill="white"/>
</svg>
