<svg width="44" height="44" viewBox="0 0 44 44" fill="none" xmlns="http://www.w3.org/2000/svg">
<path d="M43.8051 8.23316C43.8051 17.5057 43.8051 26.7783 43.8051 36.0508V36.1294C43.7265 37.3081 43.4122 38.4868 42.7836 39.5084C41.5263 41.7087 39.5618 43.0445 37.0472 43.516C36.8114 43.5946 36.4971 43.5946 36.2614 43.5946C26.9888 43.5946 17.7162 43.5946 8.44368 43.5946C8.28652 43.5946 8.05077 43.5946 7.89361 43.516C6.40057 43.2803 4.98611 42.7302 3.8074 41.7872C2.23578 40.53 1.29281 38.8797 0.978482 36.8366C0.899901 36.5223 0.899902 36.2866 0.899902 35.9723C0.899902 26.6997 0.899902 17.4271 0.899902 8.15458C0.899902 7.99742 0.899901 7.76168 0.978482 7.60452C1.21423 5.95432 1.84287 4.46128 3.02159 3.20398C4.27888 1.78952 5.8505 0.925132 7.73645 0.610808C7.97219 0.532227 8.28651 0.532227 8.52226 0.532227C17.7948 0.532227 27.0674 0.532227 36.3399 0.532227H36.4185C37.5186 0.610808 38.5402 0.846551 39.4832 1.39662C41.8406 2.65391 43.2551 4.61844 43.7265 7.29019C43.7265 7.6831 43.8051 7.99742 43.8051 8.23316ZM34.6897 23.7922C34.8469 22.142 35.0826 20.4132 35.2398 18.763C33.7468 18.763 32.1751 18.763 30.6821 18.763C30.6821 18.6844 30.6821 18.6844 30.6821 18.6059C30.6821 17.7415 30.6821 16.7985 30.6821 15.9341C30.6821 15.6984 30.6821 15.4626 30.6821 15.2269C30.7607 14.5196 31.075 14.1267 31.7822 13.9696C32.018 13.891 32.3323 13.891 32.568 13.891C33.511 13.891 34.5326 13.891 35.4755 13.891C35.5541 13.891 35.5541 13.891 35.6327 13.891C35.6327 12.2408 35.6327 10.5906 35.6327 8.86181C35.5541 8.86181 35.5541 8.86181 35.5541 8.86181C33.9039 8.86181 32.3323 8.86181 30.6821 8.86181C29.6605 8.86181 28.7176 8.94039 27.7746 9.25472C26.3601 9.64762 25.3386 10.512 24.7099 11.8479C24.2385 12.8694 24.0813 13.891 24.0813 14.9911C24.0813 16.1698 24.0813 17.4271 24.0813 18.6059C24.0813 18.6844 24.0813 18.6844 24.0813 18.763C23.2169 18.763 22.3525 18.763 21.4881 18.763C21.4881 20.4132 21.4881 22.0634 21.4881 23.7922C22.3525 23.7922 23.2169 23.7922 24.0813 23.7922C24.0813 28.7428 24.0813 33.6934 24.0813 38.644C26.3601 38.644 28.5604 38.644 30.7607 38.644C30.7607 33.6934 30.7607 28.7428 30.7607 23.7922C32.018 23.7922 33.3539 23.7922 34.6897 23.7922Z" fill="white"/>
</svg>
