<svg width="35" height="35" viewBox="0 0 35 35" fill="none" xmlns="http://www.w3.org/2000/svg">
<path d="M34.7609 6.12692C34.7609 13.6293 34.7609 21.1316 34.7609 28.634C34.7609 28.6965 34.7609 28.6965 34.7609 28.759C34.6983 29.7593 34.4483 30.6346 33.9481 31.5099C32.8853 33.3229 31.3848 34.3858 29.3217 34.7609C29.0716 34.8234 28.884 34.8234 28.634 34.8234C21.1316 34.8234 13.6293 34.8234 6.12692 34.8234C6.00188 34.8234 5.81432 34.8234 5.68928 34.7609C4.43889 34.5733 3.31354 34.1357 2.37574 33.3229C1.12535 32.2601 0.312598 30.9472 0.0625196 29.3217C0.0625196 29.0716 0 28.884 0 28.634C0 21.1316 0 13.6293 0 6.12692C0 6.00188 0 5.81432 0.0625196 5.68928C0.250078 4.37637 0.750235 3.1885 1.68803 2.12566C2.68834 1.00031 4.00125 0.312598 5.50172 0.0625196C5.68928 0.0625196 5.93936 0 6.12692 0C13.6293 0 21.1316 0 28.634 0C28.6965 0 28.6965 0 28.759 0C29.6343 0.0625196 30.5095 0.312598 31.2598 0.687715C33.1979 1.68803 34.3232 3.31354 34.6983 5.4392C34.7609 5.68928 34.7609 5.93936 34.7609 6.12692ZM27.3836 18.7559C27.5086 17.3804 27.6962 16.0675 27.8212 14.6921C26.5708 14.6921 25.3829 14.6921 24.1325 14.6921C24.1325 14.6296 24.1325 14.6296 24.1325 14.5671C24.1325 13.8168 24.1325 13.1291 24.1325 12.3789C24.1325 12.1913 24.1325 12.0038 24.1325 11.8162C24.1951 11.2535 24.4451 10.9409 25.0078 10.8159C25.1954 10.7534 25.4455 10.7534 25.633 10.7534C26.3833 10.7534 27.196 10.7534 27.9462 10.7534C28.0088 10.7534 28.0088 10.7534 28.0713 10.7534C28.0713 9.37793 28.0713 8.06502 28.0713 6.68959C28.0088 6.68959 28.0088 6.68959 28.0088 6.68959C26.6958 6.68959 25.3829 6.68959 24.07 6.68959C23.2573 6.68959 22.4445 6.75211 21.6943 7.00219C20.5689 7.37731 19.6937 8.0025 19.1935 9.12786C18.8184 9.94061 18.6933 10.7534 18.6308 11.6286C18.6308 12.629 18.6308 13.5667 18.6308 14.5671C18.6308 14.6296 18.6308 14.6296 18.6308 14.6921C17.9431 14.6921 17.1929 14.6921 16.5052 14.6921C16.5052 16.0675 16.5052 17.3804 16.5052 18.7559C17.1929 18.7559 17.8806 18.7559 18.6308 18.7559C18.6308 22.7571 18.6308 26.7584 18.6308 30.8221C20.4439 30.8221 22.257 30.8221 24.07 30.8221C24.07 26.8209 24.07 22.8196 24.07 18.7559C25.1954 18.7559 26.3207 18.7559 27.3836 18.7559Z" fill="#0071BC"/>
</svg>
