<?xml version="1.0" encoding="utf-8"?>
<!-- Generator: Adobe Illustrator 21.0.2, SVG Export Plug-In . SVG Version: 6.00 Build 0)  -->
<svg version="1.1" id="圖層_1" xmlns="http://www.w3.org/2000/svg" xmlns:xlink="http://www.w3.org/1999/xlink" x="0px" y="0px"
	 viewBox="0 0 324 43" style="enable-background:new 0 0 324 43;" xml:space="preserve">
<style type="text/css">
	.st0{fill:#FFFFFF;}
	.st1{fill:#1A1A1A;}
	.st2{fill:#C7B299;}
</style>
<g>
	<path class="st0" d="M74.6,22.1H50.4c-3.9,0-3.9,2.3-3.9,4.7v12.1c0,3.6,2.6,3.6,5.1,3.6h24.3c3.9,0,3.9-2.3,3.9-4.7V25.6
		C79.7,22.1,77.2,22.1,74.6,22.1z M72.1,37.5c0,1-0.4,1.2-1.2,1.2H55.4c-0.8,0-1.2-0.2-1.2-1.2V28c0-1,0.4-1.2,1.2-1.2h15.5
		c0.9,0,1.2,0.2,1.2,1.2V37.5z"/>
	<path class="st0" d="M68.6,5.3c-0.8,0-1.4,0.6-1.4,1.3c0,0.5,0.2,0.8,0.7,1.2c1.3,1.4,2.8,3.1,4.6,5.4l0.2,0.2h-0.3
		c-5,0.5-11.2,0.8-16.7,1h-0.5l0.3-0.3c1.3-1.3,5.6-5.9,8.7-9.7h0.1c0.5-0.7,0.9-1.1,0.9-1.7c0-1.9-3.6-2.9-5.7-2.9
		c-0.2,0-0.4,0-0.5,0c-1.2,0-1.7-0.1-2.3,1.4C56,3,53.3,8.8,49.1,14.8L49,14.9H49c-0.3,0-1.1,0-1.9,0c-1.2,0-2.9,0-3.3,0.1
		c-1.5,0.2-1.8,1.3-1.8,2.2c0,1,0.4,2.8,2.7,2.8c4.3,0,24.3-2.7,29.7-3.6h0.1l0.1,0.1c0.1,0.2,0.3,0.5,0.5,0.9
		c0.5,0.9,1.3,2.2,1.5,2.6c0.8,1.2,1.9,1.2,2.2,1.1c3.2-1,4.6-2.2,4.6-3.9c0-0.9-0.4-1.6-4-4.6C75.8,9.4,69.8,5.3,68.6,5.3z"/>
	<path class="st0" d="M128.4,33.2h-20.8c-0.4,0-0.6-0.2-0.6-0.5c0-0.5,0.3-1.2,0.7-1.2h19.6c1.9,0,2.8-0.8,2.8-2.4v-2.3
		c0-2.6-1.9-2.6-3.7-2.6h-24.9c-1.1,0-1.3,0.5-1.3,1.4c0,1.1,0.5,1.3,1.3,1.3h20.6c0.9,0,0.9,0.3,0.9,1.2c0,0.7-0.5,0.7-0.9,0.7
		h-19.8c-1,0-1.6,0.5-1.9,1.6c-0.2,0.9-0.9,3.6-0.9,4c0,1.2,1,1.7,1.7,1.7h21.1c0.2,0,0.5,0.1,0.5,0.7c0,1.2-0.2,1.9-0.7,2.4
		c-0.5,0.5-1.2,0.5-1.9,0.5h-0.2H98.5c-0.9,0-1.1,0.5-1.1,1.6c0,1.2,0.5,1.4,1.3,1.4h25.9c2.6,0,4-0.3,4.7-2.2
		c0.5-1.3,1.2-3.3,1.2-5C130.5,33.3,128.5,33.2,128.4,33.2z"/>
	<path class="st0" d="M130.5,9.3c-0.1-0.2-0.5-0.7-1.2-0.7c-0.7,0-1.3,0.5-1.3,1.2c0,0.3,0,0.4,0.2,1.1l0.1,0.2h-0.2
		c-0.4,0-0.7,0-1.1,0.1c-0.3,0-0.6,0-1,0.1h-0.5l0.3-0.3c0.2-0.2,0.4-0.5,0.6-0.7c0.9-1,2-2.2,3.3-3.7c0.5-0.6,0.8-1,0.8-1.6
		c0-1.4-1.8-2.3-2.8-2.3c-0.7,0-1.1,0.2-1.5,1c-0.8,1.5-1.2,2.2-1.5,2.8l-0.2,0.2l-0.2-0.2c-0.2-0.2-0.3-0.4-0.7-0.7l-0.2-0.1
		l0.1-0.2c1.1-1.7,1.3-2.3,1.3-2.8c0-1-1.2-1.7-2.2-1.7c-1,0-1.2,0.6-1.5,2.6v0.2l-0.3-0.2c-0.2-0.2-0.5-0.2-0.7-0.2
		c-0.7,0-1.3,0.6-1.3,1.3c0,0.2,0.1,0.3,0.1,0.5l0.1,0.2h-8.3c-0.8,0-0.9,0.5-0.9,1c0,0.3,0.1,1,0.9,1h8c0.4,0,0.8-0.1,0.9-0.9
		l0.1-0.4l0.2,0.3c0.9,1.2,1.1,1.5,1.6,2.2l0.2,0.4c0.2,0.4,0.4,0.5,0.9,0.7l0.2,0.1l-0.2,0.2c-0.4,0.6-0.5,0.8-0.7,1
		c-0.1,0.1-0.1,0.2-0.2,0.2l-0.1,0.1h-0.1c-2.3,0-2.8,0-2.9,1.2l-0.1,0.3l-0.2-0.2c-0.2-0.2-0.4-0.2-0.6-0.2h-6.4l-0.1-0.1
		c-0.1-0.1-0.2-0.4-0.3-0.7s-0.2-0.5-0.3-0.7l-0.2-0.5c-0.5-1.2-0.9-1.9-1.8-1.9c-0.9,0-1.4,0.8-1.4,1.3c0,0.3,0,0.4,0.2,0.9
		l0.2,0.5h-0.2c-0.6,0-0.9,0.1-1.2,0.1c-0.3,0-0.5,0-0.9,0h-0.4l0.2-0.3c1.1-1.2,2.5-2.9,3.6-4.4c0.5-0.5,0.7-1,0.7-1.7
		c0-1.5-1.7-2.3-2.6-2.3c0,0-0.9,0-1.2,0.7c-0.3,0.5-0.7,1.3-1,2c-0.2,0.4-0.4,0.8-0.5,1.2l-0.2,0.3l-0.3-0.3
		c-0.2-0.2-0.2-0.3-0.5-0.5L103,5.7l0.1-0.2c1.1-1.9,1.2-2.4,1.2-2.7c0-1.1-1.2-1.8-2.2-1.8c-0.9,0-1.1,0.7-1.4,2.6l-0.1,0.2
		l-0.2-0.2c-0.2-0.2-0.5-0.2-0.8-0.2c-0.6,0-1.3,0.5-1.3,1.3c0,0.3,0.2,0.6,0.9,1.5l0.3,0.4c0.2,0.3,0.9,1.4,1.4,2.1
		c0.2,0.2,0.3,0.5,0.4,0.5c0.2,0.3,0.5,0.4,0.7,0.5l0.2,0.1l-0.5,0.7c-0.2,0.4-0.3,0.5-0.5,0.7l-0.1,0.1h-0.1c-2.1,0-2.8,0-2.8,1.5
		c0,0.5,0.1,1.9,1.2,1.9c0.4,0,2.2-0.2,2.3-0.2l0.2-0.1v2.2l-0.3-0.2c-0.5-0.5-1-0.7-1.6-0.7c-1,0-1.1,0.7-1.2,1.3l-0.1,0.4
		l-0.2-0.2c-0.9-1-6.2-4.3-7.7-4.3h-0.1c-0.2,0-0.5,0-0.5,0.1c-0.1,0.1-0.2,0.3-0.2,0.6c0,0.4,0.2,0.9,0.6,1.3
		c0.9,1.3,1.7,2.9,2.3,4.5c0.2,0.5,0.5,1,0.7,1.5c0.4,0.9,1,1.2,1.9,1.2c0.9,0,1.7-0.5,2-0.7l0.3-0.2v0.3c0,0.4,0.1,0.8,0.3,1
		c0.3,0.3,0.7,0.4,0.9,0.4c0.8,0,1.2-0.4,2.5-3.6l0.3-0.9v2.6c0,1.2,0.2,2.3,2.2,2.3c1.6,0,2.2-0.7,2.2-2.3v-4.1l0.3,0.8
		c0.2,0.5,0.5,1.4,0.7,2.2c0.4,1.5,0.5,1.9,1.5,1.9c0.2,0,0.8,0,1.5-0.7l0.2-0.2l0.1,0.2c0.5,1.5,1.6,1.5,3,1.5h1.5
		c1.3,0,2.1,0,2.7-0.9l0.2-0.3l0.1,0.4c0.2,0.9,0.9,1.1,1.3,1.1c1.2,0,2-2.2,2.6-3.6l0.4-0.9v2.5c0,1.2,0.3,2.3,2.4,2.3
		c1.8,0,2.5-0.7,2.5-2.3v-7.2h0.2c0.1,0,0.3-0.1,0.6-0.1c0.2-0.1,0.5-0.1,0.5-0.1l0.2-0.1l0.1,0.2c0.4,1.8,0.5,2.3,1.6,2.3
		c1,0,1.9-1,1.9-2C132.5,13,131,10,130.5,9.3z M114.5,20.3c-0.3,0-0.7-0.1-0.7-0.8c0-1.1,0.1-1.4,1.1-1.4c0.7,0,0.7,0.5,0.7,0.9
		C115.6,20.1,115.6,20.3,114.5,20.3z M122.7,16.7l-0.3-0.3c-0.5-0.4-1-0.6-1.7-0.6c-1.1,0-1.2,0.7-1.3,1.1c-0.1,0.4-0.2,1.3-0.4,2.4
		h-0.3c0-3.3-1.3-3.3-3.3-3.3H114c-1.6,0-2.9,0-3.3,2.1l-0.1,0.5l-0.4-0.6c-1.3-2.1-1.4-2.2-2.2-2.2c-0.5,0-0.9,0.2-1.1,0.6
		l-0.3,0.7v-3h0.2c0.1,0,0.4-0.1,0.6-0.2c0.2-0.1,0.5-0.1,0.6-0.2l0.2-0.1l0.1,0.2c0.3,1.3,0.5,1.9,1.4,1.9c0.2,0,0.5-0.1,0.7-0.1
		c0.4-0.2,0.8-0.5,1.1-0.9l0.1-0.1h6.3c0.5,0,0.6-0.2,0.8-0.5l0.2-0.3l0.2,0.3c0.2,0.3,0.3,0.8,1.2,0.8c0.2,0,0.4,0,1.1-0.1
		c0.3-0.1,0.8-0.1,1.5-0.2h0.2v2H122.7z"/>
	<path class="st0" d="M97.2,23.5c-0.1,0-0.2,0-0.3,0c-0.4,0-1,0.2-1.4,1.2c-1.4,4.2-2.2,6.5-4.9,11.6c-0.5,0.9-1,2-1,2.8
		c0,1.8,2,2.7,3.5,2.7c1,0,1.5-0.7,1.9-2c2.4-7,3.5-14.6,3.5-14.9C98.5,24.5,98.2,23.6,97.2,23.5z"/>
	<path class="st0" d="M180.8,39.2h-16v-5.3h6.4c0.2,0,0.8,0,1.2-0.4c0.2-0.3,0.3-0.7,0.3-1.3v-0.4L173,32c3.4,2.3,7.1,3.9,7.7,3.9
		c0.5,0,1.4-0.5,1.4-1.4c0-0.7-0.4-1-0.7-1.3c-1.5-1.2-5.3-4.3-7.1-8.6l-0.1-0.2h6.1c0.7,0,1.5-0.2,1.5-1.4c0-1.2-0.9-1.4-1.5-1.4
		h-6.3V8.4h4.7c0.7,0,1.5-0.2,1.5-1.4c0-0.9-0.5-1.4-1.5-1.4h-4.7V3.9c0-2-1.2-2.9-4-2.9c-3.4,0-3.9,1.5-3.9,2.9v1.8h-10.8V3.9
		c0-2-1.2-2.9-4-2.9c-3.4,0-3.9,1.5-3.9,2.9v1.8h-0.2h-4.9c-0.8,0-1,0.2-1,1.4c0,1.4,0.6,1.4,1.1,1.4h5v13.1h-6.9
		c-0.7,0-0.9,0.1-0.9,1.4c0,1.4,0.5,1.4,0.9,1.4h6.7l-0.1,0.2c-2,5-6.9,8.7-7.1,8.8c-0.7,0.5-1,0.8-1,1.5c0,0.8,0.9,0.9,1.6,0.9
		c0.6,0,4.2-1.5,7.7-3.8l0.3-0.2v0.4c0,0.6,0.1,1,0.3,1.3c0.3,0.3,0.8,0.3,1.1,0.3h6.6v5.3h-17c-0.7,0-1,0.2-1,1.4
		c0,1.4,0.5,1.4,0.9,1.4h41.1c0.6,0,1.5-0.2,1.5-1.4C182.2,39.3,181.4,39.2,180.8,39.2z M155.3,8.4h10.8v2.5h-10.8V8.4z M155.3,13.7
		h10.8v2.5h-10.8V13.7z M155.3,19h10.8v2.6h-10.8V19z M156.8,24.6c0,0.2,0,0.3,0,0.5v6H150l0.4-0.3c3.6-2.9,5.3-5.3,6-6.3l0.1-0.2
		h0.5L156.8,24.6z M164.7,24.3h0.4l0.1,0.1c1.1,1.5,2.8,3.7,6,6.3l0.4,0.3h-6.8v-6c0-0.2,0-0.4-0.1-0.5V24.3z"/>
	<path class="st0" d="M202,18.4c0.6,0,1.9-1.1,2.7-1.9l0.5-0.4v15.7c0,2.5,0,4.7,4,4.7h22.5c1,0,1.4-0.4,1.4-1.4v-0.2
		c0-0.5,0-0.9-0.2-1c-0.2-0.2-0.4-0.2-0.8-0.2h-7.4v-6.3h4.8c0.8,0,1.4-0.2,1.4-1.3c0-0.2,0-0.3,0-0.5c0-0.4,0-0.7-0.1-0.8
		c-0.1-0.1-0.3-0.2-0.7-0.2h-5.4v-5.7h4.8c0.8,0,1.4-0.2,1.4-1.3v-0.2c0-0.5,0-0.9-0.2-1c-0.2-0.2-0.4-0.2-0.8-0.2h-5.3v-5.7h6
		c0.8,0,1.4-0.2,1.4-1.4c0-1-0.4-1.4-1.4-1.4h-7.9l0.5-0.3c3.1-1.9,3.6-2.8,3.6-3.7c0-1.9-2.9-2.9-4.9-2.9h-0.4
		c-1.2,0-1.6,0-2.2,1.3c-0.6,1.6-2.4,5.3-2.6,5.5L217,8h-4.4l0.2-0.3c0.5-0.8,2.2-3,2.2-4c0-1.2-2.2-2.6-5-2.6c-2.1,0-2.1,0-2.6,1.9
		c-0.1,0.3-0.2,0.7-0.3,1.1c-1.7,5.7-5,10.1-6.1,11.9l-0.1,0.2c-0.2,0.4-0.5,0.6-0.5,1.1C200.6,17.8,201.2,18.4,202,18.4z
		 M213.1,11.9c0-0.9,0.2-1.2,1.2-1.2h2.9v5.6h-4.1V11.9z M213.1,19.1h4.1v5.7h-4.1V19.1z M213.1,27.6h4.1v6.3h-2.9
		c-0.9,0-1.2-0.2-1.2-1.2V27.6z"/>
	<path class="st0" d="M232.8,39.4H210c-2.7,0-7.2,0-7.2-6V22.6c0-3.1-2.2-3.1-4.3-3.1h-6c-0.4,0-0.7,0.1-0.8,0.2
		c-0.2,0.2-0.2,0.6-0.2,1.2V21c0,0.5,0,0.9,0.2,1.1c0.1,0.1,0.2,0.1,0.5,0.1l2.3,0.2c0.8,0,0.9,0.2,0.9,1v11.7l-0.1,0.1
		c-0.2,0.1-0.2,0.2-0.4,0.2c-0.8,0.5-1.7,1-3.2,1.5c-0.5,0.2-0.7,0.2-0.7,2.2c0,2.4,1.2,3.9,2.2,3.9c1.2,0,3.6-2.9,5-4.5l0.2-0.2
		l0.2,0.2c1.9,3.6,4.2,3.6,10.8,3.6h22.8c1,0,1.4-0.4,1.4-1.4v-0.1c0-0.5,0-0.9-0.1-1.1C233.4,39.5,233.4,39.4,232.8,39.4z"/>
	<path class="st0" d="M195,12.3v0.2c0.5,1.7,0.8,3.1,2.6,3.1c1.9,0,4.7-1.5,4.7-4c0-1.9-2.9-5-5.6-7.5c-2.8-2.7-3.6-2.8-4.1-2.8
		c0,0,0,0-0.1,0h-0.1c-0.7,0-0.9,0.5-0.9,1.2c0,0.5,0.1,0.7,0.5,1.5C193.7,7.6,194.6,10.8,195,12.3z"/>
	<path class="st0" d="M92.3,6.8c0.2,0.4,0.3,0.9,0.5,1.4c1.2,3,1.4,3.3,2.7,3.3c2,0,3.7-1.8,3.7-3.3c0-2.3-6.8-6.1-7.8-6.1
		c-0.9,0-1,0.2-1,0.9c0,0.4,0.2,0.8,0.3,0.9C91.7,5.2,91.9,5.9,92.3,6.8z"/>
	<path class="st0" d="M117.8,1.9h-6.1c-0.6,0-0.9,0.3-0.9,1c0,0.7,0.3,1,0.9,1h6.1c0.8,0,0.9-0.5,0.9-1
		C118.6,2.3,118.3,1.9,117.8,1.9z"/>
	<path class="st0" d="M110.8,10.5l0.2,0.2c0.2,0.2,0.4,0.2,0.7,0.2h6.1c0.6,0,0.9-0.3,0.9-1c0-0.7-0.3-1-0.9-1h-6.1
		c-0.3,0-0.5,0.1-0.6,0.2c-0.2,0.3-0.2,0.9-0.2,1.1V10.5z"/>
	<path class="st0" d="M127.8,18c0.5,1.5,0.6,1.9,0.8,3.4c0.2,1,0.5,1.4,1.4,1.4c1.1,0,2.2-0.9,2.2-2c0-0.7-1.2-2.9-2-4.1
		c-0.5-0.7-0.8-0.8-1.2-0.8c-0.7,0-1,0.4-1.2,0.7l-0.3,0.5L127.8,18z"/>
	<path class="st1" d="M241.3,8.1l0.2-0.9h6.4l-0.2,0.9h-2l-1.1,7h-2.3l1.1-7H241.3z"/>
	<path class="st1" d="M245.8,15.1l3.6-7.8h2.1l0.9,7.8H250l-0.2-1.7h-2.3l-0.8,1.7H245.8z M249.4,9.2l-1.5,3.4h1.9L249.4,9.2z"/>
	<path class="st1" d="M253.3,15.1l1.2-7.8h2.3l-1.2,7.8H253.3z"/>
	<path class="st1" d="M257.8,7.3h2.3l0.4,4.6l1.9-4.6h1.4l0.5,4.6l1.9-4.6h0.9l-3.3,7.8h-1.6l-0.5-4.3l-1.8,4.3h-1.5L257.8,7.3z"/>
	<path class="st1" d="M265.6,15.1l3.6-7.8h2.1l0.9,7.8h-2.4l-0.2-1.7h-2.3l-0.8,1.7H265.6z M269.2,9.2l-1.5,3.4h1.9L269.2,9.2z"/>
	<path class="st1" d="M273,15.1l1.2-7.8h1.5l2.7,5.3l0.9-5.3h0.8l-1.2,7.8h-1.8l-2.5-4.8l-0.8,4.8H273z"/>
	<path class="st1" d="M241.1,25.6l1.2-0.2c-0.2,0.5-0.3,0.8-0.3,1c0,0.4,0.2,0.7,0.4,0.9c0.2,0.2,0.6,0.3,1.1,0.3
		c0.5,0,0.8-0.1,1.1-0.3c0.3-0.2,0.5-0.5,0.5-0.9c0-0.2-0.1-0.4-0.2-0.5c-0.2-0.1-0.2-0.2-0.2-0.2c-0.1,0-0.2-0.1-0.2-0.1
		c-0.1-0.1-0.2-0.2-0.4-0.2c-0.1,0-0.2-0.1-0.5-0.2l-0.5-0.2c-0.1,0-0.2-0.1-0.2-0.1c-0.1,0-0.2-0.1-0.2-0.2c-0.7-0.5-1-1-1-1.7
		c0-0.9,0.3-1.5,0.9-2.1c0.6-0.5,1.4-0.9,2.3-0.9c0.7,0,1.2,0.2,1.7,0.5c0.5,0.3,0.7,0.7,0.7,1.2c0,0.2,0,0.2-0.1,0.4
		c0,0.2-0.1,0.2-0.1,0.3l-1.2,0.2c0.2-0.3,0.2-0.5,0.2-0.8c0-0.3-0.2-0.6-0.4-0.9c-0.2-0.2-0.6-0.3-1-0.3c-0.4,0-0.8,0.1-1,0.3
		c-0.3,0.2-0.4,0.5-0.4,0.8c0,0.2,0.1,0.4,0.3,0.5l0.2,0.2c0.2,0.1,0.3,0.2,0.5,0.2c0.2,0.1,0.3,0.2,0.5,0.2
		c0.3,0.2,0.5,0.2,0.7,0.3c0.2,0.1,0.3,0.2,0.5,0.2c0.3,0.2,0.5,0.5,0.7,0.7c0.2,0.3,0.2,0.6,0.2,0.9c0,0.9-0.3,1.5-1,2.2
		c-0.7,0.5-1.5,0.9-2.6,0.9c-0.8,0-1.4-0.2-1.9-0.5c-0.5-0.3-0.7-0.8-0.7-1.4C240.9,26.3,241,26,241.1,25.6z"/>
	<path class="st1" d="M248,21.2l0.2-0.9h6.4l-0.2,0.9h-2l-1.1,7h-2.3l1.1-7H248z"/>
	<path class="st1" d="M252.5,28.2l3.6-7.8h2.1l0.9,7.8h-2.4l-0.2-1.7h-2.3l-0.8,1.7H252.5z M256.1,22.3l-1.5,3.4h1.9L256.1,22.3z"/>
	<path class="st1" d="M259.5,21.2l0.2-0.9h6.4l-0.2,0.9h-2l-1.1,7h-2.3l1.1-7H259.5z"/>
	<path class="st1" d="M265.6,28.2l1.2-7.8h5.1l-0.2,0.9H269l-0.4,2.3h2.3l-0.2,0.8h-2.3l-0.5,3.1h3.3l-0.2,0.8H265.6z"/>
	<path class="st1" d="M272.1,28.2l1.2-7.8h3.6c0.7,0,1.3,0.2,1.7,0.5c0.4,0.3,0.6,0.7,0.6,1.2c0,0.5-0.2,0.9-0.5,1.2
		c-0.2,0.2-0.4,0.4-0.5,0.5c-0.2,0.1-0.5,0.2-0.9,0.3c0.3,0.1,0.5,0.2,0.7,0.2c0.3,0.2,0.5,0.3,0.7,0.6c0.2,0.3,0.2,0.6,0.2,1
		c0,0.5-0.2,1-0.6,1.5c-0.5,0.6-1.4,0.9-2.5,0.9h-3.8V28.2z M275,24.5l-0.5,3h0.7c0.6,0,1-0.2,1.2-0.6c0.2-0.4,0.3-0.9,0.3-1.3
		c0-0.8-0.3-1.1-1-1.1H275z M275.6,21.2l-0.5,2.6h0.7c0.8,0,1.2-0.6,1.2-1.9c0-0.3-0.1-0.5-0.2-0.6c-0.2-0.2-0.3-0.2-0.6-0.2
		L275.6,21.2L275.6,21.2z"/>
	<path class="st1" d="M287.3,20.4l-0.8,5.1c-0.1,0.5-0.2,1-0.3,1.2c-0.2,0.3-0.3,0.5-0.6,0.9c-0.6,0.5-1.4,0.8-2.4,0.8
		c-0.9,0-1.5-0.2-2-0.5c-0.5-0.3-0.7-0.8-0.7-1.4c0-0.3,0-0.6,0.1-1l0.8-5.1h2.3l-0.8,5.1c-0.1,0.5-0.1,0.8-0.1,0.9
		c0,0.3,0.1,0.6,0.3,0.8c0.2,0.2,0.5,0.3,0.9,0.3c0.5,0,1-0.2,1.3-0.6c0.1-0.2,0.2-0.3,0.2-0.5c0-0.2,0.2-0.5,0.2-0.9l0.8-5.1H287.3
		z"/>
	<path class="st1" d="M287.5,28.2l1.2-7.8h2.3l-1.2,7.8H287.5z"/>
	<path class="st1" d="M291.4,28.2l1.2-7.8h2.3l-1.1,7h3l-0.2,0.9H291.4z"/>
	<path class="st1" d="M297.6,28.2l1.2-7.8h3.3c0.9,0,1.7,0.2,2.2,0.8c0.5,0.5,0.8,1.3,0.8,2.2c0,1.4-0.4,2.6-1.2,3.4
		c-0.8,0.9-1.8,1.3-3.1,1.3L297.6,28.2L297.6,28.2z M301.1,21.1l-1,6.4h0.5c0.5,0,0.8-0.2,1.1-0.5c0.3-0.3,0.5-0.9,0.7-1.6
		c0.1-0.4,0.2-0.9,0.2-1.3c0.1-0.5,0.1-0.9,0.1-1.2c0-0.6-0.1-1.1-0.2-1.4S302,21,301.6,21L301.1,21.1L301.1,21.1z"/>
	<path class="st1" d="M305.6,28.2l1.2-7.8h2.3l-1.2,7.8H305.6z"/>
	<path class="st1" d="M309.5,28.2l1.2-7.8h1.5l2.7,5.3l0.9-5.3h0.8l-1.2,7.8h-1.8l-2.5-4.8l-0.8,4.8H309.5z"/>
	<path class="st1" d="M323.9,22.5l-1.1,0.5c0.1-0.2,0.1-0.4,0.1-0.5c0-0.2,0-0.3,0-0.5c0-0.7-0.3-1.1-1-1.1c-0.4,0-0.7,0.1-1,0.3
		c-0.3,0.2-0.5,0.5-0.7,0.9c-0.2,0.5-0.4,1.2-0.5,2.1c-0.2,0.9-0.2,1.6-0.2,2.2c0,0.9,0.3,1.2,0.9,1.2c0.3,0,0.5-0.2,0.8-0.4
		c0.1-0.1,0.2-0.2,0.2-0.3c0-0.1,0.1-0.2,0.1-0.5l0.2-1.5h-1.1l0.2-0.9h3.3l-0.7,4.2h-0.9l-0.2-0.6l-0.3,0.2
		c-0.5,0.4-1.1,0.5-1.9,0.5c-0.9,0-1.7-0.2-2.2-0.8c-0.5-0.5-0.8-1.2-0.8-2.2c0-1.5,0.5-2.7,1.3-3.6c0.9-1,1.9-1.5,3.3-1.5
		c0.7,0,1.2,0.2,1.5,0.5c0.4,0.3,0.5,0.7,0.5,1.2L323.9,22.5z"/>
	<path class="st1" d="M240.8,41.3l1.2-7.8h3.5c0.8,0,1.4,0.2,1.8,0.5c0.4,0.3,0.6,0.9,0.6,1.5c0,0.3-0.1,0.7-0.2,1
		c-0.2,0.3-0.3,0.6-0.6,0.9c-0.3,0.3-0.7,0.5-1.1,0.6c-0.5,0.2-0.9,0.2-1.6,0.2h-0.8l-0.5,3.2L240.8,41.3L240.8,41.3z M244.3,34.2
		l-0.5,3.2h0.5c1,0,1.5-0.7,1.5-2.2c0-0.4-0.1-0.6-0.2-0.8c-0.2-0.2-0.4-0.2-0.8-0.2H244.3z"/>
	<path class="st1" d="M247,41.3l3.6-7.8h2.1l0.9,7.8h-2.4l-0.2-1.7h-2.3l-0.8,1.7H247z M250.6,35.4l-1.5,3.4h1.9L250.6,35.4z"/>
	<path class="st1" d="M254.4,41.3l1.2-7.8h3.4c0.9,0,1.5,0.2,1.9,0.5c0.5,0.3,0.7,0.7,0.7,1.3c0,0.2-0.1,0.5-0.2,0.7
		c-0.1,0.2-0.2,0.5-0.5,0.7c-0.2,0.2-0.4,0.4-0.6,0.5c-0.2,0.1-0.5,0.2-0.9,0.3c0.3,0.1,0.5,0.2,0.7,0.2c0.2,0.1,0.3,0.2,0.4,0.4
		c0.2,0.2,0.2,0.4,0.2,0.8c0,0.2,0,0.2,0,0.3c0,0.2-0.1,0.5-0.1,0.6c-0.1,0.5-0.1,0.8-0.1,1.1c0,0.1,0,0.2,0,0.3s0.1,0.2,0.2,0.3
		h-2.4c-0.1-0.2-0.1-0.4-0.1-0.5c0-0.2,0-0.3,0.1-0.5c0-0.2,0.1-0.3,0.1-0.4l0.1-0.6c0.1-0.4,0.1-0.7,0.1-0.9c0-0.3-0.1-0.5-0.2-0.6
		c-0.2-0.1-0.4-0.2-0.7-0.2h-0.5l-0.6,3.8h-2.3V41.3z M257.9,34.2l-0.4,2.6h0.5c1,0,1.5-0.5,1.5-1.7c0-0.6-0.3-0.9-0.9-0.9H257.9z"
		/>
	<path class="st1" d="M262.6,34.3l0.2-0.9h6.4l-0.2,0.9h-2l-1.1,7h-2.3l1.1-7H262.6z"/>
	<path class="st1" d="M269.3,33.5h2.4l0.9,3.7l2-3.7h0.9l-2.7,5l-0.5,2.9h-2.3l0.5-2.9L269.3,33.5z"/>
	<path class="st2" d="M36.2,22.3c0-0.1,0-0.1,0-0.2c0-0.1,0-0.1,0-0.2C35.9,20.1,21.5,5.8,18.7,4.6c-0.2-0.1-0.4-0.2-0.5-0.2
		c-0.2,0-0.4,0-0.5,0.2C14.6,5.8,0.2,20.1,0,21.9C0,22,0,22,0,22.1c0,0.1,0,0.1,0,0.2c0.2,1.9,14.6,16.1,17.5,17.4
		c0.2,0.1,0.4,0.2,0.5,0.2c0.2,0,0.4,0,0.5-0.2C21.5,38.4,35.9,24.1,36.2,22.3z M19.7,36.5h-1.5h-1.5C14,25.3,3.7,23.7,3.6,23.7
		v-1.5v-1.5C3.7,20.6,14,19,16.6,7.8h1.5h1.5c2.5,11.1,12.8,12.7,12.9,12.7v1.5v1.5C32.5,23.7,22.2,25.3,19.7,36.5z"/>
	<path class="st2" d="M18.1,11.5c-2.3,4.7-5.8,7.7-8.7,9.5h8.7h8.7C23.9,19.2,20.5,16.2,18.1,11.5z"/>
	<path class="st2" d="M9.5,23.1c2.9,1.8,6.4,4.8,8.7,9.5c2.3-4.7,5.8-7.7,8.7-9.5h-8.7H9.5z"/>
</g>
</svg>
