<?xml version="1.0" encoding="utf-8"?>
<!-- Generator: Adobe Illustrator 21.0.2, SVG Export Plug-In . SVG Version: 6.00 Build 0)  -->
<svg version="1.1" id="圖層_1" xmlns="http://www.w3.org/2000/svg" xmlns:xlink="http://www.w3.org/1999/xlink" x="0px" y="0px"
	 viewBox="0 0 562 185" style="enable-background:new 0 0 562 185;" xml:space="preserve">
<style type="text/css">
	.st0{fill:#3F8673;}
	.st1{fill:#80A982;}
	.st2{fill:#21632D;}
	.st3{fill:#E25449;}
	.st4{fill:#E2544B;}
	.st5{fill:#3D8676;}
	.st6{fill:#1A0B08;}
	.st7{fill:#A63F24;}
</style>
<g>
	<g>
		<g>
			<path class="st0" d="M285.8,74.7c-0.6,0.7-1.4,0.9-2.3,0.9h-16.1c0,0.6-0.1,1.1-0.7,1.4v0h18.5L285.8,74.7L285.8,74.7z"/>
		</g>
		<g>
			<path class="st0" d="M267.4,61.2L267.4,61.2c0.8,0.6,1.7,2.1,1.9,2.6c0.5,1.1,0.6,1.2,1,1.1c0.9-0.2,1.2-0.9,1.1-1.6
				C271.1,61.9,269.1,61.3,267.4,61.2z"/>
		</g>
		<g>
			<path class="st0" d="M276.3,61.2L276.3,61.2c0.8,0.6,1.7,2.1,1.9,2.6c0.5,1.1,0.6,1.2,1,1.1c0.9-0.2,1.2-0.9,1.1-1.6
				C280,61.9,278,61.3,276.3,61.2z"/>
		</g>
		<g>
			<path class="st0" d="M271.1,76.2l-2.3,2.4c-0.8,0.7-1.2,0.9-1.6,1.1l0,0c1.9-0.1,3.3-0.3,4.4-1.2l0.1-0.1
				c0.7-0.5,1.4-0.5,2.1-0.3l0-0.1L271.1,76.2z"/>
		</g>
		<g>
			<path class="st0" d="M278.3,76.7L278.3,76.7c1.3,0.5,2.6,1.8,3,2.3c0.8,0.9,0.9,1,1.6,0.9c1.5-0.2,1.9-0.8,1.7-1.4
				C284.1,77.3,281,76.8,278.3,76.7z"/>
		</g>
		<g>
			<g>
				<g>
					<g>
						<path class="st0" d="M194.8,60.7c0.6,0,1-0.1,1.5-0.3h0V69c0,0.8,0,1.2,0.6,1.8v0h-4v0c0.6-0.5,0.6-1,0.6-1.8v-6.4
							c0-0.8,0-1.2-0.5-1.8v0H194.8z"/>
					</g>
					<g>
						<path class="st0" d="M202.3,60.7c0.6,0,1-0.1,1.5-0.3h0V69c0,0.8,0,1.2,0.6,1.8v0h-4v0c0.6-0.5,0.6-1,0.6-1.8v-6.4
							c0-0.8,0-1.2-0.5-1.8v0H202.3z"/>
					</g>
				</g>
				<g>
					<g>
						<path class="st0" d="M206.9,62.9c-0.2,0.1-0.4,0.1-0.7,0.1h-15.9v0c0.5,0.3,0.6,0.9,0.7,1.5h13.8c0.8,0,1.6-0.1,2.1,0.6h0
							L206.9,62.9L206.9,62.9z"/>
					</g>
				</g>
				<g>
					<path class="st0" d="M208.1,68.9c-0.6,0.7-1.4,0.9-2.3,0.9h-16.1c0,0.6-0.1,1.1-0.7,1.4v0h18.5L208.1,68.9L208.1,68.9z"/>
				</g>
				<g>
					<rect x="194.6" y="65.3" class="st0" width="8.2" height="1.5"/>
				</g>
				<g>
					<rect x="194.9" y="67.5" class="st0" width="8.2" height="1.5"/>
				</g>
				<g>
					<path class="st0" d="M204,70l-3.1,0.4c0,0,2.5,5.2,5.9,5.2c1,0,2-0.4,2.6-1C206.5,74.5,204,70,204,70z"/>
				</g>
				<g>
					<path class="st0" d="M197.3,70.6l-2.8-0.3l-4.5,4.4c-0.8,0.7-1.2,1.1-1.7,1.3v0c1.8,0,3.9-0.5,5.4-1.8l1.9-1.8
						c0.7-0.6,1.5-1.5,2.7-1.6l0,0L197.3,70.6z"/>
				</g>
				<g>
					<g>
						<path class="st0" d="M203.2,74.1c-0.2,0.1-0.4,0.1-0.7,0.1h-8.5v0c0.5,0.3,0.6,0.9,0.7,1.5h6.4c0.8,0,1.6-0.1,2.1,0.6h0
							L203.2,74.1L203.2,74.1z"/>
					</g>
				</g>
				<g>
					<path class="st0" d="M207.1,77.2c-0.6,0.7-1.4,0.9-2.3,0.9h-14.2c0,0.6-0.1,1.1-0.7,1.4v0h16.5L207.1,77.2L207.1,77.2z"/>
				</g>
				<g>
					<path class="st0" d="M198.5,72.2c0.6,0,1-0.1,1.5-0.3h0v5.5c0,0.8,0,1.2,0.6,1.8v0h-4v0c0.6-0.5,0.6-1,0.6-1.8v-3.4
						c0-0.8,0-1.2-0.5-1.8v0H198.5z"/>
				</g>
			</g>
			<g>
				<g>
					<path class="st0" d="M275.5,60.7c-0.5,0.2-0.9,0.3-1.5,0.3h-1.9v0c0.6,0.6,0.5,1,0.5,1.8v-0.2c0,1.1,0,1.9-0.4,2.9
						c-0.2,0.5-0.5,1.1-0.9,1.5c0.9,0,2-0.5,2.8-1c1.2-0.7,1.3-1.4,1.3-2.7L275.5,60.7L275.5,60.7z"/>
				</g>
				<g>
					<g>
						<path class="st0" d="M275.1,60.9c-0.2,0.1-0.4,0.1-0.7,0.1h-2.4H267v0c0.5,0.3,0.6,0.9,0.7,1.5h5.4c0.8,0,1.6-0.1,2.1,0.6h0
							L275.1,60.9L275.1,60.9z"/>
					</g>
				</g>
			</g>
			<g>
				<rect x="270.8" y="67.5" class="st0" width="10.9" height="1.5"/>
			</g>
			<g>
				<rect x="270.9" y="71.5" class="st0" width="10.7" height="1.5"/>
			</g>
			<g>
				<rect x="270.9" y="69.7" class="st0" width="10.7" height="1.2"/>
			</g>
			<g>
				<path class="st0" d="M283.4,73.4c-0.3,0.3-1.2,0.3-2.1,0.3h-11.5c0,0.6-0.2,0.8-0.7,1.1v0H283L283.4,73.4L283.4,73.4z"/>
			</g>
			<g>
				<rect x="274.9" y="68.1" class="st0" width="2.9" height="4.2"/>
			</g>
			<g>
				<g>
					<rect x="272.2" y="72.3" class="st0" width="2.9" height="4.2"/>
				</g>
				<g>
					<rect x="277.5" y="72.3" class="st0" width="2.9" height="4.2"/>
				</g>
			</g>
			<g>
				<path class="st0" d="M267.2,64.9l3.9-0.5c1-0.1,1.2-0.2,1.6-0.4l0,0c-0.7,1.3-1.6,2-2.8,2.4l-0.2,0c-1,0.3-1.5,0.6-1.9,1.3
					l-0.1,0L267.2,64.9z"/>
			</g>
			<g>
				<g>
					<path class="st0" d="M284.4,60.7c-0.5,0.2-0.9,0.3-1.5,0.3H281v0c0.6,0.6,0.5,1,0.5,1.8v-0.2c0,1.1,0,1.9-0.4,2.9
						c-0.2,0.5-0.5,1.1-0.9,1.5c0.9,0,2-0.5,2.8-1c1.2-0.7,1.3-1.4,1.3-2.7L284.4,60.7L284.4,60.7z"/>
				</g>
				<g>
					<g>
						<path class="st0" d="M284,60.9c-0.2,0.1-0.4,0.1-0.7,0.1H281h-5.1v0c0.5,0.3,0.6,0.9,0.7,1.5h5.4c0.8,0,1.6-0.1,2.1,0.6h0
							L284,60.9L284,60.9z"/>
					</g>
				</g>
			</g>
			<g>
				<path class="st0" d="M276.1,64.9l3.9-0.5c1-0.1,1.2-0.2,1.6-0.4l0,0c-0.7,1.3-1.6,2-2.8,2.4l-0.2,0c-1,0.3-1.5,0.6-1.9,1.3
					l-0.1,0L276.1,64.9z"/>
			</g>
			<g>
				<path class="st0" d="M272.2,71.2v-1.6h-2.9v3.6h0c0.5-0.2,0.9-0.3,1.5-0.3h1.8v0C272.2,72.4,272.2,72,272.2,71.2z"/>
			</g>
			<g>
				<path class="st0" d="M269.4,71.2v0.4C269.4,71.5,269.4,71.4,269.4,71.2z"/>
			</g>
			<g>
				<path class="st0" d="M283.2,71.2v-4h0c-0.5,0.2-0.9,0.3-1.5,0.3h-1.8v0c0.6,0.6,0.5,1,0.5,1.8v1.9c0,0.8,0,1.2-0.6,1.8v0h4v0
					C283.2,72.5,283.2,72,283.2,71.2z"/>
			</g>
			<g>
				<path class="st0" d="M272.2,71.2v-3.7h-1.5h-0.2h-1.7v0c0.6,0.6,0.5,1,0.5,1.8v0.6v1.3c0,0.2,0,0.3,0,0.4V73h2.7h0.7v0
					C272.2,72.5,272.2,72,272.2,71.2z"/>
			</g>
			<g>
				<g>
					<path class="st0" d="M252.1,62.8c0.6,0,1-0.1,1.5-0.3h0v9.8c0,0.8,0,1.2,0.6,1.8v0h-4v0c0.6-0.5,0.6-1,0.6-1.8v-7.7
						c0-0.8,0-1.2-0.5-1.8v0H252.1z"/>
				</g>
				<g>
					<rect x="248.2" y="62.8" class="st0" width="3.7" height="1.5"/>
				</g>
				<g>
					<rect x="248.3" y="66" class="st0" width="3.7" height="1.5"/>
				</g>
				<g>
					<polygon class="st0" points="251.8,74.1 250.4,74.1 248.1,74.1 248.1,72.6 251.8,72.6 					"/>
				</g>
				<g>
					<rect x="248.5" y="69.3" class="st0" width="3.7" height="1.5"/>
				</g>
				<g>
					<path class="st0" d="M244.6,60.3l-2.4,7.2c-0.8,2-1.4,2.9-1.6,3.2l0.1,0c1.7-0.5,3.4-1.6,4.3-3.9l1.7-4.2
						c0.4-0.8,1.1-1.1,2.1-1.2v-0.1L244.6,60.3z"/>
				</g>
				<g>
					<path class="st0" d="M250.9,74.7L250.9,74.7c0.8,0.8,1.4,2.6,1.6,3.3c0.3,1.3,0.4,1.4,0.9,1.4c1.1,0,1.5-0.8,1.5-1.5
						C254.9,76.2,252.8,75.2,250.9,74.7z"/>
				</g>
				<g>
					<path class="st0" d="M248.8,74.3l-1.6,3.3c-0.6,1-0.9,1.2-1.1,1.5l0,0c1.4-0.4,2.5-0.6,3.5-2.1l0.1-0.1
						c0.6-0.7,1.2-0.9,1.7-0.8l0,0L248.8,74.3z"/>
				</g>
				<g>
					<path class="st0" d="M257.3,75.9c-0.6-0.5-0.6-1-0.6-1.8V63h0c-0.5,0.2-0.9,0.3-1.5,0.3h-1.3v0c0.6,0.6,0.5,1,0.5,1.8v10.8
						L257.3,75.9L257.3,75.9z"/>
				</g>
				<g>
					<path class="st0" d="M260.4,60.9c-0.5,0.2-0.9,0.3-1.5,0.3H257v0c0.6,0.6,0.5,1,0.5,1.8v12.2c0,1.1,0,1.9-0.4,2.9
						c-0.2,0.5-0.5,1.1-0.9,1.5c0.9,0,2-0.5,2.8-1c1.2-0.7,1.3-1.4,1.3-2.7L260.4,60.9L260.4,60.9z"/>
				</g>
				<g>
					<path class="st0" d="M247.1,72.3v0.4C247.1,72.6,247.1,72.4,247.1,72.3z"/>
				</g>
				<g>
					<path class="st0" d="M250.5,74c-0.6-0.5-0.6-1-0.6-1.8v-9.5h-3.4v0c0.6,0.6,0.5,1,0.5,1.8v6v1.7c0,0.2,0,0.3,0,0.4v1.4
						L250.5,74L250.5,74z"/>
				</g>
				<g>
					<path class="st0" d="M249.9,72.3v-1.6h-2.9v3.6h0c0.5-0.2,0.9-0.3,1.5-0.3h1.8v0C249.9,73.5,249.9,73.1,249.9,72.3z"/>
				</g>
				<g>
					<path class="st0" d="M246.1,77.9c0-0.1,0-0.2,0-0.2v-0.1C246.1,77.7,246.1,77.8,246.1,77.9z"/>
				</g>
				<g>
					<path class="st0" d="M246.6,79.4c-0.5-0.5-0.5-0.9-0.5-1.5c0-0.1,0-0.2,0-0.3v-1.5v-0.3v-9.9h0c-0.5,0.2-0.9,0.3-1.5,0.3h-0.2
						l-1.1,2.2v7.8v1.5v0V78v1.4v0.3h0c0.5-0.2,0.9-0.3,1.5-0.3L246.6,79.4L246.6,79.4C246.7,79.5,246.7,79.4,246.6,79.4z"/>
				</g>
			</g>
			<g>
				<g>
					<path class="st0" d="M224.3,64.4l1.5,0V74c0,0.8,0,1.2,0.6,1.8v0h-4v0c0.6-0.5,0.6-1,0.6-1.8v-7.8c0-0.8,0.2-1.8,0.2-1.8H224.3
						z"/>
				</g>
				<g>
					<path class="st0" d="M233.4,66.1L233.4,66.1l0-2.2h0c-0.2,0.1-0.4,0.1-0.7,0.1h-8.5v1.5h7.1C232.1,65.4,233,65.3,233.4,66.1z"
						/>
				</g>
				<g>
					<path class="st0" d="M234.1,73.5L234.1,73.5c-0.7,0.7-1.5,0.9-2.3,0.9h-6.9v1.5h8.6L234.1,73.5z"/>
				</g>
				<g>
					<path class="st0" d="M232.9,67.1L232.9,67.1c-0.7,0.3-1.3,0.3-2.2,0.3h-5.6v1.5h7.3L232.9,67.1z"/>
				</g>
				<g>
					<path class="st0" d="M232.9,70.6L232.9,70.6c-0.7,0.3-1.3,0.3-2.2,0.3h-5.6v1.5h7.3L232.9,70.6z"/>
				</g>
				<g>
					<rect x="227.4" y="64.1" class="st0" width="2.9" height="11"/>
				</g>
				<g>
					<path class="st0" d="M223.7,60.3l-3.3,7.3c-0.5,0.9-0.8,1.1-1,1.4l0,0c1.7-0.5,3.3-1.4,4.4-3.4l1-2.1c0.6-1.2,1-1.7,2.1-1.6
						l0-0.1L223.7,60.3z"/>
				</g>
				<g>
					<path class="st0" d="M215.5,63.4c1-0.1,4.5-0.4,5,1.9c0.3,1.4-1.1,1.9-1.4,2c-0.3,0.1-0.4,0-0.7-0.6
						C218.1,65.9,217,64.4,215.5,63.4L215.5,63.4z"/>
				</g>
				<g>
					<path class="st0" d="M228.7,60.3l-0.6,2c-0.7,1.9-1.1,2.3-1.3,2.6l0,0c1.6-0.3,2.5-0.6,3.2-1.7l0.1-0.2c0.3-0.5,0.9-0.9,1.6-1
						l0,0L228.7,60.3z"/>
				</g>
				<g>
					<path class="st0" d="M226.5,77.2c-2.6,0-4.5-0.4-5.4-2.3l0-3.6c0-0.4,0.1-0.7,0.2-1c0-0.1,0.1-0.2,0.2-0.3l0.6-0.7h-0.8h-2.9
						h-2.8l-0.8,2.2c0.9-0.5,1.4-0.7,2.5-0.7L218,71l0.5,0.1v4.7l-3.8,1.3l1.7,3.3l0.1,0c0.1-0.8,0.2-1.3,1.8-2.1l0.2-0.1
						c0.7-0.4,1.3-0.8,1.8-1.6c2.1,2.7,4.4,3.3,7.2,3.3c0.6,0,4.1,0.1,5.5,0c0.2-2,2-2.7,2-2.7v-0.1
						C233.5,77.4,229.3,77.2,226.5,77.2z"/>
				</g>
			</g>
		</g>
	</g>
	<g>
		<g>
			<path class="st1" d="M232.7,21.7c-0.3-0.3-0.6-0.6-0.9-0.8c-0.1-0.1-0.2-0.1-0.2-0.2c-0.2-0.2-0.4-0.4-0.7-0.6
				c-0.1-0.1-0.2-0.2-0.3-0.3c-0.1-0.1-0.2-0.1-0.3-0.2c-0.6,0.7-1.1,1.3-1.6,1.8c-5,5-10.9,8.2-17.2,9.3c6.2,1.1,12.1,4.2,16.9,9
				l4.9-17.3c-0.2-0.2-0.3-0.3-0.5-0.5C232.9,21.8,232.8,21.8,232.7,21.7z"/>
		</g>
		<g>
			<path class="st2" d="M264.1,30.7c-6.3-1.1-12.2-4.3-17.2-9.3c-0.5-0.5-1.1-1.1-1.6-1.8c-0.1,0.1-0.2,0.1-0.3,0.2
				c-0.1,0.1-0.2,0.2-0.3,0.3c-0.2,0.2-0.4,0.4-0.7,0.6c-0.1,0.1-0.2,0.1-0.2,0.2c-0.3,0.3-0.6,0.5-0.9,0.8
				c-0.1,0.1-0.1,0.1-0.2,0.2c-0.2,0.2-0.3,0.3-0.5,0.5l4.9,17.3C252,34.9,258,31.8,264.1,30.7z"/>
		</g>
		<g>
			<path class="st3" d="M233.9,20.8l0.9,0.9c0,0,0,0,0,0l0.3,0.3l0,0c0.7,0.7,1.4,1.5,2,2.2c0.2,0.3,0.5,0.6,0.7,0.9
				c0.9-1.1,1.8-2.1,2.8-3.1l0,0l0.3-0.3c0,0,0,0,0,0l0.9-0.9l0,0c0,0,0,0,0,0c0.1-0.1,0.2-0.2,0.3-0.3c0.2-0.2,0.4-0.4,0.6-0.6
				c0.1-0.1,0.2-0.2,0.4-0.3c0.2-0.2,0.4-0.4,0.6-0.5c0.1-0.1,0.2-0.2,0.4-0.3c0.1-0.1,0.2-0.1,0.3-0.2c-0.1-0.2-0.3-0.4-0.4-0.6
				c-2.8-3.8-4.7-7.8-5.7-11.9c-0.1-0.6-0.3-1.2-0.4-1.8c-0.1,0.6-0.2,1.2-0.4,1.8c-1,4.1-2.9,8-5.7,11.9c-0.1,0.2-0.3,0.4-0.4,0.6
				c0.1,0.1,0.2,0.1,0.3,0.2c0.1,0.1,0.2,0.2,0.4,0.3c0.2,0.2,0.4,0.3,0.6,0.5c0.1,0.1,0.2,0.2,0.4,0.3c0.2,0.2,0.4,0.4,0.6,0.6
				C233.7,20.6,233.8,20.6,233.9,20.8C233.9,20.8,233.9,20.8,233.9,20.8L233.9,20.8z"/>
		</g>
		<g>
			<path class="st4" d="M232.9,19.9c-0.1-0.1-0.2-0.2-0.4-0.3C232.7,19.6,232.8,19.8,232.9,19.9z"/>
		</g>
		<g>
			<path class="st4" d="M232,19c-0.1-0.1-0.2-0.2-0.4-0.3C231.7,18.8,231.8,18.9,232,19z"/>
		</g>
		<g>
			<path class="st4" d="M235.1,22l-0.3-0.3C234.9,21.8,235,21.9,235.1,22L235.1,22z"/>
		</g>
		<g>
			<path class="st4" d="M233.9,20.7c-0.1-0.1-0.2-0.2-0.3-0.3C233.7,20.6,233.8,20.6,233.9,20.7z"/>
		</g>
		<g>
			<path class="st4" d="M244.1,18.7c-0.1,0.1-0.2,0.2-0.4,0.3C243.8,18.9,244,18.8,244.1,18.7z"/>
		</g>
		<g>
			<path class="st4" d="M242.1,20.5c-0.1,0.1-0.2,0.2-0.3,0.3C241.9,20.6,242,20.6,242.1,20.5z"/>
		</g>
		<g>
			<path class="st4" d="M243.1,19.5c-0.1,0.1-0.2,0.2-0.4,0.3C242.9,19.8,243,19.6,243.1,19.5z"/>
		</g>
		<g>
			<path class="st4" d="M240.9,21.7l-0.3,0.3l0,0C240.7,21.9,240.8,21.8,240.9,21.7L240.9,21.7C240.9,21.7,240.9,21.7,240.9,21.7z"
				/>
		</g>
		<g>
			<path class="st0" d="M241,23.6c0,0-0.1,0.1-0.1,0.1c-0.2,0.3-0.5,0.5-0.7,0.8c-0.1,0.1-0.2,0.2-0.2,0.3c-0.2,0.2-0.4,0.4-0.6,0.7
				c-0.1,0.1-0.2,0.2-0.2,0.3c-0.3,0.3-0.5,0.6-0.8,0.9l-0.6,0.7l-0.6-0.7c-0.3-0.3-0.5-0.6-0.8-0.9c-0.1-0.1-0.2-0.2-0.2-0.3
				c-0.2-0.2-0.4-0.5-0.6-0.7c-0.1-0.1-0.2-0.2-0.2-0.3c-0.2-0.3-0.5-0.5-0.7-0.8c0,0-0.1-0.1-0.1-0.1c0,0,0,0,0,0l-5,17.3
				c0.1,0.1,0.2,0.2,0.2,0.3l0.1,0.1c4.2,4.7,6.9,10.2,7.8,15.7c1-5.6,3.7-11,7.8-15.7l0.1-0.1c0.1-0.1,0.2-0.2,0.2-0.3L241,23.6
				C241.1,23.6,241.1,23.6,241,23.6z"/>
		</g>
		<g>
			<polygon class="st5" points="234.6,23.6 229.7,40.9 229.7,40.9 234.6,23.6 			"/>
		</g>
		<g>
			<polygon class="st5" points="246,40.9 246,40.9 241.1,23.6 241.1,23.6 			"/>
		</g>
		<g>
			<path class="st5" d="M241.1,23.6L241.1,23.6C241.1,23.6,241.1,23.6,241.1,23.6C241.1,23.6,241.1,23.6,241.1,23.6z"/>
		</g>
		<g>
			<path class="st5" d="M236.3,25.5c-0.2-0.2-0.4-0.5-0.6-0.7C235.9,25,236.1,25.3,236.3,25.5z"/>
		</g>
		<g>
			<path class="st5" d="M240,24.8c-0.2,0.2-0.4,0.4-0.6,0.7C239.6,25.3,239.8,25,240,24.8z"/>
		</g>
		<g>
			<path class="st5" d="M239.2,25.8c-0.3,0.3-0.5,0.6-0.8,0.9C238.7,26.4,238.9,26.1,239.2,25.8z"/>
		</g>
		<g>
			<path class="st5" d="M240.9,23.7c-0.2,0.3-0.5,0.5-0.7,0.8C240.5,24.3,240.7,24,240.9,23.7z"/>
		</g>
		<g>
			<path class="st5" d="M234.6,23.6C234.6,23.6,234.6,23.6,234.6,23.6C234.6,23.6,234.6,23.6,234.6,23.6L234.6,23.6z"/>
		</g>
		<g>
			<path class="st5" d="M237.3,26.7c-0.3-0.3-0.5-0.6-0.8-0.9C236.8,26.1,237,26.4,237.3,26.7z"/>
		</g>
		<g>
			<path class="st5" d="M235.4,24.5c-0.2-0.3-0.5-0.5-0.7-0.8C235,24,235.2,24.3,235.4,24.5z"/>
		</g>
		<g>
			<ellipse transform="matrix(0.1644 -0.9864 0.9864 0.1644 172.7536 251.1447)" class="st5" cx="234.6" cy="23.6" rx="0" ry="0"/>
		</g>
		<g>
			<ellipse transform="matrix(0.9864 -0.1644 0.1644 0.9864 -0.6012 39.952)" class="st5" cx="241.1" cy="23.6" rx="0" ry="0"/>
		</g>
	</g>
	<g>
		<g>
			<path class="st0" d="M194.1,89.8c0,0.5-0.1,1,0.4,1.3v0h-2.6v0c0.5-0.3,0.4-0.8,0.4-1.3v-3.6c0-0.5,0.1-1-0.4-1.3v0h2.8
				c0.5,0,0.9,0,1.3,0.2c0.6,0.3,0.9,0.8,0.9,1.5c0,0.7-0.5,1.2-1.1,1.5l1.1,1.9c0.3,0.4,0.5,0.8,0.9,1.1l-1.3,0.1
				c-0.6,0-0.9,0-1.3-0.6l-1.1-2.1V89.8z M194.1,85.8v2.2c0.6-0.1,1-0.6,1-1.2c0-0.3-0.1-0.6-0.4-0.8
				C194.5,85.8,194.3,85.8,194.1,85.8L194.1,85.8z"/>
		</g>
		<g>
			<path class="st0" d="M204.7,91.2l-0.4,0c-0.5,0-0.9-0.1-1.3-0.4c-0.4-0.4-0.4-0.9-0.4-1.4v-0.3l-0.3,0.1
				c-0.2,0.1-0.5,0.3-0.5,0.6c0,0.3,0.2,0.6,0.6,0.6c0.1,0,0.1,0,0.2,0l-0.4,0.8l-0.5,0c-0.3,0-0.7-0.1-1-0.2
				c-0.4-0.2-0.6-0.7-0.6-1.1c0-1.8,2.6-1.2,2.6-2c0-0.3-0.4-0.4-0.6-0.4c-0.4,0-0.9,0.1-1.2,0.3l0.4-1.1c0.4-0.1,0.8-0.1,1.2-0.1
				c0.4,0,1,0.1,1.3,0.4c0.5,0.4,0.5,0.9,0.5,1.5v0.8c0,0.6,0,1.2,0.8,1.2L204.7,91.2z"/>
		</g>
		<g>
			<path class="st0" d="M210.7,88.5c0-0.2,0-0.4-0.1-0.6c-0.1-0.2-0.3-0.3-0.5-0.3c-0.7,0-0.8,0.8-0.8,1.3c0,0.4,0.1,0.8,0.3,1.1
				c0.2,0.2,0.5,0.4,0.7,0.4h0.1l-0.4,0.8c-0.1,0.1-0.3,0.1-0.4,0.1c-1.2,0-2.1-1.1-2.1-2.2c0-1.2,0.8-2.4,2.1-2.4
				c0.4,0,0.7,0.1,1.1,0.3v-1c0-0.4,0-0.7-0.3-1v0h1.2c0.3,0,0.6,0,0.8-0.2h0v5.1c0,0.6,0,1,0.4,1.4v0h-2.1V88.5z"/>
		</g>
		<g>
			<path class="st0" d="M216.8,86.7c0.3,0,0.5,0,0.7-0.1h0v3.5c0,0.4,0,0.7,0.3,1v0h-2.3v0c0.4-0.3,0.3-0.6,0.3-1v-2.3
				c0-0.4,0-0.7-0.3-1v0H216.8z M215.7,85.7c0-0.5,0.4-0.9,0.9-0.9c0.5,0,0.9,0.4,0.9,0.9c0,0.5-0.4,0.9-0.9,0.9
				C216.1,86.6,215.7,86.1,215.7,85.7z"/>
		</g>
		<g>
			<path class="st0" d="M224.4,87.8L224.4,87.8c-0.3-0.2-0.6-0.3-1-0.3c-0.3,0-0.6,0.1-0.7,0.3c-0.2,0.3-0.2,0.6-0.2,0.9
				c0,0.4,0.1,0.9,0.4,1.2c0.2,0.2,0.6,0.3,0.9,0.3c0.4,0,0.9-0.2,1.3-0.4h0l-0.3,1c-0.5,0.2-1.1,0.4-1.6,0.4
				c-1.3,0-2.5-0.9-2.5-2.3c0-1.6,1.2-2.4,2.7-2.4c0.4,0,0.8,0.1,1.1,0.1V87.8z"/>
		</g>
		<g>
			<path class="st0" d="M232.1,91.2l-0.4,0c-0.5,0-0.9-0.1-1.3-0.4c-0.4-0.4-0.4-0.9-0.4-1.4v-0.3l-0.3,0.1
				c-0.2,0.1-0.5,0.3-0.5,0.6c0,0.3,0.2,0.6,0.6,0.6c0.1,0,0.1,0,0.2,0l-0.4,0.8l-0.5,0c-0.3,0-0.7-0.1-1-0.2
				c-0.4-0.2-0.6-0.7-0.6-1.1c0-1.8,2.6-1.2,2.6-2c0-0.3-0.4-0.4-0.6-0.4c-0.4,0-0.9,0.1-1.2,0.3l0.4-1.1c0.4-0.1,0.8-0.1,1.2-0.1
				c0.4,0,1,0.1,1.3,0.4c0.5,0.4,0.5,0.9,0.5,1.5v0.8c0,0.6,0,1.2,0.8,1.2L232.1,91.2z"/>
		</g>
		<g>
			<path class="st0" d="M235.9,84.8c0.3,0,0.6,0,0.9-0.2h0v5.4c0,0.4,0,0.7,0.3,1v0h-2.3v0c0.4-0.3,0.3-0.6,0.3-1v-4.2
				c0-0.5,0-0.7-0.3-1v0H235.9z"/>
		</g>
		<g>
			<path class="st0" d="M248.4,91.3c-0.3,0-0.7-0.2-1-0.4c-0.6-0.4-0.7-0.7-0.9-1.4l-1-3.6c-0.1-0.4-0.3-0.8-0.6-1v0h2.1v0l1.2,4.4
				h0l0.7-2.6c0-0.2,0.1-0.5,0.1-0.7c0-0.3-0.2-0.8-0.4-1v0h2v0c0,0,0,0.1,0,0.2c0,0.4,0.1,0.7,0.2,1l0.9,3.1h0l0.8-2.9
				c0.1-0.2,0.2-0.5,0.2-0.8c0-0.3-0.1-0.5-0.3-0.7v0h1.6v0l-2,6.4c-0.3-0.1-0.7-0.2-1-0.4c-0.5-0.3-0.7-0.6-0.8-1.1l-0.7-2.3
				L248.4,91.3z"/>
		</g>
		<g>
			<path class="st0" d="M257.8,86.7c0.3,0,0.5,0,0.7-0.1h0v3.5c0,0.4,0,0.7,0.3,1v0h-2.3v0c0.4-0.3,0.3-0.6,0.3-1v-2.3
				c0-0.4,0-0.7-0.3-1v0H257.8z M256.7,85.7c0-0.5,0.4-0.9,0.9-0.9c0.5,0,0.9,0.4,0.9,0.9c0,0.5-0.4,0.9-0.9,0.9
				C257.1,86.6,256.7,86.1,256.7,85.7z"/>
		</g>
		<g>
			<path class="st0" d="M263.4,87.1c0.3-0.4,0.7-0.5,1.2-0.5c0.5,0,1,0.1,1.3,0.5c0.4,0.4,0.3,0.8,0.3,1.3v1.6c0,0.5,0,0.7,0.3,1v0
				h-2.3v0c0.4-0.3,0.3-0.6,0.3-1v-1.6c0-0.2,0-0.4-0.1-0.6c-0.1-0.2-0.3-0.3-0.5-0.3c-0.2,0-0.3,0.1-0.4,0.2
				c-0.1,0.2-0.1,0.4-0.1,0.7v1.6c0,0.5,0,0.7,0.3,1v0h-2.3v0c0.4-0.3,0.3-0.6,0.3-1v-2.3c0-0.4,0-0.7-0.3-1v0h1.3
				c0.2,0,0.4,0,0.7-0.1h0V87.1z"/>
		</g>
		<g>
			<path class="st0" d="M273.8,87.6h-0.4c0.2,0.2,0.4,0.5,0.4,0.8c0,0.5-0.2,0.8-0.6,1.1c-0.4,0.3-1,0.4-1.4,0.4
				c-0.1,0-0.5,0-0.5,0.2c0,0.1,0.1,0.1,0.2,0.1l1-0.1c0.4,0,0.9,0.1,1.2,0.3c0.4,0.2,0.7,0.7,0.7,1.1c0,0.6-0.4,1.1-1,1.3
				c-0.5,0.2-1.2,0.3-1.8,0.3c-0.4,0-1,0-1.4-0.1c-0.4-0.1-0.9-0.4-0.9-0.9c0-0.5,0.5-0.8,1-0.8c0.2,0,0.5,0,0.7,0.2
				c-0.2,0-0.4,0.2-0.4,0.4c0,0.5,0.5,0.5,0.9,0.5c0.5,0,1.1-0.2,1-0.7c0-0.2-0.1-0.3-0.2-0.5c-0.2-0.2-0.4-0.2-0.7-0.2
				c-0.3,0-0.5,0-0.8,0c-0.2,0-0.4-0.1-0.5-0.3c-0.1-0.1-0.3-0.4-0.3-0.6c0-0.2,0.3-0.2,0.4-0.3l0.3-0.1c-0.7-0.2-1.1-0.7-1.1-1.5
				c0-1.1,1-1.7,2-1.7c0.2,0,0.5,0,0.7,0.1l2-0.1L273.8,87.6z M271.5,89.1c0.4,0,0.6-0.3,0.6-0.7c0-0.4-0.1-0.9-0.6-0.9
				c-0.4,0-0.6,0.4-0.6,0.7C271,88.6,271.1,89.1,271.5,89.1z"/>
		</g>
		<g>
			<path class="st0" d="M276.5,89.9c0.5,0.3,1.1,0.5,1.7,0.5c0.3,0,0.7-0.1,0.7-0.4c0-0.6-2.3-0.7-2.3-2c0-0.5,0.3-0.9,0.7-1.2
				c0.4-0.3,1-0.3,1.5-0.3c0.5,0,1,0.1,1.5,0.2v1c-0.4-0.2-0.8-0.4-1.2-0.4c-0.2,0-0.6,0-0.6,0.3c0,0.3,0.3,0.4,0.5,0.4
				c0.3,0.1,0.7,0.2,1,0.4c0.4,0.3,0.7,0.6,0.7,1.1c0,1.3-1.4,1.6-2.4,1.6c-0.5,0-1.1-0.1-1.6-0.2L276.5,89.9z"/>
		</g>
	</g>
</g>
<g>
	<g>
		<g>
			<path class="st1" d="M331.3,20.2c-0.3-0.3-0.6-0.6-0.9-0.8c-0.1-0.1-0.2-0.1-0.2-0.2c-0.2-0.2-0.4-0.4-0.7-0.6
				c-0.1-0.1-0.2-0.2-0.3-0.3c-0.1-0.1-0.2-0.1-0.3-0.2c-0.6,0.7-1.1,1.3-1.6,1.8c-5,5-10.9,8.2-17.2,9.3c6.2,1.1,12.1,4.2,16.9,9
				l4.9-17.3c-0.2-0.2-0.3-0.3-0.5-0.5C331.4,20.3,331.3,20.3,331.3,20.2z"/>
		</g>
		<g>
			<path class="st2" d="M362.7,29.2c-6.3-1.1-12.2-4.3-17.2-9.3c-0.5-0.5-1.1-1.1-1.6-1.8c-0.1,0.1-0.2,0.1-0.3,0.2
				c-0.1,0.1-0.2,0.2-0.3,0.3c-0.2,0.2-0.4,0.4-0.7,0.6c-0.1,0.1-0.2,0.1-0.2,0.2c-0.3,0.3-0.6,0.5-0.9,0.8
				c-0.1,0.1-0.1,0.1-0.2,0.2c-0.2,0.2-0.3,0.3-0.5,0.5l4.9,17.3C350.6,33.4,356.5,30.3,362.7,29.2z"/>
		</g>
		<g>
			<path class="st3" d="M332.4,19.3l0.9,0.9c0,0,0,0,0,0l0.3,0.3l0,0c0.7,0.7,1.4,1.5,2,2.2c0.2,0.3,0.5,0.6,0.7,0.9
				c0.9-1.1,1.8-2.1,2.8-3.1l0,0l0.3-0.3c0,0,0,0,0,0l0.9-0.9l0,0c0,0,0,0,0,0c0.1-0.1,0.2-0.2,0.3-0.3c0.2-0.2,0.4-0.4,0.6-0.6
				c0.1-0.1,0.2-0.2,0.4-0.3c0.2-0.2,0.4-0.4,0.6-0.5c0.1-0.1,0.2-0.2,0.4-0.3c0.1-0.1,0.2-0.1,0.3-0.2c-0.1-0.2-0.3-0.4-0.4-0.6
				c-2.8-3.8-4.7-7.8-5.7-11.9c-0.1-0.6-0.3-1.2-0.4-1.8c-0.1,0.6-0.2,1.2-0.4,1.8c-1,4.1-2.9,8-5.7,11.9c-0.1,0.2-0.3,0.4-0.4,0.6
				c0.1,0.1,0.2,0.1,0.3,0.2c0.1,0.1,0.2,0.2,0.4,0.3c0.2,0.2,0.4,0.3,0.6,0.5c0.1,0.1,0.2,0.2,0.4,0.3c0.2,0.2,0.4,0.4,0.6,0.6
				C332.2,19.1,332.3,19.2,332.4,19.3C332.4,19.3,332.4,19.3,332.4,19.3L332.4,19.3z"/>
		</g>
		<g>
			<path class="st4" d="M331.5,18.4c-0.1-0.1-0.2-0.2-0.4-0.3C331.2,18.2,331.3,18.3,331.5,18.4z"/>
		</g>
		<g>
			<path class="st4" d="M330.5,17.5c-0.1-0.1-0.2-0.2-0.4-0.3C330.3,17.3,330.4,17.4,330.5,17.5z"/>
		</g>
		<g>
			<path class="st4" d="M333.6,20.5l-0.3-0.3C333.4,20.3,333.5,20.4,333.6,20.5L333.6,20.5z"/>
		</g>
		<g>
			<path class="st4" d="M332.4,19.3c-0.1-0.1-0.2-0.2-0.3-0.3C332.2,19.1,332.3,19.2,332.4,19.3z"/>
		</g>
		<g>
			<path class="st4" d="M342.6,17.2c-0.1,0.1-0.2,0.2-0.4,0.3C342.4,17.4,342.5,17.3,342.6,17.2z"/>
		</g>
		<g>
			<path class="st4" d="M340.7,19c-0.1,0.1-0.2,0.2-0.3,0.3C340.5,19.2,340.6,19.1,340.7,19z"/>
		</g>
		<g>
			<path class="st4" d="M341.7,18c-0.1,0.1-0.2,0.2-0.4,0.3C341.4,18.3,341.5,18.2,341.7,18z"/>
		</g>
		<g>
			<path class="st4" d="M339.4,20.2l-0.3,0.3l0,0C339.2,20.4,339.3,20.3,339.4,20.2L339.4,20.2C339.4,20.2,339.4,20.2,339.4,20.2z"
				/>
		</g>
		<g>
			<path class="st0" d="M339.6,22.1c0,0-0.1,0.1-0.1,0.1c-0.2,0.3-0.5,0.5-0.7,0.8c-0.1,0.1-0.2,0.2-0.2,0.3
				c-0.2,0.2-0.4,0.4-0.6,0.7c-0.1,0.1-0.2,0.2-0.2,0.3c-0.3,0.3-0.5,0.6-0.8,0.9l-0.6,0.7l-0.6-0.7c-0.3-0.3-0.5-0.6-0.8-0.9
				c-0.1-0.1-0.2-0.2-0.2-0.3c-0.2-0.2-0.4-0.5-0.6-0.7c-0.1-0.1-0.2-0.2-0.2-0.3c-0.2-0.3-0.5-0.5-0.7-0.8c0,0-0.1-0.1-0.1-0.1
				c0,0,0,0,0,0l-5,17.3c0.1,0.1,0.2,0.2,0.2,0.3l0.1,0.1c4.2,4.7,6.9,10.2,7.8,15.7c1-5.6,3.7-11,7.8-15.7l0.1-0.1
				c0.1-0.1,0.2-0.2,0.2-0.3L339.6,22.1C339.6,22.1,339.6,22.1,339.6,22.1z"/>
		</g>
		<g>
			<polygon class="st5" points="333.2,22.1 328.2,39.4 328.2,39.4 333.2,22.1 			"/>
		</g>
		<g>
			<polygon class="st5" points="344.6,39.4 344.6,39.4 339.6,22.1 339.6,22.1 			"/>
		</g>
		<g>
			<path class="st5" d="M339.6,22.1L339.6,22.1C339.6,22.1,339.6,22.1,339.6,22.1C339.6,22.1,339.6,22.1,339.6,22.1z"/>
		</g>
		<g>
			<path class="st5" d="M334.8,24c-0.2-0.2-0.4-0.5-0.6-0.7C334.4,23.5,334.6,23.8,334.8,24z"/>
		</g>
		<g>
			<path class="st5" d="M338.5,23.3c-0.2,0.2-0.4,0.4-0.6,0.7C338.1,23.8,338.3,23.5,338.5,23.3z"/>
		</g>
		<g>
			<path class="st5" d="M337.7,24.3c-0.3,0.3-0.5,0.6-0.8,0.9C337.2,24.9,337.5,24.6,337.7,24.3z"/>
		</g>
		<g>
			<path class="st5" d="M339.5,22.3c-0.2,0.3-0.5,0.5-0.7,0.8C339,22.8,339.2,22.5,339.5,22.3z"/>
		</g>
		<g>
			<path class="st5" d="M333.2,22.1C333.2,22.1,333.2,22.1,333.2,22.1C333.2,22.1,333.2,22.1,333.2,22.1L333.2,22.1z"/>
		</g>
		<g>
			<path class="st5" d="M335.8,25.2c-0.3-0.3-0.5-0.6-0.8-0.9C335.3,24.6,335.6,24.9,335.8,25.2z"/>
		</g>
		<g>
			<path class="st5" d="M334,23c-0.2-0.3-0.5-0.5-0.7-0.8C333.5,22.5,333.8,22.8,334,23z"/>
		</g>
		<g>
			<ellipse transform="matrix(0.1644 -0.9864 0.9864 0.1644 256.5686 347.1029)" class="st5" cx="333.2" cy="22.1" rx="0" ry="0"/>
		</g>
		<g>
			<ellipse transform="matrix(0.9487 -0.3162 0.3162 0.9487 10.4337 108.529)" class="st5" cx="339.6" cy="22.1" rx="0" ry="0"/>
		</g>
	</g>
	<g>
		<g>
			<path class="st0" d="M308.7,70.2v-5.1h-2.5V64h2.5v-1.4h2.7V64h5.3v-1.4h2.7V64h2.8v1.2h-2.8v5.1h3.1v1.2H318
				c1.5,1.3,3,1.7,4.9,2l-0.1,0.2c-1.3,0.1-1.1,0.9-0.7,1.7l-0.1,0.1c-1-0.2-1.7-0.5-2.7-0.9v0.9h-3.7v2.1h5.6v1.2h-14v-1.2h5.7
				v-2.1h-4.1v-1.2h4.1v-1.7h2.7v1.7h3.3c-1.2-0.8-1.7-1.5-2.1-2.8h-4.5c-1.9,2.3-3.5,2.8-6.2,3.9l-0.2-0.1c1.4-1.2,2.4-2.1,3.3-3.7
				h-3.3v-1.2H308.7z M316.7,66v-0.9h-5.3V66H316.7z M316.7,67.2h-5.3v0.9h5.3V67.2z M316.7,70.2v-1h-5.3v1H316.7z"/>
		</g>
		<g>
			<path class="st0" d="M329.7,75.5v-6.6h-2.2v-1.2h2.2l0.7-0.9l2.1,0.7c1-1.2,1.7-2.8,1.9-4.3l0.1-0.7l3.3,0.1
				c-0.3,0.5-0.5,1.1-0.8,1.6c-0.3,0.5-0.7,0.9-1,1.4h7.2v1.2h-2.6v1.6h2.1v1.2h-2.1v1.6h2.1v1.2h-2.1v2h2.7v1.2h-6.8v0.7h-2.6v-8.8
				c-0.5,0.3-1,0.6-1.6,0.9v7.2c0.2,0.2,0.5,0.5,0.8,0.7c1.2,0.8,3.7,0.8,5.1,0.8c0.7,0,1.3,0,2,0c1.4,0,2.8-0.1,4.2-0.2l0,0.2
				c-0.6,0.2-1.4,0.6-1.4,1.3c0,0.2,0.1,0.3,0.2,0.4l-0.1,0.2c-1.6,0-3.2,0-4.7,0c-0.9,0-1.8,0-2.7-0.1c-0.5-0.1-1.1-0.2-1.6-0.4
				c-0.5-0.2-1-0.6-1.4-1l-1-0.9c-0.2-0.2-0.4-0.4-0.7-0.4c-0.7,0-1.4,1.9-1.7,2.3L329,79l-1.7-1.9C328.1,76.5,328.9,76,329.7,75.5z
				 M328.2,62.4c1.2,0.2,4.1,0.8,4.1,2.4c0,0.7-0.8,1.1-1.4,1.1c-0.3,0-0.8,0-1-0.3c-0.2-0.3-0.3-0.6-0.4-0.9
				c-0.2-0.5-0.6-1.4-1-1.7l-0.5-0.4L328.2,62.4z M337.9,68.4v-1.6h-1.4v1.6H337.9z M337.9,71.2v-1.6h-1.4v1.6H337.9z M337.9,74.4
				v-2h-1.4v2H337.9z M338,62.6c1,0.1,3.4,0.4,3.4,1.8c0,0.6-0.7,1-1.2,1c-1.1,0-1.3-0.7-1.5-1.5c-0.1-0.2-0.2-0.6-0.3-0.7l-0.4-0.4
				L338,62.6z"/>
		</g>
		<g>
			<path class="st0" d="M353.2,64.8c-0.1-0.2-0.3-0.5-0.4-0.7c-0.2-0.5-0.6-0.8-1.1-1.1l0.1-0.1c0.6,0,2.6,0.1,3.1,0.6
				c0.2,0.2,0.4,0.5,0.4,0.7c0,0.3-0.1,0.7-0.4,0.8l-0.3,0.1h1.4v-2.6h2.7v2.6h0.3c0.7-0.7,1.3-1.5,1.8-2.4l2.8,0.5
				c-1,0.7-2.1,1.3-3.2,1.9h3.1l0.7-0.7l2.5,0.9l-1.5,0.6c-0.1,0.1-0.6,0.4-0.8,0.5c-0.4,0.3-0.9,0.4-1.4,0.6v2.1l2.2,0.4l-0.8,0.8
				v3.3h-2.4v-0.4h-3.4V74h5.7v1h-5.7v0.6h6.7v1h-10.7c0.7,0.4,2.1,0.7,2,1.6c0,0.9-0.6,1.2-1.1,1.2c-0.5,0-1.1-0.4-1.1-0.9
				c0-0.2,0-0.5,0-0.7c0-0.4-0.1-0.8-0.3-1.2h-1.6c0,0.3,0.3,0.7,0.4,1c0.1,0.8-0.6,1.7-1.6,1.7c-0.5,0-1-0.2-1.2-0.6
				c-0.2-0.4,0.1-0.8,0.4-0.9c0.3-0.1,0.5-0.3,0.8-0.4c0.3-0.2,0.5-0.4,0.7-0.7h-2.3v-1h6.6v-0.6h-5.7v-1h5.7v-0.7h-3.1v0.2h-2.4v-4
				h2.4v0.4h8.8l0.4-0.4h-1.7v-0.3h-5.9v0.3h-2.5v-3h2.5v0.3h5.8l0.7-0.6l1.4,0.3l0.5-0.4h-11.8c0.2,1.3,0.1,2.1-1.2,2.1
				c-0.5,0-0.9-0.2-1.1-0.7c-0.2-0.4-0.1-0.9,0.2-1.1c0.3-0.2,0.5-0.5,0.7-0.7c0.4-0.5,0.4-0.7,0.6-1.3h0.2c0.1,0.3,0.3,0.5,0.4,0.8
				h2.4C353.4,65,353.3,64.9,353.2,64.8z M354.1,72.4c-0.5-0.4-0.2-0.8-0.4-1.2l-0.2-0.3h-0.3v1.5H354.1z M356.3,72.4v-1.5h-1.9
				c0.4,0.2,1.3,0.4,1.3,1c0,0.2-0.1,0.4-0.3,0.5H356.3z M360.7,68.4v-0.8h-5.9v0.8H360.7z M358,76.6c1.3,0.3,3,0.5,3.1,1.3
				c0.1,0.6-0.7,1.4-1.3,1.4c-1.6,0-1-1.6-1.7-2.3l-0.3-0.3L358,76.6z M358.7,70.8v1.5h0.3c0.4-0.5,0.8-1,1.2-1.5H358.7z
				 M362.1,72.4v-1.5h-1l1,0.4c-0.3,0.2-0.7,0.4-1,0.6c-0.3,0.2-0.7,0.4-1,0.5H362.1z M361.9,76.6c0.9,0.2,1.8,0.3,2.7,0.6
				c0.5,0.2,0.9,0.5,0.9,1.1c0,0.6-0.6,1.2-1.2,1.1c-0.9-0.1-1-0.5-1.3-1.3c-0.2-0.5-0.7-1-1.2-1.3L361.9,76.6z"/>
		</g>
	</g>
	<g>
		<g>
			<path class="st0" d="M310.6,86.5c0,0.3,0,0.5,0.2,0.7v0h-1.4v0c0.3-0.2,0.2-0.5,0.2-0.7v-2.1c-0.1,0-0.2,0-0.3,0
				c-0.2,0-0.4,0.1-0.6,0.2l0,0l0.2-0.8l0.1,0h2.4l-0.2,0.8c-0.1-0.2-0.2-0.2-0.4-0.2c-0.1,0-0.2,0-0.3,0V86.5z"/>
		</g>
		<g>
			<path class="st0" d="M314,87.3l-0.2,0c-0.3,0-0.5-0.1-0.7-0.2c-0.2-0.2-0.2-0.5-0.2-0.8v-0.2l-0.2,0.1c-0.1,0.1-0.3,0.1-0.3,0.3
				c0,0.2,0.1,0.3,0.3,0.3c0,0,0.1,0,0.1,0l-0.2,0.4l-0.3,0c-0.2,0-0.4,0-0.6-0.1c-0.2-0.1-0.3-0.4-0.3-0.6c0-1,1.4-0.6,1.4-1.1
				c0-0.2-0.2-0.2-0.3-0.2c-0.2,0-0.5,0.1-0.6,0.2l0.2-0.6c0.2-0.1,0.4-0.1,0.6-0.1c0.2,0,0.5,0,0.7,0.2c0.3,0.2,0.3,0.5,0.3,0.8
				v0.4c0,0.3,0,0.6,0.4,0.6L314,87.3z"/>
		</g>
		<g>
			<path class="st0" d="M315.1,84.9c0.1,0,0.3,0,0.4-0.1h0v1.9c0,0.2,0,0.4,0.2,0.6v0h-1.3v0c0.2-0.2,0.2-0.3,0.2-0.6v-1.2
				c0-0.2,0-0.4-0.2-0.6v0H315.1z M314.5,84.3c0-0.3,0.2-0.5,0.5-0.5c0.3,0,0.5,0.2,0.5,0.5c0,0.3-0.2,0.5-0.5,0.5
				C314.7,84.8,314.5,84.6,314.5,84.3z"/>
		</g>
		<g>
			<path class="st0" d="M317.8,85.4c0-0.2-0.1-0.4-0.3-0.5v0h1l0.5,1.3l0.3-0.7c0-0.1,0.1-0.2,0.1-0.3c0-0.1-0.1-0.3-0.2-0.3v0h0.8
				l-0.9,2.4c-0.2,0-0.4-0.1-0.6-0.3c-0.2-0.1-0.3-0.6-0.4-0.8l-0.1-0.3l-0.5,1.3c-0.2-0.1-0.3-0.1-0.5-0.2
				c-0.2-0.1-0.2-0.1-0.3-0.3l-0.5-1.2c-0.1-0.2-0.2-0.5-0.3-0.7v0h0.6c0.2,0,0.3,0,0.4-0.1h0l0.5,1.4L317.8,85.4z"/>
		</g>
		<g>
			<path class="st0" d="M322.8,87.3l-0.2,0c-0.3,0-0.5-0.1-0.7-0.2c-0.2-0.2-0.2-0.5-0.2-0.8v-0.2l-0.2,0.1
				c-0.1,0.1-0.3,0.1-0.3,0.3c0,0.2,0.1,0.3,0.3,0.3c0,0,0.1,0,0.1,0l-0.2,0.4l-0.3,0c-0.2,0-0.4,0-0.6-0.1
				c-0.2-0.1-0.3-0.4-0.3-0.6c0-1,1.4-0.6,1.4-1.1c0-0.2-0.2-0.2-0.3-0.2c-0.2,0-0.5,0.1-0.6,0.2l0.2-0.6c0.2-0.1,0.4-0.1,0.6-0.1
				c0.2,0,0.5,0,0.7,0.2c0.3,0.2,0.3,0.5,0.3,0.8v0.4c0,0.3,0,0.6,0.4,0.6L322.8,87.3z"/>
		</g>
		<g>
			<path class="st0" d="M324.3,85.1c0.1-0.2,0.4-0.3,0.6-0.3c0.3,0,0.5,0.1,0.7,0.3c0.2,0.2,0.2,0.5,0.2,0.7v0.8
				c0,0.2,0,0.4,0.2,0.6v0h-1.3v0c0.2-0.2,0.2-0.3,0.2-0.6v-0.9c0-0.1,0-0.2-0.1-0.3c-0.1-0.1-0.2-0.1-0.3-0.1c-0.1,0-0.2,0-0.2,0.1
				c-0.1,0.1-0.1,0.2-0.1,0.4v0.9c0,0.2,0,0.4,0.2,0.6v0h-1.3v0c0.2-0.2,0.2-0.3,0.2-0.6v-1.2c0-0.2,0-0.4-0.2-0.6v0h0.7
				c0.1,0,0.2,0,0.4-0.1h0V85.1z"/>
		</g>
		<g>
			<path class="st0" d="M329.4,86.5c0,0.3,0,0.6,0.2,0.7v0h-1.4v0c0.3-0.2,0.2-0.5,0.2-0.7v-1.9c0-0.3,0-0.6-0.2-0.7v0h1.5
				c0.3,0,0.5,0,0.7,0.1c0.3,0.2,0.5,0.4,0.5,0.8c0,0.4-0.3,0.7-0.6,0.8l0.6,1c0.1,0.2,0.3,0.4,0.5,0.6l-0.7,0c-0.3,0-0.5,0-0.7-0.3
				l-0.6-1.1V86.5z M329.4,84.4v1.2c0.3-0.1,0.6-0.3,0.6-0.7c0-0.2-0.1-0.3-0.2-0.4C329.6,84.4,329.5,84.4,329.4,84.4L329.4,84.4z"
				/>
		</g>
		<g>
			<path class="st0" d="M334.1,87.3l-0.2,0c-0.3,0-0.5-0.1-0.7-0.2c-0.2-0.2-0.2-0.5-0.2-0.8v-0.2l-0.2,0.1
				c-0.1,0.1-0.3,0.1-0.3,0.3c0,0.2,0.1,0.3,0.3,0.3c0,0,0.1,0,0.1,0l-0.2,0.4l-0.3,0c-0.2,0-0.4,0-0.6-0.1
				c-0.2-0.1-0.3-0.4-0.3-0.6c0-1,1.4-0.6,1.4-1.1c0-0.2-0.2-0.2-0.3-0.2c-0.2,0-0.5,0.1-0.6,0.2l0.2-0.6c0.2-0.1,0.4-0.1,0.6-0.1
				c0.2,0,0.5,0,0.7,0.2c0.3,0.2,0.3,0.5,0.3,0.8v0.4c0,0.3,0,0.6,0.4,0.6L334.1,87.3z"/>
		</g>
		<g>
			<path class="st0" d="M336.3,85.8c0-0.1,0-0.2-0.1-0.3c-0.1-0.1-0.2-0.1-0.3-0.1c-0.4,0-0.4,0.4-0.4,0.7c0,0.2,0,0.4,0.2,0.6
				c0.1,0.1,0.2,0.2,0.4,0.2h0.1l-0.2,0.4c-0.1,0-0.1,0-0.2,0c-0.7,0-1.1-0.6-1.1-1.2c0-0.7,0.4-1.3,1.1-1.3c0.2,0,0.4,0.1,0.6,0.2
				v-0.6c0-0.2,0-0.4-0.2-0.6v0h0.6c0.2,0,0.3,0,0.4-0.1h0v2.7c0,0.3,0,0.5,0.2,0.7v0h-1.1V85.8z"/>
		</g>
		<g>
			<path class="st0" d="M338.5,84.9c0.1,0,0.3,0,0.4-0.1h0v1.9c0,0.2,0,0.4,0.2,0.6v0h-1.3v0c0.2-0.2,0.2-0.3,0.2-0.6v-1.2
				c0-0.2,0-0.4-0.2-0.6v0H338.5z M337.9,84.3c0-0.3,0.2-0.5,0.5-0.5c0.3,0,0.5,0.2,0.5,0.5c0,0.3-0.2,0.5-0.5,0.5
				C338.1,84.8,337.9,84.6,337.9,84.3z"/>
		</g>
		<g>
			<path class="st0" d="M341.6,85.5L341.6,85.5c-0.2-0.1-0.3-0.2-0.5-0.2c-0.1,0-0.3,0.1-0.4,0.2c-0.1,0.1-0.1,0.3-0.1,0.5
				c0,0.2,0.1,0.5,0.2,0.6c0.1,0.1,0.3,0.2,0.5,0.2c0.2,0,0.5-0.1,0.7-0.2h0l-0.2,0.6c-0.3,0.1-0.6,0.2-0.9,0.2
				c-0.7,0-1.3-0.5-1.3-1.2c0-0.8,0.7-1.3,1.5-1.3c0.2,0,0.4,0,0.6,0.1V85.5z"/>
		</g>
		<g>
			<path class="st0" d="M344.7,87.3l-0.2,0c-0.3,0-0.5-0.1-0.7-0.2c-0.2-0.2-0.2-0.5-0.2-0.8v-0.2l-0.2,0.1
				c-0.1,0.1-0.3,0.1-0.3,0.3c0,0.2,0.1,0.3,0.3,0.3c0,0,0.1,0,0.1,0l-0.2,0.4l-0.3,0c-0.2,0-0.4,0-0.6-0.1
				c-0.2-0.1-0.3-0.4-0.3-0.6c0-1,1.4-0.6,1.4-1.1c0-0.2-0.2-0.2-0.3-0.2c-0.2,0-0.5,0.1-0.6,0.2l0.2-0.6c0.2-0.1,0.4-0.1,0.6-0.1
				c0.2,0,0.5,0,0.7,0.2c0.3,0.2,0.3,0.5,0.3,0.8v0.4c0,0.3,0,0.6,0.4,0.6L344.7,87.3z"/>
		</g>
		<g>
			<path class="st0" d="M345.7,83.9c0.2,0,0.3,0,0.5-0.1h0v2.9c0,0.2,0,0.4,0.2,0.6v0h-1.2v0c0.2-0.2,0.2-0.3,0.2-0.6v-2.2
				c0-0.3,0-0.4-0.2-0.6v0H345.7z"/>
		</g>
		<g>
			<path class="st0" d="M350.4,87.3c-0.2,0-0.4-0.1-0.5-0.2c-0.3-0.2-0.4-0.4-0.5-0.7l-0.6-1.9c-0.1-0.2-0.1-0.4-0.3-0.6v0h1.1v0
				l0.6,2.3h0l0.4-1.4c0-0.1,0.1-0.3,0.1-0.4c0-0.2-0.1-0.4-0.2-0.5v0h1.1v0c0,0,0,0.1,0,0.1c0,0.2,0.1,0.4,0.1,0.6l0.5,1.7h0
				l0.4-1.5c0-0.1,0.1-0.3,0.1-0.4c0-0.2-0.1-0.3-0.2-0.4v0h0.9v0l-1.1,3.4c-0.2,0-0.4-0.1-0.5-0.2c-0.3-0.1-0.3-0.3-0.4-0.6
				l-0.4-1.2L350.4,87.3z"/>
		</g>
		<g>
			<path class="st0" d="M354.4,84.9c0.1,0,0.3,0,0.4-0.1h0v1.9c0,0.2,0,0.4,0.2,0.6v0h-1.3v0c0.2-0.2,0.2-0.3,0.2-0.6v-1.2
				c0-0.2,0-0.4-0.2-0.6v0H354.4z M353.8,84.3c0-0.3,0.2-0.5,0.5-0.5c0.3,0,0.5,0.2,0.5,0.5c0,0.3-0.2,0.5-0.5,0.5
				C354,84.8,353.8,84.6,353.8,84.3z"/>
		</g>
		<g>
			<path class="st0" d="M356.4,85.1c0.1-0.2,0.4-0.3,0.6-0.3c0.3,0,0.5,0.1,0.7,0.3c0.2,0.2,0.2,0.5,0.2,0.7v0.8
				c0,0.2,0,0.4,0.2,0.6v0h-1.3v0c0.2-0.2,0.2-0.3,0.2-0.6v-0.9c0-0.1,0-0.2-0.1-0.3c-0.1-0.1-0.2-0.1-0.3-0.1c-0.1,0-0.2,0-0.2,0.1
				c-0.1,0.1-0.1,0.2-0.1,0.4v0.9c0,0.2,0,0.4,0.2,0.6v0h-1.3v0c0.2-0.2,0.2-0.3,0.2-0.6v-1.2c0-0.2,0-0.4-0.2-0.6v0h0.7
				c0.1,0,0.2,0,0.4-0.1h0V85.1z"/>
		</g>
		<g>
			<path class="st0" d="M360.9,85.3h-0.2c0.1,0.1,0.2,0.3,0.2,0.4c0,0.2-0.1,0.4-0.3,0.6c-0.2,0.2-0.5,0.2-0.8,0.2
				c-0.1,0-0.3,0-0.3,0.1c0,0,0,0.1,0.1,0.1l0.5,0c0.2,0,0.5,0,0.7,0.1c0.2,0.1,0.4,0.4,0.4,0.6c0,0.3-0.2,0.6-0.5,0.7
				c-0.3,0.1-0.6,0.1-0.9,0.1c-0.2,0-0.5,0-0.7-0.1c-0.2-0.1-0.5-0.2-0.5-0.5c0-0.3,0.3-0.4,0.5-0.4c0.1,0,0.3,0,0.4,0.1
				c-0.1,0-0.2,0.1-0.2,0.2c0,0.2,0.3,0.3,0.5,0.3c0.2,0,0.6-0.1,0.6-0.4c0-0.1-0.1-0.2-0.1-0.3c-0.1-0.1-0.2-0.1-0.4-0.1
				c-0.1,0-0.3,0-0.4,0c-0.1,0-0.2,0-0.3-0.1c-0.1-0.1-0.1-0.2-0.1-0.3c0-0.1,0.1-0.1,0.2-0.1l0.1-0.1c-0.4-0.1-0.6-0.4-0.6-0.8
				c0-0.6,0.5-0.9,1.1-0.9c0.1,0,0.3,0,0.4,0.1l1.1,0L360.9,85.3z M359.7,86.1c0.2,0,0.3-0.2,0.3-0.4c0-0.2-0.1-0.5-0.3-0.5
				c-0.2,0-0.3,0.2-0.3,0.4C359.4,85.9,359.5,86.1,359.7,86.1z"/>
		</g>
		<g>
			<path class="st0" d="M361.4,86.6c0.3,0.2,0.6,0.3,0.9,0.3c0.1,0,0.4,0,0.4-0.2c0-0.3-1.2-0.4-1.2-1.1c0-0.3,0.1-0.5,0.4-0.6
				c0.2-0.1,0.5-0.2,0.8-0.2c0.3,0,0.5,0,0.8,0.1v0.5c-0.2-0.1-0.4-0.2-0.7-0.2c-0.1,0-0.3,0-0.3,0.2c0,0.2,0.2,0.2,0.3,0.2
				c0.2,0.1,0.4,0.1,0.6,0.2c0.2,0.1,0.4,0.3,0.4,0.6c0,0.7-0.8,0.8-1.3,0.8c-0.3,0-0.6-0.1-0.9-0.1L361.4,86.6z"/>
		</g>
	</g>
</g>
<g>
	<g>
		<polygon class="st6" points="393.7,73.2 394.3,70 395.2,70 395.2,69.6 392.3,69.6 392.3,70 393.2,70 392.7,73.2 		"/>
	</g>
	<g>
		<path class="st6" d="M396.2,72.4l0.1,0.8h1.1l-0.4-3.6h-1l-1.6,3.6l0.4,0l0.3-0.8H396.2z M396,70.5l0.2,1.6h-0.9L396,70.5z"/>
	</g>
	<g>
		<polygon class="st6" points="399.4,69.6 398.3,69.6 397.8,73.2 398.8,73.2 		"/>
	</g>
	<g>
		<polygon class="st6" points="401.7,71.2 401.9,73.2 402.6,73.2 404.1,69.6 403.7,69.6 402.8,71.7 402.6,69.6 402,69.6 401.1,71.7 
			400.9,69.6 399.8,69.6 400.2,73.2 400.9,73.2 		"/>
	</g>
	<g>
		<path class="st6" d="M406,69.6h-1l-1.6,3.6l0.4,0l0.3-0.8h1.1l0.1,0.8h1.1L406,69.6z M404.3,72l0.7-1.6l0.2,1.6H404.3z"/>
	</g>
	<g>
		<polygon class="st6" points="409.3,72 408.1,69.6 407.4,69.6 406.8,73.2 407.2,73.2 407.6,71 408.7,73.2 409.5,73.2 410.1,69.6 
			409.7,69.6 		"/>
	</g>
	<g>
		<path class="st6" d="M394.9,76.6c0,0,0-0.1,0-0.1c0-0.1,0-0.1,0-0.2c0-0.2-0.1-0.4-0.3-0.5c-0.2-0.1-0.5-0.2-0.8-0.2
			c-0.4,0-0.8,0.1-1.1,0.4c-0.3,0.3-0.4,0.6-0.4,1c0,0.3,0.2,0.6,0.5,0.8c0,0,0.1,0.1,0.1,0.1c0,0,0.1,0,0.1,0l0.2,0.1
			c0.1,0,0.2,0.1,0.2,0.1c0.1,0,0.1,0.1,0.2,0.1c0,0,0,0,0.1,0c0,0,0,0,0.1,0.1c0.1,0.1,0.1,0.2,0.1,0.3c0,0.2-0.1,0.3-0.2,0.4
			c-0.1,0.1-0.3,0.2-0.5,0.2c-0.2,0-0.4-0.1-0.5-0.2c-0.1-0.1-0.2-0.2-0.2-0.4c0-0.1,0.1-0.3,0.2-0.5l-0.5,0.1
			c-0.1,0.2-0.1,0.3-0.1,0.4c0,0.3,0.1,0.5,0.3,0.6c0.2,0.2,0.5,0.2,0.8,0.2c0.5,0,0.9-0.1,1.2-0.4c0.3-0.3,0.5-0.6,0.5-1
			c0-0.2,0-0.3-0.1-0.4c-0.1-0.1-0.2-0.2-0.3-0.3c-0.1,0-0.1-0.1-0.2-0.1c-0.1,0-0.2-0.1-0.3-0.1c-0.1,0-0.2-0.1-0.2-0.1
			c-0.1,0-0.2-0.1-0.2-0.1l-0.1-0.1c-0.1-0.1-0.1-0.2-0.1-0.3c0-0.1,0.1-0.3,0.2-0.4c0.1-0.1,0.3-0.1,0.5-0.1c0.2,0,0.4,0,0.5,0.1
			c0.1,0.1,0.2,0.2,0.2,0.4c0,0.1,0,0.2-0.1,0.4L394.9,76.6z"/>
	</g>
	<g>
		<polygon class="st6" points="396.8,79.2 397.3,76 398.2,76 398.3,75.6 395.4,75.6 395.3,76 396.2,76 395.7,79.2 		"/>
	</g>
	<g>
		<path class="st6" d="M399.3,79.2h1.1l-0.4-3.6h-1l-1.6,3.6l0.4,0l0.3-0.8h1.1L399.3,79.2z M398.3,78.1l0.7-1.6l0.2,1.6H398.3z"/>
	</g>
	<g>
		<polygon class="st6" points="402.1,79.2 402.6,76 403.5,76 403.6,75.6 400.6,75.6 400.6,76 401.5,76 401,79.2 		"/>
	</g>
	<g>
		<polygon class="st6" points="406.3,76 406.3,75.6 404,75.6 403.4,79.2 406,79.2 406,78.8 404.6,78.8 404.8,77.4 405.8,77.4 
			405.9,77.1 404.8,77.1 405,76 		"/>
	</g>
	<g>
		<path class="st6" d="M409.5,76.9c0.1-0.2,0.2-0.4,0.2-0.6c0-0.2-0.1-0.4-0.3-0.6c-0.2-0.1-0.4-0.2-0.8-0.2H407l-0.6,3.6h1.8
			c0.5,0,0.9-0.1,1.1-0.4c0.2-0.2,0.3-0.4,0.3-0.7c0-0.2,0-0.3-0.1-0.4c-0.1-0.1-0.2-0.2-0.3-0.3c-0.1,0-0.2-0.1-0.3-0.1
			c0.2,0,0.3-0.1,0.4-0.1C409.3,77.1,409.4,77,409.5,76.9z M408.4,78.6c-0.1,0.2-0.3,0.3-0.5,0.3h-0.3l0.2-1.4h0.3
			c0.3,0,0.5,0.2,0.5,0.5C408.5,78.2,408.5,78.4,408.4,78.6z M408.1,77.2h-0.3l0.2-1.2h0.3c0.1,0,0.2,0,0.3,0.1
			c0.1,0.1,0.1,0.2,0.1,0.3C408.7,76.9,408.5,77.2,408.1,77.2z"/>
	</g>
	<g>
		<path class="st6" d="M412.6,78c0,0.2-0.1,0.3-0.1,0.4c0,0.1-0.1,0.2-0.1,0.2c-0.1,0.2-0.3,0.3-0.6,0.3c-0.2,0-0.3,0-0.4-0.1
			c-0.1-0.1-0.1-0.2-0.1-0.4c0-0.1,0-0.2,0-0.4l0.4-2.4h-1.1l-0.4,2.3c0,0.2,0,0.3,0,0.4c0,0.3,0.1,0.5,0.3,0.6
			c0.2,0.2,0.5,0.2,0.9,0.2c0.5,0,0.8-0.1,1.1-0.4c0.1-0.1,0.2-0.2,0.3-0.4c0.1-0.1,0.1-0.3,0.1-0.6l0.4-2.3H413L412.6,78z"/>
	</g>
	<g>
		<polygon class="st6" points="413.5,79.2 414.6,79.2 415.1,75.6 414.1,75.6 		"/>
	</g>
	<g>
		<polygon class="st6" points="416.9,75.6 415.8,75.6 415.3,79.2 417.7,79.2 417.8,78.8 416.4,78.8 		"/>
	</g>
	<g>
		<path class="st6" d="M420.2,75.6h-1.5l-0.6,3.6h1.5c0.6,0,1.1-0.2,1.4-0.6c0.4-0.4,0.5-0.9,0.5-1.6c0-0.5-0.1-0.8-0.3-1
			C421,75.7,420.6,75.6,420.2,75.6z M420.4,77.3c0,0.2-0.1,0.4-0.1,0.6c-0.1,0.3-0.2,0.6-0.3,0.7c-0.1,0.2-0.3,0.2-0.5,0.2h-0.3
			l0.5-3h0.2c0.2,0,0.3,0.1,0.4,0.2c0.1,0.1,0.1,0.3,0.1,0.6C420.4,76.9,420.4,77.1,420.4,77.3z"/>
	</g>
	<g>
		<polygon class="st6" points="421.8,79.2 422.9,79.2 423.5,75.6 422.4,75.6 		"/>
	</g>
	<g>
		<polygon class="st6" points="426.1,78 424.9,75.6 424.2,75.6 423.6,79.2 424,79.2 424.3,77 425.5,79.2 426.3,79.2 426.9,75.6 
			426.5,75.6 		"/>
	</g>
	<g>
		<path class="st6" d="M428.7,77.7h0.5l-0.1,0.7c0,0.1,0,0.2-0.1,0.3c0,0,0,0.1-0.1,0.1c-0.1,0.1-0.2,0.2-0.3,0.2
			c-0.3,0-0.4-0.2-0.4-0.6c0-0.2,0-0.5,0.1-1c0.1-0.4,0.2-0.8,0.2-1c0.1-0.2,0.2-0.3,0.3-0.4s0.3-0.2,0.4-0.2c0.3,0,0.5,0.2,0.5,0.5
			c0,0.1,0,0.1,0,0.2c0,0.1,0,0.2-0.1,0.3l0.5-0.2l0-0.2c0-0.2-0.1-0.4-0.3-0.6s-0.4-0.2-0.7-0.2c-0.6,0-1.1,0.2-1.5,0.7
			c-0.4,0.4-0.6,1-0.6,1.7c0,0.4,0.1,0.8,0.4,1c0.2,0.2,0.6,0.4,1,0.4c0.4,0,0.7-0.1,0.9-0.2l0.1-0.1l0.1,0.3h0.4l0.3-1.9h-1.5
			L428.7,77.7z"/>
	</g>
	<g>
		<path class="st6" d="M395.2,83c0.1-0.1,0.1-0.3,0.1-0.5c0-0.3-0.1-0.5-0.3-0.7c-0.2-0.2-0.5-0.2-0.8-0.2h-1.6l-0.6,3.6h1.1
			l0.2-1.5h0.3c0.3,0,0.6,0,0.7-0.1c0.2-0.1,0.4-0.2,0.5-0.3C395.1,83.3,395.1,83.2,395.2,83z M393.6,83.4h-0.2l0.2-1.5h0.2
			c0.2,0,0.3,0,0.4,0.1c0.1,0.1,0.1,0.2,0.1,0.4C394.3,83.1,394,83.4,393.6,83.4z"/>
	</g>
	<g>
		<path class="st6" d="M396.5,81.6l-1.6,3.6l0.4,0l0.3-0.8h1.1l0.1,0.8h1.1l-0.4-3.6H396.5z M395.8,84.1l0.7-1.6l0.2,1.6H395.8z"/>
	</g>
	<g>
		<path class="st6" d="M401.3,81.8c-0.2-0.1-0.5-0.2-0.9-0.2h-1.6l-0.6,3.6h1.1l0.3-1.7h0.2c0.1,0,0.2,0,0.3,0.1
			c0.1,0.1,0.1,0.2,0.1,0.3c0,0.1,0,0.2-0.1,0.4l0,0.3c0,0,0,0.1,0,0.2c0,0.1,0,0.2,0,0.2c0,0,0,0.1,0,0.2h1.1c0-0.1,0-0.1-0.1-0.1
			c0,0,0-0.1,0-0.1c0-0.1,0-0.3,0.1-0.5c0-0.1,0-0.2,0-0.3c0,0,0-0.1,0-0.1c0-0.2,0-0.3-0.1-0.3c-0.1-0.1-0.1-0.1-0.2-0.2
			c-0.1,0-0.2-0.1-0.3-0.1c0.2,0,0.3-0.1,0.4-0.1c0.1,0,0.2-0.1,0.3-0.2c0.1-0.1,0.2-0.2,0.2-0.3c0-0.1,0.1-0.2,0.1-0.3
			C401.6,82.2,401.5,82,401.3,81.8z M399.9,83.2h-0.2l0.2-1.2h0.3c0.3,0,0.4,0.1,0.4,0.4C400.6,82.9,400.4,83.2,399.9,83.2z"/>
	</g>
	<g>
		<polygon class="st6" points="402.1,82 403,82 402.5,85.2 403.6,85.2 404.1,82 405,82 405,81.6 402.1,81.6 		"/>
	</g>
	<g>
		<polygon class="st6" points="406.7,83.3 406.2,81.6 405.1,81.6 405.7,83.9 405.5,85.2 406.6,85.2 406.8,83.9 408,81.6 407.6,81.6 
					"/>
	</g>
	<g>
		<path class="st6" d="M408.8,64.3v-5.7c0-1.6-1.2-1.6-2.4-1.6h-11.3c-1.8,0-1.8,1.1-1.8,2.2v5.6c0,1.7,1.2,1.7,2.4,1.7H407
			C408.8,66.5,408.8,65.4,408.8,64.3z M405.2,64.1c0,0.5-0.2,0.5-0.5,0.5h-7.2c-0.4,0-0.5-0.1-0.5-0.5v-4.4c0-0.5,0.2-0.5,0.5-0.5
			h7.2c0.4,0,0.5,0.1,0.5,0.5V64.1z"/>
	</g>
	<g>
		<path class="st6" d="M406.4,54.3L406.4,54.3L406.4,54.3c0.1,0.1,0.2,0.3,0.3,0.5c0.3,0.4,0.6,1.1,0.7,1.2c0.3,0.5,0.9,0.6,1.1,0.5
			c1.5-0.5,2.2-1,2.2-1.8c0-0.4-0.2-0.8-1.9-2.2c-1.8-1.5-4.6-3.4-5.2-3.4c-0.4,0-0.7,0.3-0.7,0.6c0,0.2,0.1,0.4,0.3,0.6
			c0.6,0.7,1.3,1.4,2.1,2.5l0.1,0.1l-0.1,0c-2.4,0.2-5.3,0.4-7.8,0.5l-0.2,0l0.2-0.1c0.6-0.6,2.6-2.7,4.1-4.5l0,0
			c0.3-0.3,0.4-0.5,0.4-0.8c0-0.9-1.7-1.4-2.6-1.4c-0.1,0-0.2,0-0.2,0c-0.5,0-0.8,0-1.1,0.7c-0.3,0.8-1.6,3.5-3.5,6.2l0,0l0,0
			c-0.1,0-0.5,0-0.9,0c-0.6,0-1.3,0-1.5,0c-0.7,0.1-0.8,0.6-0.8,1c0,0.5,0.2,1.3,1.3,1.3C394.5,55.9,403.8,54.7,406.4,54.3z"/>
	</g>
	<g>
		<path class="st6" d="M430.6,62.2h-9.7c-0.2,0-0.3-0.1-0.3-0.3c0-0.3,0.1-0.6,0.3-0.6h9.1c0.9,0,1.3-0.4,1.3-1.1v-1.1
			c0-1.2-0.9-1.2-1.8-1.2H418c-0.5,0-0.6,0.2-0.6,0.7c0,0.5,0.2,0.6,0.6,0.6h9.6c0.4,0,0.4,0.1,0.4,0.5c0,0.3-0.2,0.3-0.4,0.3h-9.3
			c-0.5,0-0.8,0.2-0.9,0.7c-0.1,0.4-0.4,1.7-0.4,1.9c0,0.6,0.5,0.8,0.8,0.8h9.8c0.1,0,0.3,0.1,0.3,0.3c0,0.5-0.1,0.9-0.3,1.1
			c-0.2,0.2-0.6,0.2-0.9,0.2l-0.1,0l-10,0c-0.4,0-0.5,0.2-0.5,0.8c0,0.5,0.2,0.6,0.6,0.6h12.1c1.2,0,1.8-0.2,2.2-1
			c0.3-0.6,0.5-1.6,0.5-2.4C431.6,62.2,430.7,62.2,430.6,62.2z"/>
	</g>
	<g>
		<path class="st6" d="M431.1,50.7c-0.3,0-0.6,0.3-0.6,0.6c0,0.1,0,0.2,0.1,0.5l0,0.1l-0.1,0c-0.2,0-0.3,0-0.5,0c-0.1,0-0.3,0-0.5,0
			l-0.2,0l0.1-0.1c0.1-0.1,0.2-0.2,0.3-0.3c0.4-0.5,0.9-1,1.5-1.7c0.2-0.3,0.4-0.5,0.4-0.8c0-0.7-0.8-1.1-1.3-1.1
			c-0.3,0-0.5,0.1-0.7,0.5c-0.4,0.7-0.6,1.1-0.7,1.3l-0.1,0.1l-0.1-0.1c-0.1-0.1-0.1-0.2-0.3-0.3l-0.1,0l0-0.1
			c0.5-0.8,0.6-1.1,0.6-1.3c0-0.5-0.6-0.8-1.1-0.8c-0.5,0-0.5,0.3-0.7,1.2l0,0.1l-0.2-0.1c-0.1-0.1-0.2-0.1-0.3-0.1
			c-0.3,0-0.6,0.3-0.6,0.6c0,0.1,0,0.1,0,0.2l0,0.1h-3.9c-0.3,0-0.4,0.3-0.4,0.5c0,0.1,0,0.5,0.4,0.5h3.7c0.2,0,0.4,0,0.4-0.4l0-0.2
			l0.1,0.2c0.4,0.6,0.5,0.7,0.8,1l0.1,0.2c0.1,0.2,0.2,0.2,0.4,0.3l0.1,0l-0.1,0.1c-0.2,0.3-0.3,0.4-0.3,0.5c0,0,0,0.1-0.1,0.1l0,0
			h0c-1.1,0-1.3,0-1.4,0.5l0,0.1l-0.1-0.1c-0.1-0.1-0.2-0.1-0.3-0.1h-3l0-0.1c0-0.1-0.1-0.2-0.1-0.3c-0.1-0.1-0.1-0.3-0.1-0.3
			l-0.1-0.2c-0.2-0.5-0.4-0.9-0.8-0.9c-0.4,0-0.7,0.4-0.7,0.6c0,0.1,0,0.2,0.1,0.4l0.1,0.2l-0.1,0c-0.3,0-0.4,0-0.6,0
			c-0.1,0-0.2,0-0.4,0h-0.2l0.1-0.1c0.5-0.6,1.2-1.3,1.7-2c0.2-0.3,0.3-0.5,0.3-0.8c0-0.7-0.8-1.1-1.2-1.1c0,0-0.4,0-0.6,0.3
			c-0.1,0.2-0.3,0.6-0.5,0.9c-0.1,0.2-0.2,0.4-0.3,0.5l-0.1,0.1l-0.1-0.1c-0.1-0.1-0.1-0.2-0.2-0.3l-0.1-0.1l0-0.1
			c0.5-0.9,0.6-1.1,0.6-1.3c0-0.5-0.5-0.8-1-0.8c-0.4,0-0.5,0.3-0.7,1.2l0,0.1l-0.1-0.1c-0.1-0.1-0.2-0.1-0.4-0.1
			c-0.3,0-0.6,0.2-0.6,0.6c0,0.2,0.1,0.3,0.4,0.7l0.1,0.2c0.1,0.1,0.4,0.6,0.7,1c0.1,0.1,0.1,0.2,0.2,0.3c0.1,0.1,0.2,0.2,0.3,0.2
			l0.1,0l-0.2,0.3c-0.1,0.2-0.2,0.2-0.2,0.3l0,0h0c-1,0-1.3,0-1.3,0.7c0,0.2,0,0.9,0.6,0.9c0.2,0,1-0.1,1.1-0.1l0.1,0v1l-0.1-0.1
			c-0.2-0.2-0.5-0.3-0.8-0.3c-0.5,0-0.5,0.3-0.6,0.6l0,0.2l-0.1-0.1c-0.4-0.5-2.9-2-3.6-2l-0.1,0c-0.1,0-0.2,0-0.2,0
			c0,0-0.1,0.1-0.1,0.3c0,0.2,0.1,0.4,0.3,0.6c0.4,0.6,0.8,1.4,1.1,2.1c0.1,0.2,0.2,0.5,0.3,0.7c0.2,0.4,0.5,0.6,0.9,0.6
			c0.4,0,0.8-0.2,0.9-0.3l0.2-0.1l0,0.2c0,0.2,0,0.4,0.2,0.5c0.1,0.1,0.3,0.2,0.4,0.2c0.4,0,0.6-0.2,1.2-1.7l0.2-0.4v1.2
			c0,0.5,0.1,1.1,1,1.1c0.8,0,1.1-0.3,1.1-1.1v-1.9l0.2,0.4c0.1,0.3,0.2,0.7,0.3,1c0.2,0.7,0.2,0.9,0.7,0.9c0.1,0,0.4,0,0.7-0.3
			l0.1-0.1l0,0.1c0.3,0.7,0.7,0.7,1.4,0.7h0.7c0.6,0,1,0,1.3-0.4l0.1-0.1l0,0.2c0.1,0.4,0.4,0.5,0.6,0.5c0.5,0,0.9-1,1.2-1.7
			l0.2-0.4v1.2c0,0.5,0.1,1.1,1.1,1.1c0.8,0,1.1-0.3,1.1-1.1v-3.4l0.1,0c0,0,0.2,0,0.3-0.1c0.1,0,0.2,0,0.3-0.1l0.1,0l0,0.1
			c0.2,0.8,0.3,1.1,0.7,1.1c0.5,0,0.9-0.5,0.9-1c0-0.4-0.7-1.8-0.9-2.2C431.6,50.9,431.4,50.7,431.1,50.7z M424.2,56.1
			c-0.2,0-0.3,0-0.3-0.4c0-0.5,0-0.6,0.5-0.6c0.3,0,0.3,0.2,0.3,0.4C424.7,56,424.7,56.1,424.2,56.1z M428,54.4l-0.1-0.1
			c-0.2-0.2-0.5-0.3-0.8-0.3c-0.5,0-0.6,0.3-0.6,0.5c0,0.2-0.1,0.6-0.2,1.1l-0.2,0c0-1.6-0.6-1.6-1.5-1.6h-0.7c-0.8,0-1.3,0-1.5,1
			l0,0.2l-0.2-0.3c-0.6-1-0.7-1-1-1c-0.2,0-0.4,0.1-0.5,0.3l-0.2,0.3v-1.4l0.1,0c0,0,0.2,0,0.3-0.1c0.1,0,0.2-0.1,0.3-0.1l0.1,0
			l0,0.1c0.1,0.6,0.2,0.9,0.7,0.9c0.1,0,0.3,0,0.3-0.1c0.2-0.1,0.4-0.2,0.5-0.4l0,0h2.9c0.2,0,0.3-0.1,0.4-0.2l0.1-0.1l0.1,0.1
			c0.1,0.1,0.2,0.4,0.5,0.4c0.1,0,0.2,0,0.5,0c0.2,0,0.4,0,0.7-0.1l0.1,0V54.4z"/>
	</g>
	<g>
		<path class="st6" d="M414.2,66.2c0.5,0,0.7-0.3,0.9-1c1.1-3.3,1.6-6.8,1.6-7c0-0.2-0.1-0.6-0.6-0.6c0,0-0.1,0-0.1,0
			c-0.2,0-0.5,0.1-0.6,0.6c-0.6,2-1,3-2.3,5.4c-0.2,0.4-0.5,0.9-0.5,1.3C412.6,65.7,413.5,66.2,414.2,66.2z"/>
	</g>
	<g>
		<path class="st6" d="M454.1,64.9h-7.5v-2.5h3c0.1,0,0.4,0,0.5-0.2c0.1-0.1,0.2-0.3,0.1-0.6l0-0.2l0.1,0.1c1.6,1.1,3.3,1.8,3.6,1.8
			c0.3,0,0.6-0.2,0.6-0.6c0-0.3-0.2-0.5-0.3-0.6c-0.7-0.6-2.5-2-3.3-4l0-0.1h2.9c0.3,0,0.7-0.1,0.7-0.7c0-0.6-0.4-0.6-0.7-0.6H451
			v-6.1h2.2c0.3,0,0.7-0.1,0.7-0.7c0-0.4-0.2-0.6-0.7-0.6H451v-0.8c0-1-0.6-1.4-1.9-1.4c-1.6,0-1.8,0.7-1.8,1.4v0.8h-5v-0.8
			c0-1-0.6-1.4-1.9-1.4c-1.6,0-1.8,0.7-1.8,1.4v0.8l-0.1,0l-2.3,0c-0.3,0-0.5,0.1-0.5,0.7c0,0.6,0.3,0.6,0.5,0.6h2.3v6.1h-3.2
			c-0.3,0-0.4,0.1-0.4,0.7c0,0.6,0.2,0.6,0.4,0.6h3.2l0,0.1c-1,2.3-3.2,4-3.3,4.1c-0.3,0.3-0.5,0.4-0.5,0.7c0,0.4,0.4,0.4,0.8,0.4
			c0.3,0,1.9-0.7,3.6-1.8l0.1-0.1l0,0.2c0,0.3,0,0.5,0.1,0.6c0.1,0.1,0.3,0.2,0.5,0.2h3.1v2.5H435c-0.3,0-0.5,0.1-0.5,0.7
			c0,0.6,0.2,0.6,0.4,0.6h19.2c0.3,0,0.7-0.1,0.7-0.7C454.8,65,454.4,64.9,454.1,64.9z M442.3,50.6h5v1.2h-5V50.6z M442.3,53h5v1.2
			h-5V53z M442.3,55.5h5v1.2h-5V55.5z M443,58.1c0,0.1,0,0.1,0,0.2v2.8h-3.2l0.2-0.1c1.7-1.3,2.5-2.5,2.8-2.9l0-0.1h0.2L443,58.1z
			 M446.6,58h0.2l0,0c0.5,0.7,1.3,1.7,2.8,2.9l0.2,0.1h-3.2v-2.8C446.7,58.3,446.7,58.2,446.6,58L446.6,58z"/>
	</g>
	<g>
		<path class="st6" d="M461.1,54.1c-0.1,0.2-0.2,0.3-0.2,0.5c0,0.4,0.3,0.7,0.6,0.7c0.3,0,0.9-0.5,1.3-0.9l0.2-0.2v7.3
			c0,1.1,0,2.2,1.9,2.2h10.5c0.5,0,0.7-0.2,0.7-0.6l0-0.1c0-0.2,0-0.4-0.1-0.5c-0.1-0.1-0.2-0.1-0.4-0.1h-3.4v-2.9h2.2
			c0.3,0,0.7-0.1,0.7-0.6c0-0.1,0-0.1,0-0.2c0-0.2,0-0.3,0-0.4c0-0.1-0.2-0.1-0.3-0.1h-2.5v-2.7h2.2c0.3,0,0.7-0.1,0.7-0.6l0-0.1
			c0-0.2,0-0.4-0.1-0.5c-0.1-0.1-0.2-0.1-0.4-0.1h-2.5v-2.6h2.8c0.3,0,0.7-0.1,0.7-0.6c0-0.5-0.2-0.7-0.7-0.7h-3.7l0.2-0.2
			c1.4-0.9,1.7-1.3,1.7-1.7c0-0.9-1.4-1.3-2.3-1.3l-0.2,0c-0.6,0-0.8,0-1,0.6c-0.3,0.8-1.1,2.5-1.2,2.6l0,0h-2.1l0.1-0.1
			c0.3-0.4,1-1.4,1-1.9c0-0.6-1-1.2-2.3-1.2c-1,0-1,0-1.2,0.9c0,0.1-0.1,0.3-0.2,0.5C463.2,51.2,461.7,53.3,461.1,54.1L461.1,54.1z
			 M466.7,52.2c0-0.4,0.1-0.5,0.5-0.5h1.4v2.6h-1.9V52.2z M466.7,55.6h1.9v2.7h-1.9V55.6z M466.7,59.5h1.9v2.9h-1.4
			c-0.4,0-0.5-0.1-0.5-0.5V59.5z"/>
	</g>
	<g>
		<path class="st6" d="M476.2,65.1c0,0-0.1-0.1-0.3-0.1h-10.7c-1.3,0-3.4,0-3.4-2.8v-5.1c0-1.4-1-1.4-2-1.4H457
			c-0.2,0-0.3,0-0.4,0.1c-0.1,0.1-0.1,0.3-0.1,0.5v0c0,0.2,0,0.4,0.1,0.5c0,0,0.1,0.1,0.3,0l1.2,0.1c0,0,0,0,0,0
			c0.4,0,0.4,0.1,0.4,0.5V63l0,0c-0.1,0-0.1,0.1-0.2,0.1c-0.4,0.2-0.8,0.5-1.5,0.7c-0.2,0.1-0.3,0.1-0.3,1c0,1.1,0.5,1.8,1,1.8
			c0.5,0,1.7-1.4,2.4-2.1l0.1-0.1l0.1,0.1c0.9,1.7,2,1.7,5.1,1.7h10.6c0.5,0,0.6-0.2,0.6-0.7v-0.1C476.3,65.4,476.3,65.2,476.2,65.1
			z"/>
	</g>
	<g>
		<path class="st6" d="M458.3,52.4L458.3,52.4c0.2,0.9,0.4,1.5,1.2,1.5c0.9,0,2.2-0.7,2.2-1.8c0-0.9-1.4-2.3-2.6-3.5
			c-1.3-1.3-1.7-1.3-1.9-1.3c0,0,0,0,0,0l0,0c-0.3,0-0.4,0.2-0.4,0.6c0,0.2,0,0.3,0.2,0.7C457.7,50.2,458.1,51.7,458.3,52.4z"/>
	</g>
	<g>
		<path class="st6" d="M413.8,49.8c0.1,0.2,0.2,0.4,0.3,0.7l0,0c0.6,1.4,0.7,1.5,1.3,1.5c1,0,1.7-0.8,1.7-1.6c0-1.1-3.2-2.9-3.6-2.9
			c-0.4,0-0.5,0.1-0.5,0.4c0,0.2,0.1,0.4,0.1,0.4C413.5,49.1,413.6,49.4,413.8,49.8z"/>
	</g>
	<g>
		<path class="st6" d="M425.7,48.5c0.3,0,0.4-0.3,0.4-0.5c0-0.3-0.1-0.5-0.4-0.5h-2.9c-0.3,0-0.4,0.2-0.4,0.5c0,0.3,0.1,0.5,0.4,0.5
			H425.7z"/>
	</g>
	<g>
		<path class="st6" d="M422.5,51.6c0.1,0.1,0.2,0.1,0.3,0.1h2.9c0.3,0,0.4-0.1,0.4-0.5c0-0.3-0.1-0.5-0.4-0.5h-2.9
			c-0.1,0-0.2,0-0.3,0.1c-0.1,0.1-0.1,0.4-0.1,0.5L422.5,51.6L422.5,51.6z"/>
	</g>
	<g>
		<path class="st6" d="M430.9,54.1c-0.3,0-0.5,0.2-0.5,0.3l-0.1,0.2l0.1,0.4c0.2,0.7,0.3,0.9,0.4,1.6c0.1,0.5,0.3,0.7,0.6,0.7
			c0.5,0,1-0.4,1-0.9c0-0.3-0.6-1.4-0.9-1.9C431.3,54.2,431.2,54.1,430.9,54.1z"/>
	</g>
	<g>
		<g>
			<g>
				<path class="st7" d="M452.2,19.9c0-0.1,0-0.1,0-0.2h0c0,0,0,0,0,0c0,0,0,0,0,0h0c0-0.1,0-0.1,0-0.2c-0.2-1.9-15-16.5-18-17.8
					c-0.2-0.1-0.4-0.1-0.6-0.1c-0.2,0-0.4,0-0.6,0.1c-2.9,1.3-17.8,15.9-18,17.8c0,0.1,0,0.1,0,0.2h0c0,0,0,0,0,0c0,0,0,0,0,0h0
					c0,0.1,0,0.1,0,0.2c0.2,1.9,15,16.5,18,17.8c0.2,0.1,0.4,0.1,0.6,0.1c0.2,0,0.4,0,0.6-0.1C437.2,36.4,452,21.9,452.2,19.9z
					 M435.3,34.5l-1.6,0l-1.6,0c-2.6-11.4-13.1-13.1-13.2-13.1l0-1.6l0-1.6c0.1,0,10.7-1.7,13.2-13.1l1.6,0l1.6,0
					c2.6,11.4,13.1,13.1,13.2,13.1l0,1.6l0,1.6C448.4,21.4,437.8,23.1,435.3,34.5z"/>
			</g>
		</g>
		<g>
			<path class="st7" d="M433.7,8.8c-2.4,4.9-5.9,7.9-8.9,9.8h8.9h8.9C439.6,16.8,436.1,13.7,433.7,8.8z"/>
		</g>
		<g>
			<path class="st7" d="M424.8,20.8c3,1.8,6.5,4.9,8.9,9.8c2.4-4.9,5.9-7.9,8.9-9.8h-8.9H424.8z"/>
		</g>
	</g>
</g>
<g>
	<g>
		<path d="M114.3,162.3c-0.1,0-0.3,0-0.3-0.1c-0.1-0.1-0.1-0.2-0.1-0.3v-0.5c0-0.3,0.1-0.6,0.4-0.8c1.3-1.2,2.3-2.3,3-3.1
			c0.7-0.9,1-1.6,1-2.3c0-0.5-0.1-0.8-0.4-1.1c-0.2-0.3-0.6-0.4-1-0.4c-0.5,0-0.9,0.2-1.4,0.7c-0.1,0.1-0.2,0.1-0.3,0.1
			c-0.1,0-0.2,0-0.3-0.1l-0.7-0.7c-0.1-0.1-0.2-0.2-0.2-0.3c0-0.1,0-0.2,0.2-0.3c0.5-0.4,0.9-0.8,1.4-1c0.5-0.2,1-0.3,1.7-0.3
			c1,0,1.8,0.3,2.5,0.9c0.6,0.6,1,1.4,1,2.4c0,1.5-1,3.2-3.1,5.3c0,0,0,0,0,0c0,0,0,0,0,0c0.7-0.1,1.2-0.1,1.6-0.1h1.4
			c0.1,0,0.3,0,0.3,0.1c0.1,0.1,0.1,0.2,0.1,0.3v1.1c0,0.1,0,0.3-0.1,0.3c-0.1,0.1-0.2,0.1-0.3,0.1H114.3z"/>
	</g>
	<g>
		<path d="M128.7,161c-0.7,0.9-1.6,1.4-2.7,1.4s-2-0.5-2.7-1.4c-0.7-0.9-1-2.3-1-4s0.3-3.1,1-4c0.7-0.9,1.6-1.4,2.7-1.4
			c1.1,0,2,0.5,2.7,1.4c0.7,0.9,1,2.2,1,4C129.7,158.8,129.3,160.1,128.7,161z M125.4,160.4c0.2,0.1,0.3,0.2,0.5,0.2
			c0.2,0,0.4-0.1,0.5-0.2c0.2-0.1,0.3-0.3,0.4-0.5c0.1-0.3,0.2-0.6,0.3-1.1c0.1-0.5,0.1-1.1,0.1-1.8c0-0.7,0-1.3-0.1-1.7
			c-0.1-0.5-0.2-0.8-0.3-1.1c-0.1-0.2-0.3-0.4-0.4-0.5c-0.2-0.1-0.3-0.1-0.5-0.1c-0.2,0-0.4,0-0.5,0.1c-0.1,0.1-0.3,0.3-0.4,0.5
			c-0.1,0.2-0.2,0.6-0.3,1.1c-0.1,0.5-0.1,1-0.1,1.7c0,0.7,0,1.3,0.1,1.8c0.1,0.5,0.2,0.8,0.3,1.1
			C125.1,160.1,125.3,160.3,125.4,160.4z"/>
	</g>
	<g>
		<path d="M137.2,161c-0.7,0.9-1.6,1.4-2.7,1.4c-1.1,0-2-0.5-2.7-1.4c-0.7-0.9-1-2.3-1-4s0.3-3.1,1-4c0.7-0.9,1.6-1.4,2.7-1.4
			c1.1,0,2,0.5,2.7,1.4c0.7,0.9,1,2.2,1,4C138.2,158.8,137.8,160.1,137.2,161z M134,160.4c0.2,0.1,0.3,0.2,0.5,0.2
			c0.2,0,0.4-0.1,0.5-0.2c0.2-0.1,0.3-0.3,0.4-0.5c0.1-0.3,0.2-0.6,0.3-1.1c0.1-0.5,0.1-1.1,0.1-1.8c0-0.7,0-1.3-0.1-1.7
			c-0.1-0.5-0.2-0.8-0.3-1.1c-0.1-0.2-0.3-0.4-0.4-0.5c-0.2-0.1-0.3-0.1-0.5-0.1c-0.2,0-0.4,0-0.5,0.1c-0.1,0.1-0.3,0.3-0.4,0.5
			c-0.1,0.2-0.2,0.6-0.3,1.1c-0.1,0.5-0.1,1-0.1,1.7c0,0.7,0,1.3,0.1,1.8c0.1,0.5,0.2,0.8,0.3,1.1
			C133.7,160.1,133.8,160.3,134,160.4z"/>
	</g>
	<g>
		<path d="M143,162.5c-1,0-1.9-0.3-2.6-0.8c-0.7-0.5-1-1.2-1-2c0-1.1,0.6-2,1.7-2.6c0,0,0,0,0,0c0,0,0,0,0-0.1
			c-0.9-0.7-1.3-1.5-1.3-2.5c0-0.9,0.3-1.5,0.9-2.1c0.6-0.5,1.4-0.8,2.4-0.8c0.9,0,1.7,0.3,2.3,0.8c0.6,0.5,0.9,1.2,0.9,2
			c0,0.5-0.1,0.9-0.4,1.3c-0.2,0.4-0.5,0.7-0.9,1c0,0,0,0,0,0.1c0,0,0,0,0,0c1.1,0.6,1.7,1.5,1.7,2.8c0,0.8-0.3,1.5-1,2
			C144.9,162.2,144.1,162.5,143,162.5z M143,160.7c0.4,0,0.7-0.1,0.9-0.3c0.2-0.2,0.4-0.5,0.4-0.9c0-0.4-0.2-0.7-0.5-1
			c-0.3-0.2-0.8-0.5-1.6-0.8c0,0,0,0,0,0c0,0,0,0-0.1,0c-0.4,0.5-0.7,1-0.7,1.7c0,0.4,0.1,0.7,0.4,1
			C142.3,160.6,142.6,160.7,143,160.7z M143.6,156.1C143.6,156.2,143.6,156.1,143.6,156.1c0.4-0.5,0.6-1,0.6-1.5
			c0-0.4-0.1-0.7-0.3-0.9c-0.2-0.2-0.5-0.3-0.9-0.3c-0.3,0-0.6,0.1-0.8,0.3c-0.2,0.2-0.3,0.5-0.3,0.8c0,0.4,0.1,0.7,0.4,1
			C142.6,155.7,143,155.9,143.6,156.1z"/>
	</g>
	<g>
		<path d="M113.3,168C113.3,168.1,113.3,168.1,113.3,168l2.1,0.1c0.1,0,0.2,0,0.3,0.1c0.1,0.1,0.1,0.2,0.1,0.3v0.9
			c0,0.1,0,0.2-0.1,0.3c-0.1,0.1-0.2,0.1-0.3,0.1h-11.9c-0.1,0-0.2,0-0.3-0.1c-0.1-0.1-0.1-0.2-0.1-0.3v-0.9c0-0.1,0-0.2,0.1-0.3
			c0.1-0.1,0.2-0.1,0.3-0.1h2.2c0,0,0.1,0,0-0.1c-0.2-0.3-0.4-0.6-0.6-0.9c-0.1-0.1-0.1-0.2-0.1-0.3c0-0.1,0.1-0.2,0.2-0.2l1-0.4
			c0.1,0,0.2,0,0.2,0c0.1,0,0.1,0,0.2,0c0.1,0,0.3,0.1,0.4,0.2c0.3,0.3,0.5,0.7,0.7,1c0.1,0.1,0.1,0.2,0,0.3c0,0.1-0.1,0.2-0.3,0.2
			l-0.3,0.1c0,0,0,0,0,0c0,0,0,0,0,0h3.6c0,0,0.1,0,0.1-0.1c0.3-0.5,0.6-1,0.8-1.5c0.1-0.1,0.1-0.2,0.3-0.3c0.1,0,0.1-0.1,0.2-0.1
			c0.1,0,0.1,0,0.2,0l1.3,0.4c0.1,0,0.2,0.1,0.2,0.2c0,0.1,0,0.2,0,0.3C113.7,167.5,113.5,167.8,113.3,168z M109,170.7
			c0.1,0,0.2,0,0.3,0.1c0.1,0.1,0.1,0.2,0.1,0.3v6.3c0,0.4,0,0.7-0.1,1c-0.1,0.2-0.3,0.4-0.5,0.6c-0.3,0.2-0.8,0.3-1.5,0.3h0
			c-0.1,0-0.3,0-0.4-0.1c-0.1-0.1-0.2-0.2-0.2-0.3c-0.1-0.3-0.2-0.5-0.3-0.8c0-0.1,0-0.2,0-0.3c0.1-0.1,0.1-0.1,0.3-0.1
			c0.1,0,0.2,0,0.3,0c0.1,0,0.3,0,0.3,0c0.1,0,0.2,0,0.2,0c0,0,0-0.1,0-0.2v-0.8c0,0,0-0.1-0.1-0.1h-1.8c0,0-0.1,0-0.1,0.1v2.2
			c0,0.1,0,0.2-0.1,0.3c-0.1,0.1-0.2,0.1-0.3,0.1h-0.9c-0.1,0-0.3,0-0.3-0.1c-0.1-0.1-0.1-0.2-0.1-0.3v-7.6c0-0.1,0-0.3,0.1-0.3
			c0.1-0.1,0.2-0.1,0.3-0.1H109z M107.6,172.5C107.6,172.4,107.5,172.4,107.6,172.5l-1.9-0.1c0,0-0.1,0-0.1,0.1v0.5
			c0,0,0,0.1,0.1,0.1h1.8c0,0,0.1,0,0.1-0.1V172.5z M105.6,175C105.6,175.1,105.6,175.1,105.6,175l1.9,0.1c0,0,0.1,0,0.1-0.1v-0.5
			c0,0,0-0.1-0.1-0.1h-1.8c0,0-0.1,0-0.1,0.1V175z M111.8,170.9c0.1,0,0.3,0,0.3,0.1c0.1,0.1,0.1,0.2,0.1,0.3v4.8
			c0,0.1,0,0.3-0.1,0.3c-0.1,0.1-0.2,0.1-0.3,0.1h-0.9c-0.1,0-0.3,0-0.3-0.1c-0.1-0.1-0.1-0.2-0.1-0.3v-4.8c0-0.1,0-0.3,0.1-0.3
			c0.1-0.1,0.2-0.1,0.3-0.1H111.8z M113.2,177.2V171c0-0.1,0-0.3,0.1-0.3c0.1-0.1,0.2-0.1,0.3-0.1h1c0.1,0,0.3,0,0.3,0.1
			c0.1,0.1,0.1,0.2,0.1,0.3v6.2c0,0.5-0.1,0.9-0.2,1.1c-0.1,0.3-0.3,0.5-0.6,0.6c-0.4,0.2-1.1,0.3-1.9,0.3h0c-0.1,0-0.2,0-0.4-0.1
			c-0.1-0.1-0.2-0.2-0.2-0.3c-0.1-0.3-0.2-0.7-0.4-1c0-0.1,0-0.2,0-0.3c0.1-0.1,0.1-0.1,0.3-0.1c0.3,0,0.5,0,0.7,0
			c0.2,0,0.3,0,0.4,0c0.1,0,0.2,0,0.2,0C113.2,177.4,113.2,177.3,113.2,177.2z"/>
	</g>
	<g>
		<path d="M127.7,170.2c0.1-0.1,0.2-0.2,0.3-0.2c0.1,0,0.3,0,0.4,0l1.1,0.5c0.1,0.1,0.2,0.1,0.2,0.3c0,0,0,0.1,0,0.1
			c0,0.1,0,0.2-0.1,0.2c-0.6,0.9-1.3,1.7-2.1,2.5c0,0,0,0.1,0,0.1v2.9c0,0.6-0.1,1-0.2,1.3c-0.1,0.3-0.3,0.5-0.7,0.7
			c-0.3,0.2-0.7,0.3-1.1,0.3c-0.3,0-0.8,0.1-1.3,0.1c-0.1,0-0.3,0-0.4-0.1c-0.1-0.1-0.2-0.2-0.2-0.3c-0.1-0.5-0.3-1.1-0.6-1.6
			c0,0,0,0-0.1,0c-1.4,0.7-2.8,1.3-4.4,1.8c-0.1,0-0.3,0-0.4,0c-0.1,0-0.2-0.1-0.3-0.3c-0.3-0.4-0.5-0.7-0.8-1.1
			c0-0.1-0.1-0.1-0.1-0.2c0,0,0-0.1,0-0.1c0-0.1,0.1-0.2,0.2-0.2c1.6-0.4,3.1-1,4.5-1.7c0,0,0,0,0,0c-1.9,0.1-3.3,0.2-4,0.3
			c-0.1,0-0.3,0-0.4-0.1c-0.1-0.1-0.2-0.2-0.2-0.3l-0.2-1c0-0.1,0-0.2,0.1-0.3c0.1-0.1,0.2-0.2,0.3-0.2c0.4,0,0.9,0,1.5-0.1
			c0,0,0.1,0,0.1-0.1v-5.9c0-0.1,0-0.2,0.1-0.3c0.1-0.1,0.2-0.1,0.3-0.1h2.4c0,0,0.1,0,0.1-0.1c0.1-0.3,0.2-0.6,0.2-0.8
			c0-0.1,0.1-0.2,0.2-0.3c0.1-0.1,0.2-0.1,0.3-0.1c0,0,0,0,0.1,0l1.6,0.2c0.1,0,0.2,0.1,0.3,0.2c0.1,0.1,0.1,0.2,0,0.3
			c-0.1,0.2-0.2,0.4-0.4,0.6c0,0,0,0.1,0,0.1h2.7c0.1,0,0.3,0,0.3,0.1c0.1,0.1,0.1,0.2,0.1,0.3v2.8c0,0,0,0,0,0c0,0,0,0,0,0
			C127.7,170.3,127.7,170.3,127.7,170.2z M125.5,168.9C125.5,168.8,125.5,168.8,125.5,168.9l-4.3-0.1c0,0-0.1,0-0.1,0.1v0.4
			c0,0,0,0.1,0.1,0.1h4.2c0,0,0.1,0,0.1-0.1V168.9z M125.4,171.4C125.5,171.4,125.5,171.4,125.4,171.4l0.1-0.5c0,0,0-0.1-0.1-0.1
			h-4.2c0,0-0.1,0-0.1,0.1v0.5c0,0,0,0.1,0.1,0.1H125.4z M121.2,172.8C121.2,172.8,121.1,172.8,121.2,172.8l-0.1,0.6
			c0,0,0,0.1,0.1,0.1c0.4,0,1-0.1,1.8-0.1c0.8,0,1.5-0.1,1.9-0.1c0,0,0.1,0,0.1,0c0.1-0.1,0.2-0.2,0.5-0.4c0,0,0,0,0,0c0,0,0,0,0,0
			H121.2z M125.5,176.7v-1.1c0,0,0,0-0.1,0c-0.7,0.5-1.4,0.9-2.2,1.4c0,0,0,0,0,0c0,0,0,0,0,0c0.4,0,1,0,1.9,0
			C125.4,177,125.5,176.9,125.5,176.7z"/>
	</g>
	<g>
		<path d="M136.9,173.7c0.1,0.1,0.2,0.2,0.2,0.3s0,0.3-0.1,0.4l-0.6,0.9c-0.1,0.1-0.2,0.2-0.3,0.2c-0.1,0-0.2-0.1-0.3-0.2
			c-0.2-0.2-0.4-0.5-0.6-0.8c0,0,0,0,0,0c0,0,0,0,0,0v4.4c0,0.1,0,0.2-0.1,0.3c-0.1,0.1-0.2,0.1-0.3,0.1h-1c-0.1,0-0.3,0-0.3-0.1
			c-0.1-0.1-0.1-0.2-0.1-0.3v-4c0,0,0,0,0,0c0,0,0,0,0,0c-0.3,0.3-0.7,0.6-1,0.8c-0.1,0.1-0.2,0.1-0.3,0s-0.2-0.1-0.2-0.2
			c-0.2-0.4-0.3-0.8-0.5-1.1c0-0.1-0.1-0.2-0.1-0.2c0,0,0-0.1,0-0.1c0-0.1,0.1-0.2,0.2-0.3c0.6-0.4,1.2-0.9,1.8-1.4
			c0.6-0.6,1-1.2,1.4-1.8c0,0,0-0.1,0-0.1h-2.6c-0.1,0-0.3,0-0.3-0.1c-0.1-0.1-0.1-0.2-0.1-0.3v-0.9c0-0.1,0-0.2,0.1-0.3
			c0.1-0.1,0.2-0.1,0.3-0.1h1.3c0,0,0.1,0,0.1-0.1v-2c0-0.1,0-0.3,0.1-0.3c0.1-0.1,0.2-0.1,0.3-0.1h1c0.1,0,0.3,0,0.3,0.1
			c0.1,0.1,0.1,0.2,0.1,0.3v2c0,0,0,0.1,0.1,0.1h0.2c0,0,0.1,0,0.1,0c0.1,0,0.1,0,0.2,0c0.1,0,0.3,0,0.4,0.1l0.5,0.3
			c0.1,0.1,0.2,0.2,0.2,0.3c0,0.1,0,0.3,0,0.4c-0.4,0.9-0.8,1.7-1.3,2.5c0,0,0,0.1,0,0.1C135.8,172.8,136.3,173.2,136.9,173.7z
			 M141.4,176.9C141.4,177,141.4,177,141.4,176.9l2.4,0.1c0.1,0,0.3,0,0.3,0.1s0.1,0.2,0.1,0.3v1c0,0.1,0,0.3-0.1,0.3
			c-0.1,0.1-0.2,0.1-0.3,0.1h-7c-0.1,0-0.2,0-0.3-0.1c-0.1-0.1-0.1-0.2-0.1-0.3v-1c0-0.1,0-0.3,0.1-0.3s0.2-0.1,0.3-0.1h2.5
			c0,0,0.1,0,0.1-0.1v-4.6c0,0,0-0.1-0.1-0.1h-1.9c-0.1,0-0.2,0-0.3-0.1c-0.1-0.1-0.1-0.2-0.1-0.3v-1c0-0.1,0-0.3,0.1-0.3
			c0.1-0.1,0.2-0.1,0.3-0.1h1.9c0,0,0.1,0,0.1-0.1v-3.5c0-0.1,0-0.2,0.1-0.3c0.1-0.1,0.2-0.1,0.3-0.1h1.1c0.1,0,0.3,0,0.3,0.1
			c0.1,0.1,0.1,0.2,0.1,0.3v3.5c0,0,0,0.1,0.1,0.1h2c0.1,0,0.2,0,0.3,0.1c0.1,0.1,0.1,0.2,0.1,0.3v1c0,0.1,0,0.2-0.1,0.3
			c-0.1,0.1-0.2,0.1-0.3,0.1h-2c0,0-0.1,0-0.1,0.1V176.9z"/>
	</g>
	<g>
		<path d="M145.4,167c0-0.1,0-0.3,0.1-0.3c0.1-0.1,0.2-0.1,0.3-0.1H157c0.1,0,0.3,0,0.3,0.1c0.1,0.1,0.1,0.2,0.1,0.3v12
			c0,0.1,0,0.2-0.1,0.3c-0.1,0.1-0.2,0.1-0.3,0.1h-1c-0.1,0-0.3,0-0.3-0.1s-0.1-0.2-0.1-0.3v-0.1c0,0,0-0.1-0.1-0.1h-8.2
			c0,0-0.1,0-0.1,0.1v0.1c0,0.1,0,0.2-0.1,0.3c-0.1,0.1-0.2,0.1-0.3,0.1h-0.9c-0.1,0-0.3,0-0.3-0.1c-0.1-0.1-0.1-0.2-0.1-0.3V167z
			 M147.2,177.2C147.2,177.2,147.3,177.2,147.2,177.2l8.3,0.1c0,0,0.1,0,0.1-0.1V168c0,0,0-0.1-0.1-0.1h-8.2c0,0-0.1,0-0.1,0.1
			V177.2z M155,173.4c0.1,0.1,0.1,0.2,0.1,0.3c0,0.1-0.1,0.2-0.2,0.3l-0.3,0.2c0,0,0,0,0,0c0,0,0,0,0,0h0.2c0.1,0,0.3,0,0.3,0.1
			c0.1,0.1,0.1,0.2,0.1,0.3v0.1c0,0.1,0,0.2-0.1,0.3c-0.1,0.1-0.2,0.1-0.3,0.1h-1.1c0,0-0.1,0-0.1,0.1v0.6c0,0.3,0,0.5-0.1,0.6
			c-0.1,0.1-0.2,0.2-0.4,0.3c-0.3,0.1-0.7,0.1-1.3,0.1c-0.1,0-0.3,0-0.4-0.1c-0.1-0.1-0.2-0.2-0.3-0.3c0,0,0,0,0-0.1
			c0-0.1,0-0.2,0-0.3c0.1-0.1,0.2-0.1,0.3-0.1c0.1,0,0.2,0,0.4,0c0.1,0,0.2-0.1,0.2-0.2v-0.5c0,0,0-0.1-0.1-0.1h-1.9c0,0,0,0,0,0.1
			c0.2,0.2,0.3,0.4,0.4,0.5c0.1,0.1,0.1,0.2,0.1,0.3c0,0.1-0.1,0.2-0.2,0.3l-0.5,0.2c-0.1,0.1-0.3,0.1-0.4,0c-0.1,0-0.2-0.1-0.3-0.2
			c-0.1-0.1-0.2-0.3-0.3-0.4c-0.1-0.1-0.1-0.2-0.1-0.3c0-0.1,0.1-0.2,0.2-0.3l0.4-0.2c0,0,0,0,0,0h-1.5c-0.1,0-0.3,0-0.3-0.1
			c-0.1-0.1-0.1-0.2-0.1-0.3v-0.1c0-0.1,0-0.3,0.1-0.3c0.1-0.1,0.2-0.1,0.3-0.1h4c0,0,0.1,0,0.1-0.1v-0.1c0,0,0-0.1-0.1-0.1
			c-2.2,0.1-3.4,0.1-3.8,0.1c-0.1,0-0.3,0-0.4-0.1c-0.1-0.1-0.2-0.2-0.2-0.3l0-0.1c0-0.1,0-0.2,0.1-0.3c0.1-0.1,0.2-0.1,0.3-0.1
			c0.1,0,0.4,0,1,0c0.6,0,1.1,0,1.4,0c0,0,0.1,0,0.1-0.1v-0.2c0,0,0-0.1-0.1-0.1h-2.1c-0.1,0-0.2,0-0.3-0.1
			c-0.1-0.1-0.1-0.2-0.1-0.3v-1.9c0-0.1,0-0.3,0.1-0.3c0.1-0.1,0.2-0.1,0.3-0.1h2.1c0,0,0.1,0,0.1-0.1v-0.2c0,0,0-0.1-0.1-0.1h-2.4
			c-0.1,0-0.3,0-0.3-0.1c-0.1-0.1-0.1-0.2-0.1-0.3v-0.1c0-0.1,0-0.2,0.1-0.3c0.1-0.1,0.2-0.1,0.3-0.1h2.4c0,0,0,0,0-0.1
			c0-0.1,0-0.2,0.1-0.3c0.1-0.1,0.2-0.1,0.3-0.1h0.9c0.1,0,0.2,0,0.3,0.1c0.1,0.1,0.1,0.2,0.1,0.3c0,0,0,0.1,0.1,0.1h2.4
			c0.1,0,0.3,0,0.3,0.1c0.1,0.1,0.1,0.2,0.1,0.3v0.1c0,0.1,0,0.3-0.1,0.3c-0.1,0.1-0.2,0.1-0.3,0.1h-2.4c0,0-0.1,0-0.1,0.1v0.2
			c0,0,0,0.1,0.1,0.1h2.1c0.1,0,0.3,0,0.3,0.1c0.1,0.1,0.1,0.2,0.1,0.3v2c0,0.1,0,0.2-0.1,0.3c-0.1,0.1-0.2,0.1-0.3,0.1c0,0,0,0,0,0
			C154.6,173.1,154.8,173.2,155,173.4z M149.5,170.7C149.4,170.7,149.4,170.8,149.5,170.7l-0.1,0.2c0,0,0,0.1,0.1,0.1h1
			c0,0,0.1,0,0.1-0.1v-0.2c0,0,0-0.1-0.1-0.1H149.5z M149.4,172C149.4,172.1,149.4,172.1,149.4,172l1.1,0.1c0,0,0.1,0,0.1-0.1v-0.2
			c0,0,0-0.1-0.1-0.1h-1c0,0-0.1,0-0.1,0.1V172z M153.3,170.8C153.3,170.8,153.3,170.7,153.3,170.8l-1-0.1c0,0-0.1,0-0.1,0.1v0.2
			c0,0,0,0.1,0.1,0.1h1c0,0,0.1,0,0.1-0.1V170.8z M153.3,171.8C153.3,171.8,153.3,171.8,153.3,171.8l-1-0.1c0,0-0.1,0-0.1,0.1v0.2
			c0,0,0,0.1,0.1,0.1h1c0,0,0.1,0,0.1-0.1V171.8z M153.3,172.9C153.3,172.9,153.3,172.9,153.3,172.9l-1.1,0c0,0-0.1,0-0.1,0.1v0.2
			c0,0,0,0.1,0.1,0.1l0.7,0v0c0,0,0,0,0,0L153.3,172.9z M153.7,174C153.7,174,153.7,174.1,153.7,174l-0.1,0.3c0,0,0,0.1,0.1,0.1h0.4
			c0,0,0,0,0,0c0,0,0,0,0,0c-0.1-0.1-0.2-0.2-0.2-0.2C153.9,174,153.8,174,153.7,174L153.7,174z"/>
	</g>
</g>
<g>
	<g>
		<path d="M218.7,163.3c-0.1,0-0.3,0-0.3-0.1c-0.1-0.1-0.1-0.2-0.1-0.3v-0.5c0-0.3,0.1-0.6,0.4-0.8c1.3-1.2,2.3-2.3,3-3.1
			c0.7-0.9,1-1.6,1-2.3c0-0.5-0.1-0.8-0.4-1.1c-0.2-0.3-0.6-0.4-1-0.4c-0.5,0-0.9,0.2-1.4,0.7c-0.1,0.1-0.2,0.1-0.3,0.1
			c-0.1,0-0.2,0-0.3-0.1l-0.7-0.7c-0.1-0.1-0.2-0.2-0.2-0.3c0-0.1,0-0.2,0.2-0.3c0.5-0.4,0.9-0.8,1.4-1c0.5-0.2,1-0.3,1.7-0.3
			c1,0,1.8,0.3,2.5,0.9c0.6,0.6,1,1.4,1,2.4c0,1.5-1,3.2-3.1,5.3c0,0,0,0,0,0c0,0,0,0,0,0c0.7-0.1,1.2-0.1,1.6-0.1h1.4
			c0.1,0,0.3,0,0.3,0.1c0.1,0.1,0.1,0.2,0.1,0.3v1.1c0,0.1,0,0.3-0.1,0.3c-0.1,0.1-0.2,0.1-0.3,0.1H218.7z"/>
	</g>
	<g>
		<path d="M233.1,162c-0.7,0.9-1.6,1.4-2.7,1.4c-1.1,0-2-0.5-2.7-1.4c-0.7-0.9-1-2.3-1-4s0.3-3.1,1-4c0.7-0.9,1.6-1.4,2.7-1.4
			c1.1,0,2,0.5,2.7,1.4c0.7,0.9,1,2.2,1,4C234.1,159.8,233.7,161.1,233.1,162z M229.8,161.4c0.2,0.1,0.3,0.2,0.5,0.2
			c0.2,0,0.4-0.1,0.5-0.2c0.2-0.1,0.3-0.3,0.4-0.5c0.1-0.3,0.2-0.6,0.3-1.1c0.1-0.5,0.1-1.1,0.1-1.8c0-0.7,0-1.3-0.1-1.7
			c-0.1-0.5-0.2-0.8-0.3-1.1c-0.1-0.2-0.3-0.4-0.4-0.5c-0.2-0.1-0.3-0.1-0.5-0.1c-0.2,0-0.4,0-0.5,0.1c-0.1,0.1-0.3,0.3-0.4,0.5
			c-0.1,0.2-0.2,0.6-0.3,1.1c-0.1,0.5-0.1,1-0.1,1.7c0,0.7,0,1.3,0.1,1.8c0.1,0.5,0.2,0.8,0.3,1.1
			C229.5,161.1,229.7,161.3,229.8,161.4z"/>
	</g>
	<g>
		<path d="M236.2,163.3c-0.1,0-0.2,0-0.3-0.1c-0.1-0.1-0.1-0.2-0.1-0.3v-1c0-0.1,0-0.2,0.1-0.3c0.1-0.1,0.2-0.1,0.3-0.1h1.7
			c0,0,0.1,0,0.1-0.1v-5.8c0,0,0-0.1-0.1-0.1h-1.4c-0.1,0-0.3,0-0.3-0.1c-0.1-0.1-0.1-0.2-0.1-0.3v-0.6c0-0.1,0-0.3,0.1-0.4
			c0.1-0.1,0.2-0.2,0.3-0.2c0.6-0.1,1.2-0.3,1.7-0.6c0.3-0.2,0.6-0.2,0.9-0.2h0.9c0.1,0,0.3,0,0.3,0.1c0.1,0.1,0.1,0.2,0.1,0.3v7.8
			c0,0,0,0.1,0.1,0.1h1.3c0.1,0,0.2,0,0.3,0.1c0.1,0.1,0.1,0.2,0.1,0.3v1c0,0.1,0,0.3-0.1,0.3c-0.1,0.1-0.2,0.1-0.3,0.1H236.2z"/>
	</g>
	<g>
		<path d="M250.8,158.8c0.1,0,0.3,0,0.3,0.1c0.1,0.1,0.1,0.2,0.1,0.3v0.9c0,0.1,0,0.3-0.1,0.3c-0.1,0.1-0.2,0.1-0.3,0.1h-0.6
			c0,0-0.1,0-0.1,0.1v2.1c0,0.1,0,0.3-0.1,0.3c-0.1,0.1-0.2,0.1-0.3,0.1h-1.3c-0.1,0-0.3,0-0.3-0.1c-0.1-0.1-0.1-0.2-0.1-0.3v-2.1
			c0,0,0-0.1-0.1-0.1h-3.8c-0.1,0-0.3,0-0.3-0.1c-0.1-0.1-0.1-0.2-0.1-0.3v-0.8c0-0.3,0.1-0.6,0.2-0.9l3.1-5.2
			c0.2-0.3,0.4-0.4,0.7-0.4h2.1c0.1,0,0.3,0,0.3,0.1c0.1,0.1,0.1,0.2,0.1,0.3v5.4c0,0,0,0.1,0.1,0.1H250.8z M245.9,158.7
			C245.8,158.8,245.9,158.8,245.9,158.7l1.9,0.1c0,0,0.1,0,0.1-0.1v-1.5c0,0,0-0.8,0.1-2.3c0,0,0,0,0,0s0,0,0,0
			c-0.3,0.7-0.6,1.3-0.8,1.8L245.9,158.7z"/>
	</g>
	<g>
		<path d="M220.1,169.5c0,0.1,0,0.2-0.1,0.3s-0.2,0.1-0.3,0.1h-0.3c0,0-0.1,0-0.1,0.1c-0.3,2.1-0.8,3.8-1.4,5.1c0,0,0,0.1,0,0.1
			c0.6,0.7,1.2,1.2,2,1.7c0.1,0.1,0.2,0.2,0.2,0.3c0,0.1,0,0.2-0.1,0.3c-0.3,0.3-0.5,0.6-0.8,1c-0.1,0.1-0.2,0.2-0.3,0.2
			c-0.1,0-0.3,0-0.4,0c-0.7-0.4-1.3-1-1.9-1.6c0,0-0.1,0-0.1,0c-0.6,0.6-1.3,1.2-2.2,1.7c-0.1,0-0.1,0.1-0.2,0.1c-0.1,0-0.1,0-0.2,0
			c-0.1,0-0.2-0.1-0.3-0.2c-0.2-0.3-0.4-0.7-0.6-1c-0.1-0.1-0.1-0.2-0.1-0.3c0-0.1,0.1-0.2,0.2-0.3c0.9-0.4,1.6-1,2.2-1.7
			c0,0,0-0.1,0-0.1c-0.4-0.7-0.7-1.6-1-2.6c0,0,0,0,0,0c0,0,0,0,0,0c-0.1,0.1-0.1,0.1-0.2,0.1c-0.1,0-0.2,0-0.2-0.1
			c-0.2-0.2-0.4-0.4-0.7-0.7c0,0,0,0,0,0c0,0,0,0,0,0c0,0.1,0,0.2-0.1,0.3c-0.1,0.1-0.2,0.1-0.3,0.1h-1c0,0-0.1,0-0.1,0.1v2.4
			c0,0,0,0,0.1,0l1.2-0.2c0.1,0,0.2,0,0.3,0.1c0.1,0.1,0.2,0.2,0.2,0.3l0.1,0.9c0,0.1,0,0.3-0.1,0.4c-0.1,0.1-0.2,0.2-0.3,0.2
			c-1.5,0.3-3.4,0.7-5.7,1.2c-0.1,0-0.3,0-0.4-0.1c-0.1-0.1-0.2-0.2-0.2-0.3l-0.2-1.1c0,0,0-0.1,0-0.1c0-0.1,0-0.2,0.1-0.3
			c0.1-0.1,0.2-0.2,0.3-0.2l0.2,0c0,0,0.1,0,0.1-0.1v-5.3c0-0.1,0-0.3,0.1-0.3c0.1-0.1,0.2-0.1,0.3-0.1h0.8c0.1,0,0.3,0,0.3,0.1
			c0.1,0.1,0.1,0.2,0.1,0.3v5c0,0,0,0,0.1,0l0.5-0.1c0,0,0.1,0,0.1-0.1v-6.7c0,0,0-0.1-0.1-0.1h-2.2c-0.1,0-0.2,0-0.3-0.1
			c-0.1-0.1-0.1-0.2-0.1-0.3v-1c0-0.1,0-0.2,0.1-0.3c0.1-0.1,0.2-0.1,0.3-0.1h5.5c0.1,0,0.3,0,0.3,0.1c0.1,0.1,0.1,0.2,0.1,0.3v1
			c0,0.1,0,0.2-0.1,0.3c-0.1,0.1-0.2,0.1-0.3,0.1h-1.2c0,0-0.1,0-0.1,0.1v2c0,0,0,0.1,0.1,0.1h1.1c0.1,0,0.1,0,0.2,0.1
			c0,0,0.1,0.1,0.1,0.2h0c0.7-1.1,1.2-2.7,1.5-4.6c0-0.1,0.1-0.2,0.2-0.3c0.1-0.1,0.2-0.1,0.3-0.1c0,0,0.1,0,0.1,0l1.1,0.2
			c0.1,0,0.2,0.1,0.3,0.2c0.1,0.1,0.1,0.2,0.1,0.4c-0.1,0.6-0.2,1.2-0.4,1.7c0,0,0,0.1,0,0.1h3.3c0.1,0,0.3,0,0.3,0.1
			c0.1,0.1,0.1,0.2,0.1,0.3V169.5z M215.7,170C215.7,170,215.7,170,215.7,170L215.7,170c-0.1,0.1-0.1,0.2-0.1,0.2
			c0.2,1,0.5,2,0.8,2.8c0,0,0,0,0,0c0,0,0,0,0,0c0.3-0.8,0.5-1.8,0.7-3c0,0,0-0.1-0.1-0.1H215.7z"/>
	</g>
	<g>
		<path d="M221.4,166.4c0-0.1,0-0.3,0.1-0.3c0.1-0.1,0.2-0.1,0.3-0.1H233c0.1,0,0.3,0,0.3,0.1c0.1,0.1,0.1,0.2,0.1,0.3v12
			c0,0.1,0,0.2-0.1,0.3c-0.1,0.1-0.2,0.1-0.3,0.1h-1c-0.1,0-0.3,0-0.3-0.1c-0.1-0.1-0.1-0.2-0.1-0.3v-0.1c0,0,0-0.1-0.1-0.1h-8.2
			c0,0-0.1,0-0.1,0.1v0.1c0,0.1,0,0.2-0.1,0.3c-0.1,0.1-0.2,0.1-0.3,0.1h-0.9c-0.1,0-0.3,0-0.3-0.1c-0.1-0.1-0.1-0.2-0.1-0.3V166.4z
			 M223.2,176.6C223.2,176.7,223.3,176.7,223.2,176.6l8.3,0.1c0,0,0.1,0,0.1-0.1v-9.1c0,0,0-0.1-0.1-0.1h-8.2c0,0-0.1,0-0.1,0.1
			V176.6z M231,172.9c0.1,0.1,0.1,0.2,0.1,0.3c0,0.1-0.1,0.2-0.2,0.3l-0.3,0.2c0,0,0,0,0,0c0,0,0,0,0,0h0.2c0.1,0,0.3,0,0.3,0.1
			c0.1,0.1,0.1,0.2,0.1,0.3v0.1c0,0.1,0,0.2-0.1,0.3c-0.1,0.1-0.2,0.1-0.3,0.1h-1.1c0,0-0.1,0-0.1,0.1v0.6c0,0.3,0,0.5-0.1,0.6
			c-0.1,0.1-0.2,0.2-0.4,0.3c-0.3,0.1-0.7,0.1-1.3,0.1c-0.1,0-0.3,0-0.4-0.1c-0.1-0.1-0.2-0.2-0.3-0.3c0,0,0,0,0-0.1
			c0-0.1,0-0.2,0-0.3c0.1-0.1,0.2-0.1,0.3-0.1c0.1,0,0.2,0,0.4,0c0.1,0,0.2-0.1,0.2-0.2v-0.5c0,0,0-0.1-0.1-0.1h-1.9c0,0,0,0,0,0.1
			c0.2,0.2,0.3,0.4,0.4,0.5c0.1,0.1,0.1,0.2,0.1,0.3c0,0.1-0.1,0.2-0.2,0.3l-0.5,0.2c-0.1,0.1-0.3,0.1-0.4,0c-0.1,0-0.2-0.1-0.3-0.2
			c-0.1-0.1-0.2-0.3-0.3-0.4c-0.1-0.1-0.1-0.2-0.1-0.3c0-0.1,0.1-0.2,0.2-0.3l0.4-0.2c0,0,0,0,0,0h-1.5c-0.1,0-0.3,0-0.3-0.1
			c-0.1-0.1-0.1-0.2-0.1-0.3v-0.1c0-0.1,0-0.3,0.1-0.3c0.1-0.1,0.2-0.1,0.3-0.1h4c0,0,0.1,0,0.1-0.1v-0.1c0,0,0-0.1-0.1-0.1
			c-2.2,0.1-3.4,0.1-3.8,0.1c-0.1,0-0.3,0-0.4-0.1c-0.1-0.1-0.2-0.2-0.2-0.3l0-0.1c0-0.1,0-0.2,0.1-0.3c0.1-0.1,0.2-0.1,0.3-0.1
			c0.1,0,0.4,0,1,0c0.6,0,1.1,0,1.4,0c0,0,0.1,0,0.1-0.1v-0.2c0,0,0-0.1-0.1-0.1h-2.1c-0.1,0-0.2,0-0.3-0.1
			c-0.1-0.1-0.1-0.2-0.1-0.3v-1.9c0-0.1,0-0.3,0.1-0.3c0.1-0.1,0.2-0.1,0.3-0.1h2.1c0,0,0.1,0,0.1-0.1v-0.2c0,0,0-0.1-0.1-0.1h-2.4
			c-0.1,0-0.3,0-0.3-0.1c-0.1-0.1-0.1-0.2-0.1-0.3v-0.1c0-0.1,0-0.2,0.1-0.3c0.1-0.1,0.2-0.1,0.3-0.1h2.4c0,0,0,0,0-0.1
			c0-0.1,0-0.2,0.1-0.3c0.1-0.1,0.2-0.1,0.3-0.1h0.9c0.1,0,0.2,0,0.3,0.1c0.1,0.1,0.1,0.2,0.1,0.3c0,0,0,0.1,0.1,0.1h2.4
			c0.1,0,0.3,0,0.3,0.1c0.1,0.1,0.1,0.2,0.1,0.3v0.1c0,0.1,0,0.3-0.1,0.3c-0.1,0.1-0.2,0.1-0.3,0.1h-2.4c0,0-0.1,0-0.1,0.1v0.2
			c0,0,0,0.1,0.1,0.1h2.1c0.1,0,0.3,0,0.3,0.1c0.1,0.1,0.1,0.2,0.1,0.3v2c0,0.1,0,0.2-0.1,0.3c-0.1,0.1-0.2,0.1-0.3,0.1c0,0,0,0,0,0
			C230.6,172.5,230.8,172.7,231,172.9z M225.5,170.2C225.4,170.2,225.4,170.2,225.5,170.2l-0.1,0.2c0,0,0,0.1,0.1,0.1h1
			c0,0,0.1,0,0.1-0.1v-0.2c0,0,0-0.1-0.1-0.1H225.5z M225.4,171.5C225.4,171.5,225.4,171.6,225.4,171.5l1.1,0.1c0,0,0.1,0,0.1-0.1
			v-0.2c0,0,0-0.1-0.1-0.1h-1c0,0-0.1,0-0.1,0.1V171.5z M229.3,170.3C229.3,170.2,229.3,170.2,229.3,170.3l-1-0.1c0,0-0.1,0-0.1,0.1
			v0.2c0,0,0,0.1,0.1,0.1h1c0,0,0.1,0,0.1-0.1V170.3z M229.3,171.3C229.3,171.3,229.3,171.2,229.3,171.3l-1-0.1c0,0-0.1,0-0.1,0.1
			v0.2c0,0,0,0.1,0.1,0.1h1c0,0,0.1,0,0.1-0.1V171.3z M229.3,172.4C229.3,172.3,229.3,172.3,229.3,172.4l-1.1,0c0,0-0.1,0-0.1,0.1
			v0.2c0,0,0,0.1,0.1,0.1l0.7,0v0c0,0,0,0,0,0L229.3,172.4z M229.7,173.5C229.7,173.5,229.7,173.5,229.7,173.5l-0.1,0.3
			c0,0,0,0.1,0.1,0.1h0.4c0,0,0,0,0,0c0,0,0,0,0,0c-0.1-0.1-0.2-0.2-0.2-0.2C229.9,173.5,229.8,173.5,229.7,173.5L229.7,173.5z"/>
	</g>
	<g>
		<path d="M245,170.5c0-0.1,0.1-0.2,0.2-0.3c0.1-0.1,0.2-0.1,0.4-0.1l1.1,0.3c0.1,0,0.2,0.1,0.3,0.2c0.1,0.1,0.1,0.2,0,0.4
			c-0.6,1.6-1.3,3.1-2.2,4.4c0,0,0,0.1,0,0.1c0.3,0.8,0.6,1.2,1,1.2c0.2,0,0.4-0.6,0.5-1.9c0-0.1,0-0.2,0.1-0.2c0.1,0,0.2,0,0.2,0
			c0.3,0.2,0.6,0.5,0.9,0.6c0.1,0.1,0.2,0.2,0.3,0.3c0.1,0.1,0.1,0.2,0.1,0.3c0,0,0,0.1,0,0.1c-0.1,0.8-0.3,1.3-0.5,1.8
			c-0.2,0.4-0.4,0.7-0.7,0.8c-0.3,0.1-0.7,0.2-1.2,0.2c-0.9,0-1.6-0.5-2.2-1.6c0,0-0.1,0-0.1,0c-0.5,0.5-1,0.9-1.6,1.3
			c-0.1,0.1-0.2,0.1-0.4,0.1c-0.1,0-0.2-0.1-0.3-0.2c-0.3-0.3-0.5-0.6-0.8-1c-0.1-0.1-0.1-0.2-0.1-0.3c0-0.1,0.1-0.2,0.2-0.3
			c0.8-0.5,1.6-1.1,2.2-1.8c0,0,0-0.1,0-0.1c-0.4-1.4-0.7-3.2-0.9-5.4c0,0,0-0.1-0.1-0.1H238c0,0-0.1,0-0.1,0.1v1.2
			c0,0,0,0.1,0.1,0.1h2.9c0.1,0,0.3,0,0.3,0.1c0.1,0.1,0.1,0.2,0.1,0.3c0,0.1,0,0.2,0,0.2c0,1.5-0.1,2.6-0.1,3.3
			c-0.1,0.7-0.2,1.1-0.3,1.3c-0.2,0.3-0.6,0.5-1.1,0.6c-0.2,0-0.6,0.1-1.1,0.1c-0.1,0-0.3,0-0.4-0.1c-0.1-0.1-0.2-0.2-0.2-0.3
			c-0.1-0.5-0.2-0.9-0.4-1.3c0,0,0,0,0,0c0,0,0,0,0,0c-0.2,1.5-0.5,2.7-1,3.6c-0.1,0.1-0.2,0.2-0.3,0.2c0,0,0,0-0.1,0
			c-0.1,0-0.2,0-0.3-0.1c-0.3-0.3-0.6-0.6-1-0.8c-0.1-0.1-0.2-0.2-0.2-0.3c0-0.1,0-0.1,0-0.2c0-0.1,0-0.2,0.1-0.2
			c0.2-0.5,0.4-1.1,0.6-1.8c0.1-0.7,0.2-1.3,0.2-1.9c0-0.5,0-1.1,0-1.9V168c0-0.1,0-0.2,0.1-0.3c0.1-0.1,0.2-0.1,0.3-0.1h5.1
			c0,0,0.1,0,0.1-0.1c0-0.5,0-0.9,0-1.4c0-0.1,0-0.3,0.1-0.3c0.1-0.1,0.2-0.1,0.3-0.1h1.2c0.1,0,0.3,0,0.3,0.1
			c0.1,0.1,0.1,0.2,0.1,0.3c0,0.1,0,0.2,0,0.3c0,0.4,0,0.7,0,1.1c0,0,0,0.1,0.1,0.1h1.5c0,0,0,0,0,0c0,0,0,0,0,0
			c-0.3-0.2-0.6-0.4-0.9-0.7c-0.1-0.1-0.2-0.2-0.2-0.3c0-0.1,0-0.2,0.1-0.3l0.5-0.5c0.1-0.1,0.2-0.2,0.4-0.2c0,0,0.1,0,0.1,0
			c0.1,0,0.2,0,0.3,0.1c0.5,0.3,1,0.6,1.4,0.9c0.1,0.1,0.2,0.2,0.2,0.3c0,0.1,0,0.2-0.1,0.3l-0.3,0.3c0,0,0,0,0,0c0,0,0,0,0,0h0.9
			c0.1,0,0.2,0,0.3,0.1c0.1,0.1,0.1,0.2,0.1,0.3v1c0,0.1,0,0.2-0.1,0.3c-0.1,0.1-0.2,0.1-0.3,0.1h-3.7c0,0-0.1,0-0.1,0.1
			c0.1,1.1,0.2,2.1,0.4,3.1c0,0,0,0,0,0c0,0,0,0,0,0C244.5,172,244.8,171.3,245,170.5z M239.3,172.8
			C239.3,172.7,239.3,172.7,239.3,172.8l-1.4-0.1c0,0-0.1,0-0.1,0.1c0,0.7-0.1,1.5-0.2,2.1c0,0,0,0.1,0.1,0.1c0.4,0,0.7,0.1,0.9,0.1
			c0.2,0,0.3-0.1,0.4-0.2C239.3,174.7,239.3,174,239.3,172.8z"/>
	</g>
	<g>
		<path d="M258.2,176C258.1,176,258.2,176,258.2,176l3.2,0.1c0.1,0,0.3,0,0.3,0.1s0.1,0.2,0.1,0.3v1.1c0,0.1,0,0.2-0.1,0.3
			s-0.2,0.1-0.3,0.1h-11.9c-0.1,0-0.2,0-0.3-0.1c-0.1-0.1-0.1-0.2-0.1-0.3v-1.1c0-0.1,0-0.3,0.1-0.3c0.1-0.1,0.2-0.1,0.3-0.1h6.4
			c0,0,0.1,0,0.1-0.1c0.6-1.7,1.1-3.6,1.3-5.6c0-0.1,0.1-0.2,0.2-0.3c0.1-0.1,0.2-0.1,0.3-0.1c0,0,0.1,0,0.1,0l1.4,0.2
			c0.1,0,0.2,0.1,0.3,0.2c0.1,0.1,0.1,0.2,0.1,0.4C259.2,172.7,258.7,174.4,258.2,176z M260.9,167.5c0.1,0,0.3,0,0.3,0.1
			s0.1,0.2,0.1,0.3v1c0,0.1,0,0.2-0.1,0.3s-0.2,0.1-0.3,0.1h-11c-0.1,0-0.3,0-0.3-0.1c-0.1-0.1-0.1-0.2-0.1-0.3v-1
			c0-0.1,0-0.3,0.1-0.3c0.1-0.1,0.2-0.1,0.3-0.1h4.3c0,0,0.1,0,0.1-0.1v-1.8c0-0.1,0-0.2,0.1-0.3c0.1-0.1,0.2-0.1,0.3-0.1h1.2
			c0.1,0,0.2,0,0.3,0.1c0.1,0.1,0.1,0.2,0.1,0.3v1.8c0,0,0,0.1,0.1,0.1H260.9z M254.4,174.7c0,0.1,0,0.3-0.1,0.4
			c-0.1,0.1-0.2,0.2-0.3,0.2l-1.2,0.3c-0.1,0-0.2,0-0.3-0.1c-0.1-0.1-0.2-0.2-0.2-0.3c-0.1-1.3-0.5-2.7-1-4.3c0-0.1,0-0.2,0-0.4
			c0.1-0.1,0.2-0.2,0.3-0.2l1-0.3c0.1,0,0.3,0,0.4,0c0.1,0.1,0.2,0.2,0.3,0.3C253.9,171.9,254.2,173.3,254.4,174.7z"/>
	</g>
</g>
<g>
	<g>
		<path d="M321.1,163.3c-0.1,0-0.3,0-0.3-0.1c-0.1-0.1-0.1-0.2-0.1-0.3v-0.5c0-0.3,0.1-0.6,0.4-0.8c1.3-1.2,2.3-2.3,3-3.1
			c0.7-0.9,1-1.6,1-2.3c0-0.5-0.1-0.8-0.4-1.1c-0.2-0.3-0.6-0.4-1-0.4c-0.5,0-0.9,0.2-1.4,0.7c-0.1,0.1-0.2,0.1-0.3,0.1
			c-0.1,0-0.2,0-0.3-0.1l-0.7-0.7c-0.1-0.1-0.2-0.2-0.2-0.3c0-0.1,0-0.2,0.2-0.3c0.5-0.4,0.9-0.8,1.4-1c0.5-0.2,1-0.3,1.7-0.3
			c1,0,1.8,0.3,2.5,0.9c0.6,0.6,1,1.4,1,2.4c0,1.5-1,3.2-3.1,5.3c0,0,0,0,0,0c0,0,0,0,0,0c0.7-0.1,1.2-0.1,1.6-0.1h1.4
			c0.1,0,0.3,0,0.3,0.1c0.1,0.1,0.1,0.2,0.1,0.3v1.1c0,0.1,0,0.3-0.1,0.3c-0.1,0.1-0.2,0.1-0.3,0.1H321.1z"/>
	</g>
	<g>
		<path d="M335.5,162c-0.7,0.9-1.6,1.4-2.7,1.4s-2-0.5-2.7-1.4c-0.7-0.9-1-2.3-1-4s0.3-3.1,1-4c0.7-0.9,1.6-1.4,2.7-1.4
			c1.1,0,2,0.5,2.7,1.4c0.7,0.9,1,2.2,1,4C336.5,159.8,336.1,161.1,335.5,162z M332.2,161.4c0.2,0.1,0.3,0.2,0.5,0.2
			s0.4-0.1,0.5-0.2c0.2-0.1,0.3-0.3,0.4-0.5c0.1-0.3,0.2-0.6,0.3-1.1c0.1-0.5,0.1-1.1,0.1-1.8c0-0.7,0-1.3-0.1-1.7
			c-0.1-0.5-0.2-0.8-0.3-1.1c-0.1-0.2-0.3-0.4-0.4-0.5c-0.2-0.1-0.3-0.1-0.5-0.1s-0.4,0-0.5,0.1c-0.1,0.1-0.3,0.3-0.4,0.5
			c-0.1,0.2-0.2,0.6-0.3,1.1c-0.1,0.5-0.1,1-0.1,1.7c0,0.7,0,1.3,0.1,1.8c0.1,0.5,0.2,0.8,0.3,1.1
			C331.9,161.1,332.1,161.3,332.2,161.4z"/>
	</g>
	<g>
		<path d="M338.6,163.3c-0.1,0-0.2,0-0.3-0.1c-0.1-0.1-0.1-0.2-0.1-0.3v-1c0-0.1,0-0.2,0.1-0.3c0.1-0.1,0.2-0.1,0.3-0.1h1.7
			c0,0,0.1,0,0.1-0.1v-5.8c0,0,0-0.1-0.1-0.1h-1.4c-0.1,0-0.3,0-0.3-0.1c-0.1-0.1-0.1-0.2-0.1-0.3v-0.6c0-0.1,0-0.3,0.1-0.4
			c0.1-0.1,0.2-0.2,0.3-0.2c0.6-0.1,1.2-0.3,1.7-0.6c0.3-0.2,0.6-0.2,0.9-0.2h0.9c0.1,0,0.3,0,0.3,0.1c0.1,0.1,0.1,0.2,0.1,0.3v7.8
			c0,0,0,0.1,0.1,0.1h1.3c0.1,0,0.2,0,0.3,0.1c0.1,0.1,0.1,0.2,0.1,0.3v1c0,0.1,0,0.3-0.1,0.3c-0.1,0.1-0.2,0.1-0.3,0.1H338.6z"/>
	</g>
	<g>
		<path d="M353,153.6c0.1,0.1,0.2,0.2,0.2,0.3c0,0.1,0,0.3-0.1,0.4l-0.7,0.8c-0.1,0.1-0.2,0.2-0.3,0.2c-0.1,0-0.3,0-0.4-0.1
			c-0.4-0.3-0.8-0.4-1.2-0.4c-1.2,0-1.9,1-2,3c0,0,0,0,0,0c0,0,0,0,0,0c0.2-0.3,0.6-0.5,0.9-0.7c0.4-0.2,0.7-0.3,1-0.3
			c0.9,0,1.7,0.3,2.2,0.8c0.6,0.5,0.8,1.4,0.8,2.4c0,1.1-0.3,1.9-1,2.6c-0.7,0.6-1.5,1-2.4,1c-0.5,0-1-0.1-1.4-0.3
			c-0.5-0.2-0.9-0.5-1.2-0.9c-0.4-0.4-0.7-1-0.9-1.7c-0.2-0.7-0.3-1.5-0.3-2.4c0-0.9,0.1-1.7,0.3-2.4c0.2-0.7,0.5-1.3,0.9-1.7
			c0.4-0.4,0.8-0.8,1.3-1c0.5-0.2,1-0.3,1.6-0.3C351.4,152.7,352.3,153,353,153.6z M350,161.6c0.3,0,0.6-0.1,0.9-0.4
			c0.2-0.3,0.3-0.7,0.3-1.3c0-1-0.4-1.5-1.2-1.5c-0.6,0-1.1,0.3-1.4,0.9c0,0,0,0.1,0,0.1C348.7,160.9,349.2,161.6,350,161.6z"/>
	</g>
	<g>
		<path d="M322.1,169c0,0.1,0,0.2-0.1,0.3c-0.1,0.1-0.2,0.1-0.3,0.1h-0.3c0,0-0.1,0-0.1,0.1c-0.3,2.1-0.8,3.8-1.4,5.1
			c0,0,0,0.1,0,0.1c0.6,0.7,1.2,1.2,2,1.7c0.1,0.1,0.2,0.2,0.2,0.3c0,0.1,0,0.2-0.1,0.3c-0.3,0.3-0.5,0.6-0.8,1
			c-0.1,0.1-0.2,0.2-0.3,0.2c-0.1,0-0.3,0-0.4,0c-0.7-0.4-1.3-1-1.9-1.6c0,0-0.1,0-0.1,0c-0.6,0.6-1.3,1.2-2.2,1.7
			c-0.1,0-0.1,0.1-0.2,0.1c-0.1,0-0.1,0-0.2,0c-0.1,0-0.2-0.1-0.3-0.2c-0.2-0.3-0.4-0.7-0.6-1c-0.1-0.1-0.1-0.2-0.1-0.3
			c0-0.1,0.1-0.2,0.2-0.3c0.9-0.4,1.6-1,2.2-1.7c0,0,0-0.1,0-0.1c-0.4-0.7-0.7-1.6-1-2.6c0,0,0,0,0,0c0,0,0,0,0,0
			c-0.1,0.1-0.1,0.1-0.2,0.1c-0.1,0-0.2,0-0.2-0.1c-0.2-0.2-0.4-0.4-0.7-0.7c0,0,0,0,0,0c0,0,0,0,0,0c0,0.1,0,0.2-0.1,0.3
			c-0.1,0.1-0.2,0.1-0.3,0.1h-1c0,0-0.1,0-0.1,0.1v2.4c0,0,0,0,0.1,0l1.2-0.2c0.1,0,0.2,0,0.3,0.1c0.1,0.1,0.2,0.2,0.2,0.3l0.1,0.9
			c0,0.1,0,0.3-0.1,0.4c-0.1,0.1-0.2,0.2-0.3,0.2c-1.5,0.3-3.4,0.7-5.7,1.2c-0.1,0-0.3,0-0.4-0.1c-0.1-0.1-0.2-0.2-0.2-0.3l-0.2-1.1
			c0,0,0-0.1,0-0.1c0-0.1,0-0.2,0.1-0.3c0.1-0.1,0.2-0.2,0.3-0.2l0.2,0c0,0,0.1,0,0.1-0.1v-5.3c0-0.1,0-0.3,0.1-0.3
			c0.1-0.1,0.2-0.1,0.3-0.1h0.8c0.1,0,0.3,0,0.3,0.1c0.1,0.1,0.1,0.2,0.1,0.3v5c0,0,0,0,0.1,0l0.5-0.1c0,0,0.1,0,0.1-0.1v-6.7
			c0,0,0-0.1-0.1-0.1h-2.2c-0.1,0-0.2,0-0.3-0.1c-0.1-0.1-0.1-0.2-0.1-0.3v-1c0-0.1,0-0.2,0.1-0.3c0.1-0.1,0.2-0.1,0.3-0.1h5.5
			c0.1,0,0.3,0,0.3,0.1c0.1,0.1,0.1,0.2,0.1,0.3v1c0,0.1,0,0.2-0.1,0.3c-0.1,0.1-0.2,0.1-0.3,0.1h-1.2c0,0-0.1,0-0.1,0.1v2
			c0,0,0,0.1,0.1,0.1h1.1c0.1,0,0.1,0,0.2,0.1c0,0,0.1,0.1,0.1,0.2h0c0.7-1.1,1.2-2.7,1.5-4.6c0-0.1,0.1-0.2,0.2-0.3
			c0.1-0.1,0.2-0.1,0.3-0.1c0,0,0.1,0,0.1,0l1.1,0.2c0.1,0,0.2,0.1,0.3,0.2c0.1,0.1,0.1,0.2,0.1,0.4c-0.1,0.6-0.2,1.2-0.4,1.7
			c0,0,0,0.1,0,0.1h3.3c0.1,0,0.3,0,0.3,0.1c0.1,0.1,0.1,0.2,0.1,0.3V169z M317.7,169.5C317.7,169.5,317.7,169.5,317.7,169.5
			L317.7,169.5c-0.1,0.1-0.1,0.2-0.1,0.2c0.2,1,0.5,2,0.8,2.8c0,0,0,0,0,0c0,0,0,0,0,0c0.3-0.8,0.5-1.8,0.7-3c0,0,0-0.1-0.1-0.1
			H317.7z"/>
	</g>
	<g>
		<path d="M335.7,175.6c0,0.1,0,0.2-0.1,0.3c-0.1,0.1-0.2,0.1-0.3,0.1h-10.3c0,0,0,0,0,0c0,0,0,0,0,0l1.2,0.3c0.1,0,0.2,0.1,0.2,0.2
			c0,0.1,0,0.2,0,0.3c-0.3,0.4-0.7,0.8-1.1,1.1c-0.1,0.1-0.3,0.2-0.5,0.2c-0.1,0-0.2,0-0.4-0.1l-0.9-0.4c-0.1,0-0.1-0.1-0.2-0.2
			c0-0.1,0-0.2,0.1-0.2c0.5-0.4,0.9-0.8,1.2-1.3c0,0,0-0.1,0-0.1h-0.9c-0.1,0-0.3,0-0.3-0.1c-0.1-0.1-0.1-0.2-0.1-0.3v-0.2
			c0-0.1,0-0.3,0.1-0.3c0.1-0.1,0.2-0.1,0.3-0.1h4.7c0,0,0.1,0,0.1-0.1v-0.2c0,0,0-0.1-0.1-0.1h-3.7c-0.1,0-0.2,0-0.3-0.1
			c-0.1-0.1-0.1-0.2-0.1-0.3V174c0-0.1,0-0.2,0.1-0.3c0.1-0.1,0.2-0.1,0.3-0.1h3.7c0,0,0.1,0,0.1-0.1v-0.2c0,0,0-0.1-0.1-0.1H325
			c-0.1,0-0.3,0-0.3-0.1c-0.1-0.1-0.1-0.2-0.1-0.3v-2.1c0-0.1,0-0.3,0.1-0.3c0.1-0.1,0.2-0.1,0.3-0.1h9.1c0.1,0,0.3,0,0.3,0.1
			c0.1,0.1,0.1,0.2,0.1,0.3v2.1c0,0.1,0,0.2-0.1,0.3c-0.1,0.1-0.2,0.1-0.3,0.1h-3.7c0,0-0.1,0-0.1,0.1v0.2c0,0,0,0.1,0.1,0.1h4.1
			c0.1,0,0.3,0,0.3,0.1c0.1,0.1,0.1,0.2,0.1,0.3v0.1c0,0.1,0,0.3-0.1,0.3c-0.1,0.1-0.2,0.1-0.3,0.1h-4.1c0,0-0.1,0-0.1,0.1v0.2
			c0,0,0,0.1,0.1,0.1h4.9c0.1,0,0.3,0,0.3,0.1c0.1,0.1,0.1,0.2,0.1,0.3V175.6z M325.3,167.5C325.3,167.5,325.3,167.5,325.3,167.5
			l-0.1,0.8c0,0.1,0,0.3-0.1,0.3c-0.1,0.1-0.2,0.1-0.3,0.1h-0.9c-0.1,0-0.3,0-0.3-0.1c-0.1-0.1-0.1-0.2-0.1-0.3v-1.5
			c0-0.1,0-0.3,0.1-0.3c0.1-0.1,0.2-0.1,0.3-0.1h1.5c0,0,0,0,0-0.1c-0.1-0.1-0.1-0.2-0.2-0.4c-0.1-0.1-0.1-0.2,0-0.3
			c0-0.1,0.1-0.2,0.2-0.2l1-0.2c0.1,0,0.3,0,0.4,0.1c0.1,0.1,0.2,0.1,0.3,0.3c0.2,0.3,0.3,0.5,0.4,0.7c0,0,0,0.1,0.1,0.1h0.7
			c0,0,0.1,0,0.1-0.1v-0.7c0-0.1,0-0.3,0.1-0.3c0.1-0.1,0.2-0.1,0.3-0.1h1.1c0.1,0,0.3,0,0.3,0.1c0.1,0.1,0.1,0.2,0.1,0.3v0.7
			c0,0,0,0.1,0.1,0.1h0.9c0,0,0.1,0,0.1-0.1c0.2-0.3,0.3-0.5,0.4-0.7c0.1-0.1,0.2-0.2,0.3-0.3c0.1-0.1,0.3-0.1,0.4-0.1l1.2,0.2
			c0.1,0,0.2,0.1,0.2,0.2c0,0.1,0,0.2,0,0.3c-0.1,0.1-0.2,0.3-0.3,0.4c0,0,0,0.1,0,0.1h1.4c0.1,0,0.3,0,0.3,0.1
			c0.1,0.1,0.1,0.2,0.1,0.3v1.5c0,0.1,0,0.3-0.1,0.3c-0.1,0.1-0.2,0.1-0.3,0.1h-1c-0.1,0-0.3,0-0.3-0.1s-0.1-0.2-0.1-0.3v-0.7
			c0,0,0-0.1-0.1-0.1H325.3z M333.2,169.3c0,0.1,0,0.3-0.1,0.3c-0.1,0.1-0.2,0.1-0.3,0.1h-6.6c-0.1,0-0.3,0-0.3-0.1
			s-0.1-0.2-0.1-0.3v-1c0-0.1,0-0.3,0.1-0.3s0.2-0.1,0.3-0.1h6.6c0.1,0,0.3,0,0.3,0.1c0.1,0.1,0.1,0.2,0.1,0.3V169.3z M327.6,172.3
			C327.6,172.3,327.6,172.3,327.6,172.3C327.6,172.3,327.6,172.3,327.6,172.3l0.7,0c0,0,0.1,0,0.1-0.1v-1.1c0,0,0-0.1-0.1-0.1h-1.9
			c0,0-0.1,0-0.1,0.1v1.1c0,0,0,0.1,0.1,0.1h0.5c0,0,0.1,0,0-0.1c0-0.1-0.1-0.2-0.1-0.3c-0.1-0.1-0.1-0.2,0-0.4
			c0-0.1,0.1-0.2,0.2-0.3l0.2-0.1c0.1-0.1,0.3-0.1,0.4,0c0.1,0,0.2,0.1,0.3,0.2c0,0,0,0,0.1,0.1c0.1,0.1,0.1,0.2,0,0.4
			c0,0.1-0.1,0.2-0.3,0.3L327.6,172.3z M327.1,177C327.1,177,327,177,327.1,177c0-0.2,0-0.3,0.1-0.3c0.1-0.1,0.2-0.2,0.3-0.2
			l0.9-0.1c0.1,0,0.3,0,0.4,0.1c0.1,0.1,0.2,0.2,0.2,0.3c0.1,0.3,0.1,0.5,0.1,0.8c0,0.1,0,0.2-0.1,0.3c-0.1,0.1-0.2,0.2-0.3,0.2
			l-1,0.1c-0.1,0-0.3,0-0.4-0.1c-0.1-0.1-0.2-0.2-0.2-0.3C327.1,177.5,327.1,177.3,327.1,177z M327.5,168.6
			C327.5,168.6,327.5,168.6,327.5,168.6l-0.1,0.3c0,0,0,0.1,0.1,0.1h3.7c0,0,0.1,0,0.1-0.1v-0.3c0,0,0-0.1-0.1-0.1H327.5z
			 M329.9,177c0,0,0-0.1,0-0.1c0-0.1,0-0.1,0.1-0.2c0.1-0.1,0.2-0.2,0.3-0.2l1-0.1c0.1,0,0.3,0,0.4,0.1c0.1,0.1,0.2,0.2,0.3,0.3
			c0.1,0.3,0.2,0.5,0.3,0.7c0,0.1,0,0.2,0,0.3c-0.1,0.1-0.2,0.2-0.3,0.2l-1.1,0.2c-0.1,0-0.3,0-0.4-0.1c-0.1-0.1-0.2-0.2-0.2-0.3
			C330.1,177.5,330,177.3,329.9,177z M332.6,171.1C332.6,171,332.6,171,332.6,171.1l-2.2-0.1c0,0-0.1,0-0.1,0.1v1.1
			c0,0,0,0.1,0.1,0.1h0.6c0,0,0,0,0,0l-0.1-0.1c-0.1,0-0.2-0.1-0.2-0.3c0-0.1,0-0.2,0-0.3c0-0.1,0.1-0.1,0.1-0.2
			c0.1-0.1,0.2-0.2,0.3-0.3c0.1,0,0.3-0.1,0.4,0l0.4,0.1c0.1,0,0.2,0.1,0.2,0.2c0,0.1,0,0.2-0.1,0.3c0,0-0.1,0.1-0.2,0.2
			c-0.1,0.1-0.2,0.2-0.2,0.2c0,0,0,0,0,0c0,0,0,0,0,0h1c0,0,0.1,0,0.1-0.1V171.1z M332.6,176.9c-0.1-0.1-0.1-0.1-0.1-0.2
			c0,0,0-0.1,0-0.1c0-0.1,0.1-0.2,0.2-0.2l1-0.3c0.1,0,0.2,0,0.2,0c0.2,0,0.4,0.1,0.6,0.2c0.4,0.4,0.8,0.8,1.1,1.1
			c0.1,0.1,0.1,0.1,0.1,0.2c0,0,0,0.1,0,0.1c0,0.1-0.1,0.2-0.2,0.2l-1.1,0.3c-0.1,0-0.1,0-0.2,0c-0.2,0-0.4-0.1-0.6-0.3
			C333.3,177.7,333,177.3,332.6,176.9z"/>
	</g>
	<g>
		<path d="M347,170c0-0.1,0.1-0.2,0.2-0.3c0.1-0.1,0.2-0.1,0.4-0.1l1.1,0.3c0.1,0,0.2,0.1,0.3,0.2c0.1,0.1,0.1,0.2,0,0.4
			c-0.6,1.6-1.3,3.1-2.2,4.4c0,0,0,0.1,0,0.1c0.3,0.8,0.6,1.2,1,1.2c0.2,0,0.4-0.6,0.5-1.9c0-0.1,0-0.2,0.1-0.2c0.1,0,0.2,0,0.2,0
			c0.3,0.2,0.6,0.5,0.9,0.6c0.1,0.1,0.2,0.2,0.3,0.3c0.1,0.1,0.1,0.2,0.1,0.3c0,0,0,0.1,0,0.1c-0.1,0.8-0.3,1.3-0.5,1.8
			c-0.2,0.4-0.4,0.7-0.7,0.8c-0.3,0.1-0.7,0.2-1.2,0.2c-0.9,0-1.6-0.5-2.2-1.6c0,0-0.1,0-0.1,0c-0.5,0.5-1,0.9-1.6,1.3
			c-0.1,0.1-0.2,0.1-0.4,0.1c-0.1,0-0.2-0.1-0.3-0.2c-0.3-0.3-0.5-0.6-0.8-1c-0.1-0.1-0.1-0.2-0.1-0.3c0-0.1,0.1-0.2,0.2-0.3
			c0.8-0.5,1.6-1.1,2.2-1.8c0,0,0-0.1,0-0.1c-0.4-1.4-0.7-3.2-0.9-5.4c0,0,0-0.1-0.1-0.1H340c0,0-0.1,0-0.1,0.1v1.2
			c0,0,0,0.1,0.1,0.1h2.9c0.1,0,0.3,0,0.3,0.1c0.1,0.1,0.1,0.2,0.1,0.3c0,0.1,0,0.2,0,0.2c0,1.5-0.1,2.6-0.1,3.3
			c-0.1,0.7-0.2,1.1-0.3,1.3c-0.2,0.3-0.6,0.5-1.1,0.6c-0.2,0-0.6,0.1-1.1,0.1c-0.1,0-0.3,0-0.4-0.1c-0.1-0.1-0.2-0.2-0.2-0.3
			c-0.1-0.5-0.2-0.9-0.4-1.3c0,0,0,0,0,0c0,0,0,0,0,0c-0.2,1.5-0.5,2.7-1,3.6c-0.1,0.1-0.2,0.2-0.3,0.2c0,0,0,0-0.1,0
			c-0.1,0-0.2,0-0.3-0.1c-0.3-0.3-0.6-0.6-1-0.8c-0.1-0.1-0.2-0.2-0.2-0.3c0-0.1,0-0.1,0-0.2c0-0.1,0-0.2,0.1-0.2
			c0.2-0.5,0.4-1.1,0.6-1.8c0.1-0.7,0.2-1.3,0.2-1.9c0-0.5,0-1.1,0-1.9v-3.7c0-0.1,0-0.2,0.1-0.3c0.1-0.1,0.2-0.1,0.3-0.1h5.1
			c0,0,0.1,0,0.1-0.1c0-0.5,0-0.9,0-1.4c0-0.1,0-0.3,0.1-0.3c0.1-0.1,0.2-0.1,0.3-0.1h1.2c0.1,0,0.3,0,0.3,0.1
			c0.1,0.1,0.1,0.2,0.1,0.3c0,0.1,0,0.2,0,0.3c0,0.4,0,0.7,0,1.1c0,0,0,0.1,0.1,0.1h1.5c0,0,0,0,0,0c0,0,0,0,0,0
			c-0.3-0.2-0.6-0.4-0.9-0.7c-0.1-0.1-0.2-0.2-0.2-0.3c0-0.1,0-0.2,0.1-0.3l0.5-0.5c0.1-0.1,0.2-0.2,0.4-0.2c0,0,0.1,0,0.1,0
			c0.1,0,0.2,0,0.3,0.1c0.5,0.3,1,0.6,1.4,0.9c0.1,0.1,0.2,0.2,0.2,0.3c0,0.1,0,0.2-0.1,0.3l-0.3,0.3c0,0,0,0,0,0c0,0,0,0,0,0h0.9
			c0.1,0,0.2,0,0.3,0.1c0.1,0.1,0.1,0.2,0.1,0.3v1c0,0.1,0,0.2-0.1,0.3c-0.1,0.1-0.2,0.1-0.3,0.1h-3.7c0,0-0.1,0-0.1,0.1
			c0.1,1.1,0.2,2.1,0.4,3.1c0,0,0,0,0,0c0,0,0,0,0,0C346.5,171.5,346.8,170.8,347,170z M341.3,172.3
			C341.3,172.2,341.3,172.2,341.3,172.3l-1.4-0.1c0,0-0.1,0-0.1,0.1c0,0.7-0.1,1.5-0.2,2.1c0,0,0,0.1,0.1,0.1c0.4,0,0.7,0.1,0.9,0.1
			c0.2,0,0.3-0.1,0.4-0.2C341.3,174.2,341.3,173.5,341.3,172.3z"/>
	</g>
	<g>
		<path d="M360.2,175.5C360.1,175.5,360.2,175.5,360.2,175.5l3.2,0.1c0.1,0,0.3,0,0.3,0.1c0.1,0.1,0.1,0.2,0.1,0.3v1.1
			c0,0.1,0,0.2-0.1,0.3c-0.1,0.1-0.2,0.1-0.3,0.1h-11.9c-0.1,0-0.2,0-0.3-0.1c-0.1-0.1-0.1-0.2-0.1-0.3V176c0-0.1,0-0.3,0.1-0.3
			c0.1-0.1,0.2-0.1,0.3-0.1h6.4c0,0,0.1,0,0.1-0.1c0.6-1.7,1.1-3.6,1.3-5.6c0-0.1,0.1-0.2,0.2-0.3c0.1-0.1,0.2-0.1,0.3-0.1
			c0,0,0.1,0,0.1,0l1.4,0.2c0.1,0,0.2,0.1,0.3,0.2c0.1,0.1,0.1,0.2,0.1,0.4C361.2,172.2,360.7,173.9,360.2,175.5z M362.9,167.1
			c0.1,0,0.3,0,0.3,0.1c0.1,0.1,0.1,0.2,0.1,0.3v1c0,0.1,0,0.2-0.1,0.3s-0.2,0.1-0.3,0.1h-11c-0.1,0-0.3,0-0.3-0.1s-0.1-0.2-0.1-0.3
			v-1c0-0.1,0-0.3,0.1-0.3c0.1-0.1,0.2-0.1,0.3-0.1h4.3c0,0,0.1,0,0.1-0.1v-1.8c0-0.1,0-0.2,0.1-0.3c0.1-0.1,0.2-0.1,0.3-0.1h1.2
			c0.1,0,0.2,0,0.3,0.1c0.1,0.1,0.1,0.2,0.1,0.3v1.8c0,0,0,0.1,0.1,0.1H362.9z M356.4,174.2c0,0.1,0,0.3-0.1,0.4
			c-0.1,0.1-0.2,0.2-0.3,0.2l-1.2,0.3c-0.1,0-0.2,0-0.3-0.1c-0.1-0.1-0.2-0.2-0.2-0.3c-0.1-1.3-0.5-2.7-1-4.3c0-0.1,0-0.2,0-0.4
			c0.1-0.1,0.2-0.2,0.3-0.2l1-0.3c0.1,0,0.3,0,0.4,0c0.1,0.1,0.2,0.2,0.3,0.3C355.9,171.4,356.2,172.8,356.4,174.2z"/>
	</g>
</g>
<g>
	<g>
		<path d="M421.6,162.6c-0.1,0-0.3,0-0.3-0.1s-0.1-0.2-0.1-0.3v-0.5c0-0.3,0.1-0.6,0.4-0.8c1.3-1.2,2.3-2.3,3-3.1
			c0.7-0.9,1-1.6,1-2.3c0-0.5-0.1-0.8-0.4-1.1c-0.2-0.3-0.6-0.4-1-0.4c-0.5,0-0.9,0.2-1.4,0.7c-0.1,0.1-0.2,0.1-0.3,0.1
			c-0.1,0-0.2,0-0.3-0.1l-0.7-0.7c-0.1-0.1-0.2-0.2-0.2-0.3c0-0.1,0-0.2,0.2-0.3c0.5-0.4,0.9-0.8,1.4-1c0.5-0.2,1-0.3,1.7-0.3
			c1,0,1.8,0.3,2.5,0.9c0.6,0.6,1,1.4,1,2.4c0,1.5-1,3.2-3.1,5.3c0,0,0,0,0,0c0,0,0,0,0,0c0.7-0.1,1.2-0.1,1.6-0.1h1.4
			c0.1,0,0.3,0,0.3,0.1c0.1,0.1,0.1,0.2,0.1,0.3v1.1c0,0.1,0,0.3-0.1,0.3c-0.1,0.1-0.2,0.1-0.3,0.1H421.6z"/>
	</g>
	<g>
		<path d="M436,161.3c-0.7,0.9-1.6,1.4-2.7,1.4c-1.1,0-2-0.5-2.7-1.4c-0.7-0.9-1-2.3-1-4s0.3-3.1,1-4c0.7-0.9,1.6-1.4,2.7-1.4
			c1.1,0,2,0.5,2.7,1.4c0.7,0.9,1,2.2,1,4C437,159.1,436.6,160.4,436,161.3z M432.7,160.7c0.2,0.1,0.3,0.2,0.5,0.2
			c0.2,0,0.4-0.1,0.5-0.2c0.2-0.1,0.3-0.3,0.4-0.5c0.1-0.2,0.2-0.6,0.3-1.1c0.1-0.5,0.1-1.1,0.1-1.8c0-0.7,0-1.3-0.1-1.7
			c-0.1-0.5-0.2-0.8-0.3-1.1c-0.1-0.2-0.3-0.4-0.4-0.5c-0.2-0.1-0.3-0.1-0.5-0.1c-0.2,0-0.4,0-0.5,0.1c-0.1,0.1-0.3,0.3-0.4,0.5
			c-0.1,0.2-0.2,0.6-0.3,1.1c-0.1,0.5-0.1,1-0.1,1.7c0,0.7,0,1.3,0.1,1.8c0.1,0.5,0.2,0.8,0.3,1.1
			C432.5,160.4,432.6,160.6,432.7,160.7z"/>
	</g>
	<g>
		<path d="M439.1,162.6c-0.1,0-0.2,0-0.3-0.1c-0.1-0.1-0.1-0.2-0.1-0.3v-1c0-0.1,0-0.3,0.1-0.3c0.1-0.1,0.2-0.1,0.3-0.1h1.7
			c0,0,0.1,0,0.1-0.1v-5.8c0,0,0-0.1-0.1-0.1h-1.4c-0.1,0-0.3,0-0.3-0.1c-0.1-0.1-0.1-0.2-0.1-0.3v-0.6c0-0.1,0-0.3,0.1-0.4
			c0.1-0.1,0.2-0.2,0.3-0.2c0.6-0.1,1.2-0.3,1.7-0.6c0.3-0.2,0.6-0.2,0.9-0.2h0.9c0.1,0,0.3,0,0.3,0.1c0.1,0.1,0.1,0.2,0.1,0.3v7.8
			c0,0,0,0.1,0.1,0.1h1.3c0.1,0,0.2,0,0.3,0.1c0.1,0.1,0.1,0.2,0.1,0.3v1c0,0.1,0,0.3-0.1,0.3s-0.2,0.1-0.3,0.1H439.1z"/>
	</g>
	<g>
		<path d="M447.1,161.8c-0.1-0.1-0.2-0.2-0.2-0.3c0-0.1,0-0.3,0.1-0.4l0.7-0.8c0.1-0.1,0.2-0.1,0.3-0.2c0.1,0,0.3,0,0.4,0.1
			c0.4,0.3,0.8,0.4,1.2,0.4c1.2,0,1.9-1,2-3c0,0,0,0,0,0c0,0,0,0,0,0c-0.2,0.3-0.6,0.6-0.9,0.7c-0.4,0.2-0.7,0.3-1,0.3
			c-0.9,0-1.7-0.3-2.2-0.8c-0.6-0.6-0.8-1.4-0.8-2.4c0-1.1,0.3-1.9,1-2.6c0.7-0.6,1.5-1,2.4-1c0.5,0,1,0.1,1.4,0.3
			c0.5,0.2,0.9,0.5,1.2,0.9c0.4,0.4,0.7,1,0.9,1.7c0.2,0.7,0.3,1.5,0.3,2.4c0,0.9-0.1,1.7-0.3,2.4c-0.2,0.7-0.5,1.3-0.9,1.7
			c-0.4,0.4-0.8,0.8-1.3,1c-0.5,0.2-1,0.3-1.6,0.3C448.8,162.8,447.9,162.5,447.1,161.8z M450.1,157c0.6,0,1.1-0.3,1.4-0.9
			c0,0,0-0.1,0-0.1c-0.1-0.8-0.3-1.3-0.6-1.7c-0.3-0.3-0.6-0.5-1-0.5c-0.4,0-0.6,0.1-0.9,0.4c-0.2,0.3-0.3,0.7-0.3,1.3
			c0,0.5,0.1,0.9,0.3,1.2C449.4,156.9,449.7,157,450.1,157z"/>
	</g>
	<g>
		<path d="M422.6,168.2c0,0.1,0,0.3-0.1,0.3c-0.1,0.1-0.2,0.1-0.3,0.1h-0.5c0,0-0.1,0-0.1,0.1c-0.3,2-0.9,3.7-1.6,4.9
			c0,0,0,0.1,0,0.1c0.7,0.8,1.5,1.4,2.4,1.9c0.1,0,0.2,0.1,0.2,0.2c0,0.1,0,0.2-0.1,0.3c-0.3,0.3-0.6,0.7-0.8,1.1
			c-0.1,0.1-0.2,0.2-0.3,0.2c-0.1,0-0.3,0-0.4,0c-0.9-0.5-1.7-1.1-2.3-1.9c0,0-0.1,0-0.1,0c-0.8,0.8-1.7,1.5-2.9,2
			c-0.1,0-0.1,0-0.2,0c-0.1,0-0.1,0-0.2,0c-0.1,0-0.2-0.1-0.3-0.2c-0.2-0.3-0.4-0.7-0.7-1c-0.1-0.1-0.1-0.2-0.1-0.3
			c0-0.1,0.1-0.2,0.2-0.2c1.2-0.5,2.2-1.2,2.9-2c0,0,0-0.1,0-0.1c-0.4-0.7-0.7-1.6-1.1-2.7c0,0,0,0,0,0c0,0,0,0,0,0
			c0,0,0,0.1-0.1,0.1c-0.1,0.1-0.2,0.2-0.3,0.2s-0.2,0-0.3-0.1c-0.1-0.1-0.3-0.2-0.4-0.3c0,0,0,0,0,0c0,0.1,0,0.3-0.1,0.3
			c-0.1,0.1-0.2,0.1-0.3,0.1h-1.1c-0.1,0-0.2,0-0.3-0.1c-0.1-0.1-0.1-0.2-0.1-0.3c0,0,0,0,0,0h-1.4c0,0-0.1,0-0.1,0.1v2.3
			c0,0.3,0,0.4,0.1,0.5c0.1,0.1,0.2,0.1,0.4,0.1h1.1c0.2,0,0.3-0.1,0.3-0.2c0.1-0.1,0.1-0.4,0.1-0.7c0-0.1,0.1-0.2,0.2-0.2
			c0.1-0.1,0.2,0,0.3,0c0.3,0.1,0.6,0.3,0.9,0.4c0.1,0,0.2,0.1,0.3,0.2c0.1,0.1,0.1,0.2,0.1,0.4c-0.1,0.8-0.4,1.3-0.7,1.6
			c-0.3,0.3-0.8,0.4-1.4,0.4h-1.6c-0.9,0-1.4-0.2-1.7-0.5c-0.3-0.3-0.5-1-0.5-2v-3.7c0-0.1,0-0.3,0.1-0.3c0.1-0.1,0.2-0.1,0.3-0.1
			h2.9c0,0,0.1,0,0.1-0.1v-1.7c0,0,0-0.1-0.1-0.1h-2.9c-0.1,0-0.3,0-0.3-0.1c-0.1-0.1-0.1-0.2-0.1-0.3v-0.9c0-0.1,0-0.3,0.1-0.3
			c0.1-0.1,0.2-0.1,0.3-0.1h4.4c0.1,0,0.3,0,0.3,0.1c0.1,0.1,0.1,0.2,0.1,0.3v3c0,0,0,0,0,0c0,0,0,0,0,0c0.6-1.1,1.1-2.4,1.5-4
			c0-0.1,0.1-0.2,0.2-0.3c0.1-0.1,0.2-0.1,0.3-0.1c0,0,0.1,0,0.1,0l1.2,0.2c0.1,0,0.2,0.1,0.3,0.2c0.1,0.1,0.1,0.2,0.1,0.4
			c-0.1,0.5-0.2,0.9-0.4,1.4c0,0,0,0.1,0.1,0.1h3.7c0.1,0,0.3,0,0.3,0.1c0.1,0.1,0.1,0.2,0.1,0.3V168.2z M419.5,168.8
			C419.5,168.7,419.5,168.7,419.5,168.8l-1.6-0.1c0,0-0.1,0-0.1,0.1c0.2,1.1,0.5,2.1,0.9,2.9c0,0,0,0,0,0s0,0,0,0
			C419,170.8,419.3,169.9,419.5,168.8z"/>
	</g>
	<g>
		<path d="M435.1,171.1c0.1,0,0.3,0,0.3,0.1c0.1,0.1,0.1,0.2,0.1,0.3v5.6c0,0.1,0,0.2-0.1,0.3c-0.1,0.1-0.2,0.1-0.3,0.1H434
			c-0.1,0-0.3,0-0.3-0.1c-0.1-0.1-0.1-0.2-0.1-0.3c0,0,0-0.1-0.1-0.1h-4.1c0,0-0.1,0-0.1,0.1c0,0.1,0,0.2-0.1,0.3
			c-0.1,0.1-0.2,0.1-0.3,0.1h-1.1c-0.1,0-0.3,0-0.3-0.1s-0.1-0.2-0.1-0.3V174c0,0,0,0-0.1,0c-0.7,0.4-1.5,0.7-2.4,1.1
			c-0.1,0-0.3,0-0.4,0c-0.1-0.1-0.2-0.1-0.3-0.3c-0.2-0.4-0.4-0.7-0.6-1c-0.1-0.1-0.1-0.1-0.1-0.2c0,0,0-0.1,0-0.1
			c0-0.1,0.1-0.2,0.2-0.2c1.6-0.5,3-1.2,4.2-2.1c0,0,0-0.1,0-0.1c-0.4-0.4-1-0.9-1.8-1.6c0,0-0.1,0-0.1,0c-0.3,0.2-0.6,0.4-1,0.7
			c-0.1,0.1-0.2,0.1-0.4,0.1c-0.1,0-0.2-0.1-0.3-0.2c-0.2-0.3-0.5-0.6-0.8-0.9c-0.1-0.1-0.1-0.1-0.1-0.2c0-0.1,0.1-0.2,0.2-0.3
			c1.7-1,3.1-2.2,4-3.8c0.1-0.1,0.2-0.2,0.3-0.3c0.1,0,0.2-0.1,0.3-0.1c0,0,0.1,0,0.1,0l1.3,0.3c0.1,0,0.2,0.1,0.3,0.2
			c0,0.1,0,0.2,0,0.3c-0.1,0.2-0.2,0.3-0.4,0.5c0,0,0,0.1,0,0.1h2.6c0,0,0.1,0,0.1,0c0.1,0,0.1,0,0.2,0c0.1,0,0.2,0,0.4,0.1l0.7,0.4
			c0.1,0.1,0.2,0.2,0.3,0.3c0,0.1,0,0.3,0,0.4c-0.6,1.6-1.6,3-2.7,4.3c0,0,0,0,0,0c0,0,0,0,0,0H435.1z M431.1,167.6
			C431.1,167.6,431.1,167.6,431.1,167.6l-3-0.1c0,0-0.1,0-0.1,0c-0.1,0.1-0.2,0.3-0.4,0.4c0,0,0,0.1,0,0.1c0.8,0.6,1.4,1.1,1.9,1.5
			c0,0,0.1,0,0.1,0C430.2,169,430.7,168.3,431.1,167.6z M429.3,175.3C429.3,175.3,429.3,175.3,429.3,175.3l4.2,0.1
			c0,0,0.1,0,0.1-0.1V173c0,0,0-0.1-0.1-0.1h-4.1c0,0-0.1,0-0.1,0.1V175.3z"/>
	</g>
	<g>
		<path d="M446.4,175.6h2c0.2,0,0.3-0.1,0.4-0.2c0.1-0.1,0.2-0.5,0.2-1c0-0.1,0.1-0.2,0.2-0.2c0.1-0.1,0.2-0.1,0.3,0
			c0.3,0.1,0.6,0.2,0.9,0.3c0.1,0,0.2,0.1,0.3,0.2c0.1,0.1,0.1,0.2,0.1,0.3c0,0.4-0.1,0.8-0.3,1.3c-0.1,0.3-0.3,0.6-0.5,0.8
			c-0.2,0.2-0.4,0.3-0.7,0.4c-0.3,0.1-0.6,0.1-1,0.1h-1.9c-0.9,0-1.6-0.2-2.1-0.6c-0.5-0.4-0.7-0.9-0.7-1.5c0-0.2,0-0.4,0.1-0.6
			c0-0.2,0.1-0.4,0.3-0.8c0.2-0.3,0.4-0.7,0.8-1.2c0.4-0.5,0.8-1,1.4-1.6c0,0,0,0,0,0c0,0,0,0,0,0h-1.4c-0.1,0-0.3,0-0.3-0.1
			c-0.1-0.1-0.1-0.2-0.1-0.3v-1c0,0,0,0,0,0c-0.1,0.1-0.1,0.1-0.2,0c-0.4-0.3-0.8-0.7-1.3-1c0,0-0.1,0-0.1,0v0.9
			c0,0.1,0,0.3-0.1,0.3c-0.1,0.1-0.2,0.1-0.3,0.1h-3.6c-0.1,0-0.2,0-0.3-0.1c-0.1-0.1-0.1-0.2-0.1-0.3v-0.5c0-0.1,0-0.2,0.1-0.3
			c0.1-0.1,0.2-0.1,0.3-0.1h4c0,0,0,0,0,0c-0.1,0-0.1-0.1,0-0.1c0.1-0.1,0.2-0.2,0.2-0.2c0,0,0,0,0,0c0,0,0,0,0,0h-4.9
			c-0.1,0-0.3,0-0.3-0.1c-0.1-0.1-0.1-0.2-0.1-0.3v-0.6c0-0.1,0-0.3,0.1-0.3s0.2-0.1,0.3-0.1h4.8c0.1,0,0.3,0,0.3,0.1
			c0.1,0.1,0.1,0.2,0.1,0.3v0.6c0,0,0,0,0,0c0,0,0,0,0,0c0.6-0.8,1.1-1.8,1.4-2.9c0-0.1,0.1-0.2,0.2-0.3c0.1-0.1,0.2-0.1,0.2-0.1
			c0,0,0.1,0,0.1,0l1.1,0.2c0.1,0,0.2,0.1,0.3,0.2c0.1,0.1,0.1,0.2,0,0.3c-0.1,0.3-0.2,0.7-0.4,1c0,0,0,0.1,0,0.1h3.7
			c0.1,0,0.2,0,0.3,0.1s0.1,0.2,0.1,0.3v1c0,0.1,0,0.2-0.1,0.3c-0.1,0.1-0.2,0.1-0.3,0.1h-4.6c0,0-0.1,0-0.1,0.1
			c-0.2,0.4-0.5,0.7-0.7,1.1c0,0,0,0,0,0h3.7c0.4,0,0.7,0.1,0.9,0.2l0.5,0.2c0.1,0.1,0.2,0.2,0.3,0.3c0,0.1,0,0.2-0.1,0.3
			c-1.2,1.1-2.2,2-2.8,2.7c-0.6,0.7-1,1.1-1.2,1.4c-0.1,0.2-0.2,0.5-0.2,0.6C445.6,175.5,445.9,175.6,446.4,175.6z M442.1,172.6
			c0.1,0,0.3,0,0.3,0.1c0.1,0.1,0.1,0.2,0.1,0.3v3.4c0,0.1,0,0.2-0.1,0.3c-0.1,0.1-0.2,0.1-0.3,0.1h-2.3c0,0-0.1,0-0.1,0.1
			c0,0.1,0,0.2-0.1,0.3c-0.1,0.1-0.2,0.1-0.3,0.1h-0.8c-0.1,0-0.2,0-0.3-0.1c-0.1-0.1-0.1-0.2-0.1-0.3v-3.9c0-0.1,0-0.2,0.1-0.3
			c0.1-0.1,0.2-0.1,0.3-0.1H442.1z M438.5,172.2c-0.1,0-0.2,0-0.3-0.1c-0.1-0.1-0.1-0.2-0.1-0.3v-0.5c0-0.1,0-0.3,0.1-0.3
			s0.2-0.1,0.3-0.1h3.6c0.1,0,0.3,0,0.3,0.1c0.1,0.1,0.1,0.2,0.1,0.3v0.5c0,0.1,0,0.3-0.1,0.3c-0.1,0.1-0.2,0.1-0.3,0.1H438.5z
			 M442.1,164.8c0.1,0,0.3,0,0.3,0.1s0.1,0.2,0.1,0.3v0.5c0,0.1,0,0.3-0.1,0.3s-0.2,0.1-0.3,0.1h-3.6c-0.1,0-0.2,0-0.3-0.1
			s-0.1-0.2-0.1-0.3v-0.5c0-0.1,0-0.3,0.1-0.3s0.2-0.1,0.3-0.1H442.1z M440.8,174.3C440.8,174.2,440.8,174.2,440.8,174.3l-1-0.1
			c0,0-0.1,0-0.1,0.1v1.1c0,0,0,0.1,0.1,0.1h1c0,0,0.1,0,0.1-0.1V174.3z"/>
	</g>
	<g>
		<path d="M456.5,164.7c0.2-0.3,0.4-0.4,0.7-0.4h1.1c0.3,0,0.6,0.1,0.8,0.4c0.7,0.9,1.5,1.8,2.4,2.6c0.9,0.8,1.8,1.4,2.8,1.9
			c0.1,0.1,0.2,0.1,0.2,0.2c0,0,0,0.1,0,0.1c0,0.1,0,0.2-0.1,0.2c-0.2,0.3-0.5,0.6-0.8,1c-0.1,0.1-0.2,0.2-0.3,0.2c0,0-0.1,0-0.1,0
			c-0.1,0-0.2,0-0.2-0.1c-0.7-0.5-1.4-1-2.1-1.5c0,0,0,0,0,0v0.7c0,0.1,0,0.3-0.1,0.3c-0.1,0.1-0.2,0.1-0.3,0.1h-4.9
			c-0.1,0-0.2,0-0.3-0.1c-0.1-0.1-0.1-0.2-0.1-0.3v-0.6c0,0,0,0-0.1,0c-0.6,0.5-1.3,1-2,1.5c-0.1,0.1-0.2,0.1-0.4,0.1
			c-0.1,0-0.2-0.1-0.3-0.2c-0.2-0.3-0.4-0.6-0.7-0.9c-0.1-0.1-0.1-0.2-0.1-0.3c0-0.1,0.1-0.3,0.2-0.3c1-0.6,1.9-1.3,2.8-2.1
			C455.3,166.3,456,165.5,456.5,164.7z M460.8,171.6C460.8,171.6,460.8,171.6,460.8,171.6c0.2,0,0.3,0,0.4,0c0.1,0,0.2,0,0.3,0
			l0.9,0.2c0.1,0,0.2,0.1,0.3,0.2c0.1,0.1,0.1,0.2,0,0.3c-0.5,1.3-1.2,3-2.1,4.9c-0.1,0.1-0.1,0.2-0.3,0.3c-0.1,0-0.2,0.1-0.2,0.1
			c-0.1,0-0.1,0-0.2,0l-1.2-0.3c-0.1,0-0.2-0.1-0.3-0.2c0-0.1,0-0.2,0-0.3c0.6-1.1,1-2.2,1.5-3.2c0,0,0-0.1,0-0.1h-6.3
			c-0.1,0-0.3,0-0.3-0.1c-0.1-0.1-0.1-0.2-0.1-0.3v-1c0-0.1,0-0.2,0.1-0.3s0.2-0.1,0.3-0.1H460.8z M455.8,168.6
			C455.8,168.6,455.8,168.6,455.8,168.6C455.8,168.6,455.8,168.6,455.8,168.6l4.1,0c0,0,0,0,0,0c0,0,0,0,0,0
			c-0.9-0.8-1.6-1.5-2.1-2.3c0,0,0,0,0,0c0,0,0,0,0,0C457.3,167.1,456.6,167.8,455.8,168.6z"/>
	</g>
</g>
<g>
	<g>
		<path class="st7" d="M121,125h-4c-1.1,0-2-0.9-2-2s0.9-2,2-2h4c1.1,0,2,0.9,2,2S122.1,125,121,125z M107,125h-4c-1.1,0-2-0.9-2-2
			s0.9-2,2-2h4c1.1,0,2,0.9,2,2S108.1,125,107,125z M93,125h-4c-1.1,0-2-0.9-2-2s0.9-2,2-2h4c1.1,0,2,0.9,2,2S94.1,125,93,125z
			 M79,125h-4c-1.1,0-2-0.9-2-2s0.9-2,2-2h4c1.1,0,2,0.9,2,2S80.1,125,79,125z M65,125h-4c-1.1,0-2-0.9-2-2s0.9-2,2-2h4
			c1.1,0,2,0.9,2,2S66.1,125,65,125z M51,125h-4c-1.1,0-2-0.9-2-2s0.9-2,2-2h4c1.1,0,2,0.9,2,2S52.1,125,51,125z M37,125h-4
			c-1.1,0-2-0.9-2-2s0.9-2,2-2h4c1.1,0,2,0.9,2,2S38.1,125,37,125z M23,125h-4c-1.1,0-2-0.9-2-2s0.9-2,2-2h4c1.1,0,2,0.9,2,2
			S24.1,125,23,125z M9,125H5c-1.1,0-2-0.9-2-2s0.9-2,2-2h4c1.1,0,2,0.9,2,2S10.1,125,9,125z"/>
	</g>
	<g>
		<path class="st7" d="M557,125H129c-1.1,0-2-0.9-2-2s0.9-2,2-2h428c1.1,0,2,0.9,2,2S558.1,125,557,125z"/>
	</g>
	<g>
		<path class="st7" d="M130,141c-1.7,0-3-1.3-3-3v-31c0-1.7,1.3-3,3-3s3,1.3,3,3v31C133,139.7,131.7,141,130,141z"/>
	</g>
	<g>
		<path class="st7" d="M235,141c-1.7,0-3-1.3-3-3v-31c0-1.7,1.3-3,3-3s3,1.3,3,3v31C238,139.7,236.7,141,235,141z"/>
	</g>
	<g>
		<path class="st7" d="M337,141c-1.7,0-3-1.3-3-3v-31c0-1.7,1.3-3,3-3s3,1.3,3,3v31C340,139.7,338.7,141,337,141z"/>
	</g>
	<g>
		<path class="st7" d="M437,141c-1.7,0-3-1.3-3-3v-31c0-1.7,1.3-3,3-3s3,1.3,3,3v31C440,139.7,438.7,141,437,141z"/>
	</g>
	<g>
		<path class="st7" d="M557,125c-0.4,0-0.8-0.1-1.1-0.4l-27-19c-0.9-0.6-1.1-1.9-0.5-2.8c0.6-0.9,1.9-1.1,2.8-0.5l27,19
			c0.9,0.6,1.1,1.9,0.5,2.8C558.2,124.7,557.6,125,557,125z"/>
	</g>
	<g>
		<path class="st7" d="M530,145c-0.6,0-1.2-0.3-1.6-0.8c-0.6-0.9-0.4-2.2,0.5-2.8l27-19c0.9-0.6,2.2-0.4,2.8,0.5
			c0.6,0.9,0.4,2.2-0.5,2.8l-27,19C530.8,144.9,530.4,145,530,145z"/>
	</g>
</g>
</svg>
