<?xml version="1.0" encoding="utf-8"?>
<!-- Generator: Adobe Illustrator 21.0.2, SVG Export Plug-In . SVG Version: 6.00 Build 0)  -->
<svg version="1.1" id="圖層_1" xmlns="http://www.w3.org/2000/svg" xmlns:xlink="http://www.w3.org/1999/xlink" x="0px" y="0px"
	 viewBox="0 0 170 312" style="enable-background:new 0 0 170 312;" xml:space="preserve">
<style type="text/css">
	.st0{fill:#333333;}
	.st1{fill:#FFFFFF;}
	.st2{fill:none;stroke:#000000;stroke-width:0.75;stroke-miterlimit:10;}
	.st3{fill:#EAC2A6;stroke:#333333;stroke-width:2;stroke-miterlimit:10;}
	.st4{fill:#A63F24;}
</style>
<g>
	<g>
		<g>
			<g>
				<path class="st0" d="M135.6,148.6c0,0,0-0.1,0-0.1c0-0.2-0.1-0.3-0.1-0.5c0,0,0,0,0,0l-16.1-41.5c-0.3-0.8-1-1.3-1.7-1.3H21
					c-0.7,0-1.4,0.5-1.7,1.3L3.1,148c0,0,0,0,0,0c-0.1,0.1-0.1,0.3-0.1,0.5c0,0,0,0.1,0,0.1c0,0.1,0,0.1,0,0.2v43.3
					c0,1.2,0.8,2.1,1.9,2.1s1.9-0.9,1.9-2.1V151h125.2v41.2c0,1.2,0.8,2.1,1.9,2.1c1,0,1.9-0.9,1.9-2.1v-43.3
					C135.7,148.8,135.6,148.7,135.6,148.6z M7.7,146.8l14.5-37.3h94.2l14.5,37.3H7.7z"/>
				<path class="st0" d="M87.6,120.1c-0.3-0.6-1-1-1.6-1H51c-0.7,0-1.4,0.5-1.7,1.2L45,130.5c-0.3,0.6-0.2,1.4,0.1,2
					c0.3,0.6,0.9,1,1.6,1h44.6c0.7,0,1.3-0.4,1.6-1.1c0.3-0.7,0.3-1.5,0-2.1L87.6,120.1z M49.7,129.3l2.5-6h32.7l3.2,6H49.7z"/>
			</g>
			<g>
				<circle class="st1" cx="68.9" cy="105.3" r="19.5"/>
				<path class="st0" d="M68.9,126.9c-11.9,0-21.6-9.7-21.6-21.6S57,83.6,68.9,83.6s21.6,9.7,21.6,21.6S80.8,126.9,68.9,126.9z
					 M68.9,87.8c-9.6,0-17.4,7.8-17.4,17.4s7.8,17.4,17.4,17.4c9.6,0,17.4-7.8,17.4-17.4S78.5,87.8,68.9,87.8z"/>
			</g>
			<g>
				<path class="st0" d="M54.6,111.9c-0.2,0-0.3-0.1-0.4-0.2c-0.1-0.1-0.2-0.2-0.2-0.4V101c0-0.2,0.1-0.3,0.2-0.4
					c0.1-0.1,0.2-0.2,0.4-0.2h1.3c0.4,0,0.6,0.2,0.8,0.5l3.1,5.6l1.1,2.4c0,0,0,0,0.1,0s0,0,0,0c-0.2-1.9-0.3-3.2-0.3-4v-4
					c0-0.2,0.1-0.3,0.2-0.4c0.1-0.1,0.2-0.2,0.4-0.2h1.1c0.2,0,0.3,0.1,0.4,0.2c0.1,0.1,0.2,0.2,0.2,0.4v10.4c0,0.2-0.1,0.3-0.2,0.4
					c-0.1,0.1-0.2,0.2-0.4,0.2h-1.2c-0.4,0-0.6-0.2-0.8-0.5l-3.1-5.7l-1.1-2.4c0,0,0,0-0.1,0s0,0,0,0c0,0.2,0.1,0.5,0.1,0.9
					c0,0.5,0.1,0.8,0.1,1.1c0,0.2,0,0.6,0.1,0.9c0,0.4,0,0.7,0,1v4.1c0,0.2-0.1,0.3-0.2,0.4c-0.1,0.1-0.2,0.2-0.4,0.2H54.6z"/>
				<path class="st0" d="M68.5,111.9c-0.1,0-0.3-0.1-0.4-0.2c-0.1-0.1-0.2-0.2-0.2-0.4v-8.9c0-0.1,0-0.1-0.1-0.1h-2.6
					c-0.1,0-0.3-0.1-0.4-0.2c-0.1-0.1-0.2-0.2-0.2-0.4V101c0-0.2,0.1-0.3,0.2-0.4c0.1-0.1,0.2-0.2,0.4-0.2H73c0.2,0,0.3,0.1,0.4,0.2
					c0.1,0.1,0.2,0.2,0.2,0.4v0.8c0,0.1-0.1,0.3-0.2,0.4c-0.1,0.1-0.2,0.2-0.4,0.2h-2.6c-0.1,0-0.1,0-0.1,0.1v8.9
					c0,0.2-0.1,0.3-0.2,0.4c-0.1,0.1-0.2,0.2-0.4,0.2H68.5z"/>
				<path class="st0" d="M81.5,101.6c0.1,0.1,0.2,0.2,0.2,0.4c0,0.2,0,0.3-0.1,0.4l-0.4,0.5c-0.1,0.1-0.2,0.2-0.4,0.2
					c-0.1,0-0.3,0-0.4-0.1c-0.5-0.4-1-0.6-1.6-0.6c-0.5,0-0.8,0.1-1.1,0.3c-0.2,0.2-0.4,0.5-0.4,1c0,0.2,0.1,0.4,0.2,0.6
					c0.1,0.2,0.3,0.4,0.5,0.5c0.2,0.1,0.5,0.3,0.8,0.4c0.3,0.1,0.6,0.3,0.9,0.4c0.3,0.1,0.6,0.3,0.9,0.5c0.3,0.2,0.5,0.4,0.8,0.6
					c0.2,0.2,0.4,0.5,0.5,0.9c0.1,0.3,0.2,0.7,0.2,1.1c0,0.8-0.2,1.6-0.7,2.1c-0.5,0.6-1.1,1-2,1.1c-0.1,0-0.1,0-0.1,0.1v1.2
					c0,0.1-0.1,0.3-0.2,0.4c-0.1,0.1-0.2,0.2-0.4,0.2h-0.5c-0.1,0-0.3-0.1-0.4-0.2c-0.1-0.1-0.2-0.2-0.2-0.4v-1.1
					c0-0.1,0-0.1-0.1-0.1c-0.9-0.1-1.8-0.5-2.6-1c-0.1-0.1-0.2-0.2-0.2-0.3c0,0,0-0.1,0-0.1c0-0.1,0-0.2,0.1-0.3l0.4-0.6
					c0.1-0.1,0.2-0.2,0.3-0.2c0.1,0,0.3,0,0.4,0.1c0.7,0.5,1.4,0.7,2.1,0.7c1,0,1.6-0.5,1.6-1.4c0-0.2-0.1-0.5-0.2-0.7
					c-0.1-0.2-0.3-0.4-0.5-0.5c-0.2-0.2-0.5-0.3-0.7-0.5c-0.3-0.2-0.6-0.3-0.9-0.4c-0.3-0.1-0.6-0.3-0.9-0.5
					c-0.3-0.2-0.5-0.4-0.7-0.6c-0.2-0.2-0.4-0.5-0.5-0.8c-0.1-0.3-0.2-0.7-0.2-1.1c0-0.8,0.2-1.5,0.7-2.1c0.5-0.5,1.1-0.9,1.9-1.1
					c0,0,0.1,0,0.1-0.1v-1.2c0-0.1,0.1-0.3,0.2-0.4c0.1-0.1,0.2-0.2,0.4-0.2h0.5c0.1,0,0.3,0.1,0.4,0.2c0.1,0.1,0.2,0.2,0.2,0.4v1.2
					c0,0,0,0.1,0.1,0.1C80.1,100.7,80.8,101,81.5,101.6z"/>
			</g>
		</g>
		<rect x="3" y="147.9" class="st0" width="132.7" height="47"/>
	</g>
	<line class="st2" x1="4.2" y1="192" x2="4.2" y2="251.8"/>
	<line class="st2" x1="3.8" y1="252.3" x2="36.4" y2="252.3"/>
	<path class="st3" d="M117,22.9c0,0-3.7,2.2-5.7,2.9c-2,0.7-26,8.2-26,8.2s-10.4,1.6-11,7.9c-0.6,6.3-3.8,34-3.8,34l-1.3,14
		c0,0,0.6,4.1,3.6,3.9c3-0.2,6.5-4.6,6.6-7.5c0.1-2.9,5.4-25.3,8-28.5c2.5-3.2,3.9-4,5.3-2.4c1.4,1.5,2.2,3.9,1,8.3
		c-1.2,4.5-9,19-10.1,22.3c-1.1,3.3-2.5,5.8-1.7,7.2c0.8,1.5,2.3,3.5,4.6,2.7c2.2-0.8,5.8-3.5,8.1-8.9c2.3-5.4,9.1-13.3,11-16.6
		c1.9-3.3,9.6-10.3,11.2-12.9s4.4-5,6.1-7.3c1.7-2.3,7-5.6,7-5.6l36.6-22L148.9,1.1L117,22.9z"/>
	<g>
		<path class="st4" d="M57.8,252.7c-1.2,0.3-2.5,0.6-3.7,0.9v7.4c0,2.2-0.4,3.4-1.7,4.1c-1.3,0.7-3,0.9-5.5,0.8
			c-0.1-1.2-0.7-3.2-1.3-4.4c1.2,0.1,2.6,0.1,3,0.1c0.5,0,0.6-0.2,0.6-0.6v-6.2l-3.1,0.7l-1.2-4.7c1.2-0.2,2.7-0.5,4.3-0.8v-5.2
			h-3.8v-4.5h3.8v-6.2h4.8v6.2h3.7v4.5h-3.7v4.1c1-0.2,2.1-0.5,3.1-0.7L57.8,252.7z M75.9,261.4c0,2.2-0.4,3.4-1.8,4.1
			c-1.4,0.7-3.2,0.8-5.5,0.8c-0.2-1.3-0.8-3.3-1.3-4.5c1,0.1,2.6,0.1,3,0.1c0.4,0,0.6-0.1,0.6-0.5V260c-2.6,0.8-5.3,1.6-7.5,2.2
			l-0.8-2.5c-0.5,2.5-1.4,4.9-2.8,6.8c-0.9-0.8-3.1-2.2-4.2-2.7c2.7-3.5,3-8.6,3-12.2v-5.1h17.5V261.4z M74.8,245.2H59.3v-9.9h15.5
			V245.2z M68.5,256.4c-1.3-0.6-3.5-1.4-5.4-1.8c0,0.9-0.1,1.9-0.3,2.9C64.5,257.2,66.5,256.8,68.5,256.4z M70.8,255.9v-5.3h-7.6v1
			c0,0.5,0,1,0,1.6l1.2-2.1c2.1,0.3,4.9,1,6.4,1.8l-1.9,3.3L70.8,255.9z M70.1,239.1h-6.2v2.3h6.2V239.1z"/>
		<path class="st4" d="M86,256.7c-0.6,2.5-1.6,5.4-2.4,7.1c-0.9-0.5-2.7-1.2-3.7-1.6c0.9-1.7,1.7-4.2,2.2-6.5L86,256.7z M91.2,255.4
			v10.7h-4.6v-10.7h-6.3v-4h16.8v4H91.2z M86.5,240.5h-5.7v-3.9h5.7v-2.2h4.6v2.2h5.6v3.9h-5.6v1h4.8v3.9H81.7v-3.9h4.9V240.5z
			 M95.8,246.5c1.7-3.2,2.6-7.7,3-12.3l4.8,0.7c-0.2,1.8-0.5,3.6-0.9,5.4h5.8l0.7-0.2l3.4,0.9c-0.6,3.5-1.6,7.5-2.5,10.1l-3.9-1.2
			c0.3-1.4,0.7-3.3,1.1-5.2h-5.7c-0.8,2.5-1.7,4.7-2.8,6.5c-0.6-0.6-1.8-1.6-2.9-2.3v1.6H81.8v-3.9H95.8z M95.1,255.7
			c0.8,1.6,1.7,3.8,2,5.2l-3.8,1.6c-0.3-1.4-1-3.6-1.8-5.4L95.1,255.7z M105.8,248.5c0,0.9,0,2-0.1,3.1c1.1,4.5,3.3,8.4,7,10.3
			c-1.1,0.9-2.6,2.9-3.3,4.2c-2.5-1.6-4.2-3.9-5.5-6.8c-1,2.5-2.6,4.9-4.9,7c-0.8-1.1-2.5-2.6-3.7-3.4c5.4-4.5,5.9-10.7,5.9-14.7
			v-1.6h4.6V248.5z"/>
		<path class="st4" d="M73.6,292.5c-1.7,4.5-4.2,8-7.5,10.7c3.1,1.1,6.7,1.8,10.8,2.2c-1.1,1.2-2.5,3.4-3.1,4.9
			c-5.1-0.7-9.3-1.9-12.8-3.7c-4,2-8.7,3.3-13.7,4c-0.4-1.3-1.7-3.6-2.6-4.8c4.3-0.5,8.2-1.2,11.6-2.5c-2.2-1.9-4-4.2-5.6-7l2.4-0.8
			H48v-4.8h10.2v-3.2h-12v-4.9h12v-4h5.1v4h12.1v4.9H63.4v3.2h5.9l0.8-0.2L73.6,292.5z M55.6,295.5c1.3,2.2,3.2,3.9,5.5,5.4
			c2.2-1.4,4-3.2,5.4-5.4H55.6z"/>
		<path class="st4" d="M91.5,297.1c-0.9,0.3-1.8,0.5-2.8,0.8v7.1c0,2.1-0.3,3.3-1.4,4.1c-1.1,0.8-2.7,0.9-4.9,0.9
			c-0.1-1.2-0.6-3.2-1.2-4.5c1.1,0,2.2,0,2.6,0c0.4,0,0.5-0.1,0.5-0.6v-5.9l-3.2,0.8l-1-4.7c1.2-0.2,2.7-0.5,4.2-0.9v-5.1h-3.7v-4.5
			h3.7v-6.1h4.4v6.1h2.4v4.5h-2.4v4l2.2-0.5L91.5,297.1z M112.3,282.2v4.4h-8v1.9h6.6v4.4H93.3v-4.4h6.4v-1.9h-8.2v-4.4h8.2v-3.4
			h4.6v3.4H112.3z M108.6,295.3h3.5v4.4h-3.5v6.1c0,2.3-0.4,3.4-1.9,4.1c-1.4,0.7-3.3,0.7-5.7,0.7c-0.2-1.3-0.8-3.3-1.3-4.5
			c1.3,0.1,3.1,0.1,3.6,0.1c0.5,0,0.6-0.1,0.6-0.5v-5.9h-6.6c1.2,1.7,2.8,3.9,3.6,5.5l-4.1,2.3c-0.6-1.6-2.2-4.1-3.4-5.9l3.5-1.9h-5
			v-4.4H104v-1.9h4.6V295.3z"/>
	</g>
</g>
</svg>
