<?xml version="1.0" encoding="utf-8"?>
<!-- Generator: Adobe Illustrator 21.0.2, SVG Export Plug-In . SVG Version: 6.00 Build 0)  -->
<svg version="1.1" id="圖層_1" xmlns="http://www.w3.org/2000/svg" xmlns:xlink="http://www.w3.org/1999/xlink" x="0px" y="0px"
	 viewBox="0 0 42 41" style="enable-background:new 0 0 42 41;" xml:space="preserve">
<style type="text/css">
	.st0{fill:#A63F24;}
</style>
<g>
	<path class="st0" d="M41.4,20.4c0-0.1,0-0.1,0-0.2c0-0.1,0-0.1,0-0.2C41.2,17.9,24.6,1.6,21.3,0.1C21.2,0,20.9,0,20.7,0
		c-0.2,0-0.4,0-0.6,0.1C16.8,1.6,0.2,17.9,0,20c0,0.1,0,0.1,0,0.2c0,0.1,0,0.1,0,0.2c0.2,2.1,16.8,18.4,20.1,19.9
		c0.2,0.1,0.4,0.1,0.6,0.1c0.2,0,0.4,0,0.6-0.1C24.6,38.9,41.2,22.6,41.4,20.4z M22.5,36.7h-1.8h-1.8C16,23.9,4.2,22.1,4.1,22v-1.8
		v-1.8c0.1,0,11.9-1.9,14.8-14.7h1.8h1.8c2.9,12.8,14.7,14.6,14.8,14.7v1.8V22C37.2,22.1,25.4,23.9,22.5,36.7z"/>
	<path class="st0" d="M20.7,8c-2.7,5.5-6.6,8.9-9.9,10.9h9.9h9.9C27.3,16.9,23.4,13.5,20.7,8z"/>
	<path class="st0" d="M10.8,21.4c3.3,2.1,7.3,5.5,9.9,10.9c2.7-5.5,6.6-8.9,9.9-10.9h-9.9H10.8z"/>
</g>
</svg>
