<svg id="806531cb-5b94-485c-952f-48e3cd3e950e" data-name="圖層 1" xmlns="http://www.w3.org/2000/svg" viewBox="0 0 132 128"><title>logo-statebuilding-bk</title><polygon points="5.54 109.53 6.31 104.6 7.73 104.6 7.82 104.02 3.35 104.02 3.26 104.6 4.66 104.6 3.88 109.53 5.54 109.53" style="fill:#1a0b08"/><path d="M9.26,108.34l.14,1.18h1.67L10.4,104H8.94l-2.5,5.51H7.1l.52-1.19Zm-.32-3,.25,2.4H7.88Z" style="fill:#1a0b08"/><polygon points="14.22 104.02 12.57 104.02 11.7 109.53 13.36 109.53 14.22 104.02" style="fill:#1a0b08"/><polygon points="17.73 106.51 18.05 109.53 19.12 109.53 21.46 104.02 20.8 104.02 19.44 107.28 19.14 104.02 18.14 104.02 16.79 107.29 16.5 104.02 14.85 104.02 15.4 109.53 16.48 109.53 17.73 106.51" style="fill:#1a0b08"/><path d="M24.31,104H22.85l-2.5,5.51H21l.52-1.19h1.64l.14,1.18H25Zm-2.52,3.75,1.06-2.4.25,2.4Z" style="fill:#1a0b08"/><polygon points="29.44 107.73 27.52 104.02 26.48 104.02 25.61 109.53 26.18 109.53 26.72 106.13 28.45 109.53 29.72 109.53 30.59 104.02 30.03 104.02 29.44 107.73" style="fill:#1a0b08"/><path d="M7.31,114.75l0-.19a1.11,1.11,0,0,0,0-.26,1,1,0,0,0-.47-.84,2.08,2.08,0,0,0-1.21-.33,2.37,2.37,0,0,0-1.64.58,1.89,1.89,0,0,0-.65,1.47,1.37,1.37,0,0,0,.7,1.2l.17.11.16.08.34.13.33.14.25.13.11.05.15.11a.54.54,0,0,1,.19.39.74.74,0,0,1-.31.6,1.18,1.18,0,0,1-.76.24,1.17,1.17,0,0,1-.77-.24.79.79,0,0,1-.28-.64,1.77,1.77,0,0,1,.24-.73l-.82.16a2.16,2.16,0,0,0-.12.6,1.14,1.14,0,0,0,.47,1,2.13,2.13,0,0,0,1.3.35,2.64,2.64,0,0,0,1.78-.6,1.9,1.9,0,0,0,.7-1.51,1.33,1.33,0,0,0-.18-.67,1.41,1.41,0,0,0-.5-.5l-.33-.18-.49-.21L5.35,115,5,114.87l-.19-.12a.53.53,0,0,1-.2-.4.69.69,0,0,1,.3-.57,1.17,1.17,0,0,1,.73-.23,1.13,1.13,0,0,1,.73.23.72.72,0,0,1,.28.58,1.53,1.53,0,0,1-.14.54Z" style="fill:#1a0b08"/><polygon points="10.23 118.74 11.01 113.81 12.42 113.81 12.52 113.23 8.05 113.23 7.96 113.81 9.35 113.81 8.57 118.74 10.23 118.74" style="fill:#1a0b08"/><path d="M14.1,118.74h1.67l-.66-5.51H13.64l-2.5,5.51h.65l.52-1.19H14ZM12.57,117l1.06-2.4.25,2.4Z" style="fill:#1a0b08"/><polygon points="18.3 118.74 19.08 113.81 20.49 113.81 20.58 113.23 16.11 113.23 16.02 113.81 17.42 113.81 16.64 118.74 18.3 118.74" style="fill:#1a0b08"/><polygon points="24.74 113.81 24.83 113.23 21.22 113.23 20.35 118.74 24.3 118.74 24.39 118.17 22.1 118.17 22.45 116 24.08 116 24.17 115.45 22.53 115.45 22.78 113.81 24.74 113.81" style="fill:#1a0b08"/><path d="M29.69,115.26a1.37,1.37,0,0,0,.31-.86,1,1,0,0,0-.42-.86,2,2,0,0,0-1.19-.31H25.81l-.87,5.51h2.78a2.23,2.23,0,0,0,1.73-.63,1.49,1.49,0,0,0,.42-1,1.25,1.25,0,0,0-.19-.68,1.06,1.06,0,0,0-.52-.42,3.94,3.94,0,0,0-.5-.15,2.61,2.61,0,0,0,.63-.22A1.37,1.37,0,0,0,29.69,115.26ZM28,117.82a.83.83,0,0,1-.84.43h-.47l.34-2.14h.44q.73,0,.73.78A2.14,2.14,0,0,1,28,117.82Zm-.42-2.2h-.47l.31-1.88h.43a.59.59,0,0,1,.44.14.61.61,0,0,1,.14.44Q28.39,115.62,27.56,115.62Z" style="fill:#1a0b08"/><path d="M34.48,116.84a4.22,4.22,0,0,1-.13.6,1.25,1.25,0,0,1-.19.37,1.1,1.1,0,0,1-.92.44.89.89,0,0,1-.63-.21.74.74,0,0,1-.23-.57,6,6,0,0,1,.08-.63l.57-3.61H31.37l-.57,3.59a4.85,4.85,0,0,0-.05.69,1.13,1.13,0,0,0,.5,1,2.5,2.5,0,0,0,1.43.35,2.46,2.46,0,0,0,1.7-.55,1.75,1.75,0,0,0,.44-.58,3.45,3.45,0,0,0,.23-.89l.57-3.59H35Z" style="fill:#1a0b08"/><polygon points="35.8 118.74 37.45 118.74 38.32 113.23 36.67 113.23 35.8 118.74" style="fill:#1a0b08"/><polygon points="41.02 113.23 39.38 113.23 38.51 118.74 42.27 118.74 42.36 118.16 40.23 118.16 41.02 113.23" style="fill:#1a0b08"/><path d="M46.08,113.23H43.77l-.87,5.51h2.25a2.78,2.78,0,0,0,2.17-.92,3.47,3.47,0,0,0,.83-2.41,2.24,2.24,0,0,0-.53-1.6A2,2,0,0,0,46.08,113.23Zm.31,2.59q-.06.49-.15.94a2.76,2.76,0,0,1-.47,1.13.93.93,0,0,1-.75.35h-.4l.72-4.53h.3a.68.68,0,0,1,.63.29,1.88,1.88,0,0,1,.18,1A7.21,7.21,0,0,1,46.38,115.83Z" style="fill:#1a0b08"/><polygon points="48.59 118.74 50.25 118.74 51.11 113.23 49.46 113.23 48.59 118.74" style="fill:#1a0b08"/><polygon points="55.14 116.95 53.22 113.23 52.17 113.23 51.3 118.74 51.87 118.74 52.41 115.34 54.15 118.74 55.41 118.74 56.28 113.23 55.73 113.23 55.14 116.95" style="fill:#1a0b08"/><path d="M59.12,116.36h.76l-.18,1.11c0,.22-.06.36-.08.41a.75.75,0,0,1-.11.2.62.62,0,0,1-.53.27q-.62,0-.62-.89a9.81,9.81,0,0,1,.17-1.5,8.48,8.48,0,0,1,.36-1.5,1.53,1.53,0,0,1,.47-.67,1.08,1.08,0,0,1,.68-.24q.69,0,.7.75a2.62,2.62,0,0,1,0,.32,3.37,3.37,0,0,1-.08.39l.78-.34,0-.38a1,1,0,0,0-.4-.86,1.78,1.78,0,0,0-1.12-.31,3,3,0,0,0-2.32,1,3.76,3.76,0,0,0-.92,2.59,2.07,2.07,0,0,0,.56,1.56,2.17,2.17,0,0,0,1.58.54,2.15,2.15,0,0,0,1.34-.37l.19-.17.11.44h.61l.47-3H59.22Z" style="fill:#1a0b08"/><path d="M7.79,124.56a1.71,1.71,0,0,0,.15-.7,1.28,1.28,0,0,0-.44-1,1.94,1.94,0,0,0-1.26-.36H3.77L2.9,128H4.56l.35-2.24h.52a4,4,0,0,0,1.15-.14,2.09,2.09,0,0,0,.79-.44A1.75,1.75,0,0,0,7.79,124.56Zm-2.47.63H5L5.35,123h.28a.76.76,0,0,1,.55.16.76.76,0,0,1,.16.55Q6.34,125.18,5.31,125.18Z" style="fill:#1a0b08"/><path d="M9.74,122.45,7.25,128H7.9l.52-1.19h1.64L10.2,128h1.67l-.66-5.51ZM8.68,126.2l1.06-2.4.25,2.4Z" style="fill:#1a0b08"/><path d="M17.14,122.76a2.5,2.5,0,0,0-1.38-.31H13.37L12.5,128h1.65l.42-2.65h.31a.66.66,0,0,1,.47.14.62.62,0,0,1,.14.45,4.33,4.33,0,0,1-.08.66l-.08.45,0,.28a2,2,0,0,0,0,.34,1.52,1.52,0,0,0,.05.32H17a1.08,1.08,0,0,1-.08-.22,1,1,0,0,1,0-.19,5.16,5.16,0,0,1,.08-.74l.06-.46c0-.06,0-.13,0-.21a.84.84,0,0,0-.14-.53.9.9,0,0,0-.29-.26,2.45,2.45,0,0,0-.49-.16,2.6,2.6,0,0,0,.62-.2,1.71,1.71,0,0,0,.41-.32,1.5,1.5,0,0,0,.32-.47,1.31,1.31,0,0,0,.11-.51A1,1,0,0,0,17.14,122.76ZM15,124.81h-.32l.29-1.86h.4q.67,0,.67.64Q16,124.82,15,124.81Z" style="fill:#1a0b08"/><polygon points="18.29 123.03 19.69 123.03 18.91 127.95 20.57 127.95 21.35 123.03 22.76 123.03 22.85 122.45 18.38 122.45 18.29 123.03" style="fill:#1a0b08"/><polygon points="25.36 125.06 24.7 122.45 22.98 122.45 23.88 125.92 23.56 127.95 25.22 127.95 25.54 125.92 27.44 122.45 26.79 122.44 25.36 125.06" style="fill:#1a0b08"/><path d="M28.67,95.87V87.18c0-2.53-1.86-2.53-3.66-2.53H7.65c-2.76,0-2.76,1.65-2.76,3.39v8.66c0,2.56,1.86,2.56,3.66,2.56H25.91C28.67,99.25,28.67,97.61,28.67,95.87Zm-5.52-.21c0,.73-.27.81-.83.81H11.25c-.58,0-.83-.12-.83-.81V88.89c0-.73.27-.81.83-.81H22.31c.61,0,.83.12.83.81Z" style="fill:#1a0b08"/><path d="M24.86,80.54h.08l0,.07.41.69c.4.68,1,1.61,1.13,1.86a1.65,1.65,0,0,0,1.61.78c2.27-.72,3.32-1.59,3.32-2.76,0-.67-.27-1.19-2.84-3.3-2.8-2.3-7.08-5.21-7.91-5.21a1,1,0,0,0-1,.93c0,.32.15.54.48.91a41.91,41.91,0,0,1,3.25,3.86l.13.18-.22,0c-3.61.36-8,.57-11.91.72h-.33l.24-.23c.94-.92,4-4.19,6.22-6.93l0-.05c.41-.5.66-.8.66-1.22,0-1.38-2.59-2.07-4-2.07h-.37c-.82,0-1.23,0-1.68,1a58.72,58.72,0,0,1-5.42,9.57l0,0H6.66l-1.39,0c-.91,0-2.05,0-2.36.06a1.44,1.44,0,0,0-1.27,1.59,1.79,1.79,0,0,0,2,2C6.69,83.09,21,81.13,24.86,80.54Z" style="fill:#1a0b08"/><path d="M62.06,92.62H47.13a.42.42,0,0,1-.44-.41c0-.4.21-.86.51-.86h14c1.35,0,2-.56,2-1.72V88c0-1.91-1.3-1.91-2.68-1.91H42.69c-.78,0-.93.37-.93,1,0,.79.35,1,.93,1H57.44c.64,0,.64.22.64.82s-.35.51-.64.51H43.23a1.27,1.27,0,0,0-1.35,1.14,28.75,28.75,0,0,0-.67,2.89,1.21,1.21,0,0,0,1.25,1.24H57.53c.19,0,.41.08.41.47a2.35,2.35,0,0,1-.5,1.72,1.71,1.71,0,0,1-1.31.36H40.67c-.64,0-.75.38-.75,1.18s.37,1,.93,1H59.38c1.84,0,2.81-.23,3.36-1.57a10.27,10.27,0,0,0,.82-3.6A1.45,1.45,0,0,0,62.06,92.62Z" style="fill:#1a0b08"/><path d="M62.76,75a.93.93,0,0,0-.93.89,1.82,1.82,0,0,0,.18.78l.06.16h-.17l-.76,0-.74,0-.31,0,.21-.23.46-.49c.65-.69,1.46-1.56,2.34-2.64a1.74,1.74,0,0,0,.55-1.19c0-1-1.28-1.65-2-1.65a1.06,1.06,0,0,0-1.07.72c-.55,1.06-.88,1.61-1.12,2l-.1.17-.11-.16a1.8,1.8,0,0,0-.48-.51l-.09-.07.06-.1c.79-1.24.94-1.65.94-2,0-.71-.86-1.24-1.63-1.24S57.25,70,57,71.41l0,.16-.24-.12a1.06,1.06,0,0,0-.52-.16,1,1,0,0,0-1,1,.86.86,0,0,0,.06.31l.06.17h-6c-.53,0-.64.4-.64.73a.64.64,0,0,0,.64.73h5.71c.27,0,.57-.07.64-.62l0-.3.18.24a18,18,0,0,1,1.15,1.6l.16.25a.93.93,0,0,0,.61.49l.15.05-.09.13c-.28.42-.39.57-.49.7l-.11.16,0,.05h-.06c-1.65,0-2,0-2.08.81l0,.22-.17-.14a.64.64,0,0,0-.46-.16H49.88l0-.08-.22-.49-.22-.49-.16-.38c-.36-.82-.62-1.32-1.29-1.32a1,1,0,0,0-1,1,1.63,1.63,0,0,0,.16.67l.11.31H47l-.88,0-.59,0h-.28l.18-.21c.77-.88,1.76-2,2.61-3.14a1.83,1.83,0,0,0,.48-1.19c0-1.07-1.2-1.65-1.82-1.65a1,1,0,0,0-.88.5c-.22.38-.5.93-.74,1.41l-.41.81-.11.2-.11-.2a1.36,1.36,0,0,0-.37-.4l-.2-.17.05-.09c.8-1.32.91-1.73.91-2a1.47,1.47,0,0,0-1.53-1.27c-.64,0-.77.48-1,1.87l0,.18-.15-.09a1.05,1.05,0,0,0-.57-.17,1,1,0,0,0-1,.92c0,.24.14.43.59,1.06l.21.29c.16.21.68,1,1,1.51l.26.4a1,1,0,0,0,.51.36l.16.05L43,76.4a4.52,4.52,0,0,1-.36.5l0,0H42.6c-1.52,0-2,0-2,1.11,0,.32.06,1.37.9,1.37.3,0,1.54-.16,1.66-.19l.16,0v1.56l-.21-.19A1.69,1.69,0,0,0,42,80.08c-.7,0-.79.49-.89,1l-.06.29-.17-.17c-.69-.72-4.41-3.1-5.56-3.1h-.08c-.18,0-.32,0-.38.06a.67.67,0,0,0-.09.44,1.51,1.51,0,0,0,.45.93,16.62,16.62,0,0,1,1.68,3.21c.16.37.32.73.48,1.07a1.39,1.39,0,0,0,1.35.88,2.57,2.57,0,0,0,1.43-.49l.24-.16v.24a1,1,0,0,0,.24.73,1,1,0,0,0,.68.29c.55,0,.91-.25,1.8-2.59l.24-.64v1.83c0,.83.19,1.68,1.57,1.68,1.17,0,1.63-.47,1.63-1.68v-3l.24.56a11.57,11.57,0,0,1,.52,1.61c.26,1.06.37,1.4,1,1.4a1.37,1.37,0,0,0,1.06-.5l.14-.14.07.18c.38,1,1.14,1,2.18,1h1.05c.95,0,1.47,0,1.94-.59l.17-.21.06.26a.92.92,0,0,0,1,.79c.82,0,1.44-1.59,1.81-2.53l.26-.67v1.78c0,.83.2,1.68,1.69,1.68,1.25,0,1.76-.49,1.76-1.68V78.68l.09,0,.42-.08.41-.08.12,0,0,.13c.29,1.28.4,1.65,1.09,1.65A1.51,1.51,0,0,0,65,78.78a12.24,12.24,0,0,0-1.42-3.3A1,1,0,0,0,62.76,75ZM52.14,83.35c-.24,0-.48,0-.48-.54,0-.79,0-1,.8-1,.48,0,.48.38.48.63C52.93,83.2,52.91,83.35,52.14,83.35ZM58,80.77l-.21-.21a1.7,1.7,0,0,0-1.22-.47.83.83,0,0,0-.93.79c0,.27-.12.92-.25,1.71l-.25,0c0-2.38-.93-2.38-2.33-2.38H51.75c-1.18,0-2,0-2.3,1.48L49.4,82l-.28-.44c-.93-1.47-1-1.59-1.58-1.59a.79.79,0,0,0-.78.44l-.24.48V78.68l.09,0,.45-.1.44-.09.12,0,0,.19c.23.95.36,1.36,1,1.36a1.27,1.27,0,0,0,.49-.08,1.78,1.78,0,0,0,.78-.68l0-.06h4.47a.54.54,0,0,0,.56-.32l.13-.2.09.22a.8.8,0,0,0,.81.56,6,6,0,0,0,.76-.07l1-.12.14,0Z" style="fill:#1a0b08"/><path d="M36.88,98.75c.74,0,1-.49,1.35-1.47a63.24,63.24,0,0,0,2.48-10.66,1,1,0,0,0-.91-1l-.21,0c-.3,0-.74.12-1,.85a42.38,42.38,0,0,1-3.49,8.34,5.21,5.21,0,0,0-.73,2C34.38,98.08,35.83,98.75,36.88,98.75Z" style="fill:#1a0b08"/><path d="M98.09,96.88H86.65V93h4.59a1.1,1.1,0,0,0,.82-.26,1.18,1.18,0,0,0,.2-.93l0-.27.22.15A19.25,19.25,0,0,0,98,94.5a1,1,0,0,0,1-1,1,1,0,0,0-.52-.92,16.43,16.43,0,0,1-5.08-6.18l-.07-.17h4.37c.52,0,1.05-.12,1.05-1s-.6-1-1.05-1H93.22V74.88H96.6c.52,0,1.06-.12,1.06-1,0-.65-.36-1-1.06-1H93.22V71.61c0-1.47-.85-2.1-2.84-2.1-2.43,0-2.75,1.12-2.75,2.1v1.27H79.91V71.61c0-1.47-.85-2.1-2.84-2.1-2.43,0-2.75,1.12-2.75,2.1v1.27H70.68c-.53,0-.73.09-.73,1s.43,1,.77,1h3.6v9.36h-5c-.49,0-.65.08-.65,1s.38,1,.68,1h4.84l-.07.17a17.72,17.72,0,0,1-5.07,6.32c-.48.38-.72.57-.72,1.07s.64.69,1.17.69A18.76,18.76,0,0,0,75,91.76l.21-.14v.25a1.23,1.23,0,0,0,.23.92,1.07,1.07,0,0,0,.79.25h4.69v3.84H68.77c-.51,0-.75.1-.75,1s.35,1,.66,1H98.09c.45,0,1.06-.1,1.06-1S98.55,96.88,98.09,96.88Zm-18.18-22h7.72v1.78H79.91Zm0,3.78h7.72v1.78H79.91Zm0,3.78h7.72v1.81H79.91Zm1,4a2.24,2.24,0,0,0,0,.31V91H76l.28-.22a20.06,20.06,0,0,0,4.29-4.48l.06-.09H81Zm5.64-.21h.27l0,.05a21.09,21.09,0,0,0,4.32,4.51l.28.22H86.65V86.77a3.08,3.08,0,0,0,0-.38Z" style="fill:#1a0b08"/><path d="M108.69,80.28a1.28,1.28,0,0,0-.31.75,1,1,0,0,0,1,1c.43,0,1.31-.76,1.95-1.31l.35-.3V91.64c0,1.75,0,3.4,2.87,3.4h16.15c.71,0,1-.3,1-1V93.9c0-.36,0-.61-.12-.74A.79.79,0,0,0,131,93h-5.26V88.56h3.44c.53,0,1-.12,1-1,0-.12,0-.23,0-.33,0-.28,0-.48-.07-.58a.73.73,0,0,0-.5-.11h-3.9V82.53h3.44c.53,0,1-.12,1-1v-.18c0-.34,0-.59-.11-.7a.78.78,0,0,0-.54-.13h-3.81v-4h4.34c.53,0,1-.12,1-1s-.3-1-1-1h-5.67l.37-.23c2.22-1.39,2.62-2,2.62-2.66,0-1.39-2.1-2-3.51-2h-.28c-.89,0-1.19,0-1.54.92-.44,1.17-1.73,3.82-1.82,3.95l0,.06h-3.19l.14-.2c.39-.54,1.57-2.17,1.57-2.91s-1.55-1.91-3.54-1.91c-1.49,0-1.49,0-1.86,1.34-.06.23-.14.49-.23.8a29.63,29.63,0,0,1-4.4,8.5Zm8.63-2.9c0-.65.17-.82.83-.82h2.1v4h-2.93Zm0,5.14h2.93v4.06h-2.93Zm0,6h2.93V93h-2.1c-.66,0-.83-.17-.83-.82Z" style="fill:#1a0b08"/><path d="M131.93,97.18c0-.07-.11-.15-.45-.15H115.08c-1.93,0-5.17,0-5.17-4.25V85c0-2.19-1.59-2.19-3.13-2.19h-4.34a.81.81,0,0,0-.57.14c-.14.14-.14.42-.14.81v.07a1.89,1.89,0,0,0,.09.78c0,.07.15.08.38.07l1.8.14h0c.54,0,.69.16.69.73V94l-.06,0-.29.17a11.94,11.94,0,0,1-2.26,1.05c-.36.14-.48.18-.48,1.59,0,1.71.81,2.76,1.57,2.76s2.63-2.08,3.61-3.19l.12-.14.09.16c1.4,2.63,3,2.63,7.74,2.63H131c.73,0,1-.27,1-1v-.08A2,2,0,0,0,131.93,97.18Z" style="fill:#1a0b08"/><path d="M104.4,77.68l0,.1C104.74,79,105,80,106.31,80s3.39-1.1,3.39-2.83c0-1.31-2.13-3.56-4-5.37s-2.61-2-2.93-2h-.06c-.52,0-.62.33-.62.85a2.59,2.59,0,0,0,.31,1.1A46.78,46.78,0,0,1,104.4,77.68Z" style="fill:#1a0b08"/><path d="M36.24,73.7c.11.28.23.59.41,1h0c.91,2.14,1,2.3,1.93,2.3a2.7,2.7,0,0,0,2.65-2.38c0-1.64-4.9-4.41-5.59-4.41s-.71.15-.71.62a1.28,1.28,0,0,0,.2.65A11.16,11.16,0,0,1,36.24,73.7Z" style="fill:#1a0b08"/><path d="M54.47,71.7c.53,0,.64-.4.64-.73,0-.49-.21-.73-.64-.73H50.1c-.43,0-.64.24-.64.73s.22.73.64.73Z" style="fill:#1a0b08"/><path d="M49.61,76.47a.58.58,0,0,0,.49.19h4.37c.44,0,.64-.22.64-.73s-.21-.73-.64-.73H50.1a.58.58,0,0,0-.47.18,1.05,1.05,0,0,0-.14.79l0,.22Z" style="fill:#1a0b08"/><path d="M62.54,80.27a.91.91,0,0,0-.83.49l-.22.32.21.65a11.91,11.91,0,0,1,.58,2.46c.12.73.39,1,1,1a1.58,1.58,0,0,0,1.6-1.43,10.38,10.38,0,0,0-1.42-2.92C63.11,80.36,62.89,80.27,62.54,80.27Z" style="fill:#1a0b08"/><path d="M95.12,27.93a1.53,1.53,0,0,0,0-.25h0s0,0,0,0,0,0,0,0h0a1.53,1.53,0,0,0,0-.25C94.81,24.44,72.09,2.09,67.58.1a2.11,2.11,0,0,0-1.73,0c-4.51,2-27.23,24.35-27.53,27.27a1.54,1.54,0,0,0,0,.25h0s0,0,0,0,0,0,0,0h0a1.54,1.54,0,0,0,0,.25c.31,2.92,23,25.27,27.53,27.27a2.12,2.12,0,0,0,1.73,0C72.09,53.2,94.81,30.85,95.12,27.93Zm-26,22.31H64.3A26,26,0,0,0,44,30.13l0-2.48,0-2.48A26,26,0,0,0,64.3,5h4.85A26,26,0,0,0,89.43,25.16l0,2.48,0,2.48A26,26,0,0,0,69.14,50.25Z" style="fill:#a63f24"/><path d="M66.72,10.91a36.49,36.49,0,0,1-13.63,15H80.35A36.49,36.49,0,0,1,66.72,10.91Z" style="fill:#a63f24"/><path d="M53.09,29.26a36.49,36.49,0,0,1,13.63,15,36.49,36.49,0,0,1,13.63-15H53.09Z" style="fill:#a63f24"/></svg>